<?xml version="1.0" encoding="UTF-8"?>
<svg xmlns="http://www.w3.org/2000/svg" xmlns:xlink="http://www.w3.org/1999/xlink" width="792pt" height="611.999999pt" viewBox="0 0 792 611.999999" version="1.2">
<defs>
<clipPath id="clip1">
  <path d="M 62 48.042969 L 724 48.042969 L 724 564 L 62 564 Z M 62 48.042969 "/>
</clipPath>
<clipPath id="clip2">
  <path d="M 573.9375 120.433594 C 568.324219 120.433594 562.996094 120.714844 557.664062 121.277344 C 518.949219 125.765625 479.953125 115.664062 449.652344 91.253906 C 427.769531 73.855469 399.996094 63.195312 369.695312 63.195312 C 351.179688 63.195312 333.222656 67.121094 317.230469 74.417969 C 299.277344 82.554688 278.234375 80.589844 261.964844 69.648438 C 239.519531 54.496094 212.304688 46.359375 183.128906 48.042969 C 117.480469 51.96875 62.210938 105.5625 62.210938 171.21875 C 62.210938 247.539062 111.308594 280.367188 148.902344 294.398438 C 171.625 302.816406 185.371094 326.386719 182.007812 350.515625 C 179.761719 367.070312 178.078125 384.746094 178.921875 398.496094 C 183.96875 487.441406 256.351562 559.273438 345.566406 563.761719 C 423 567.691406 489.769531 521.394531 517.265625 454.894531 C 526.804688 431.886719 549.527344 417.296875 574.496094 417.574219 L 575.058594 417.574219 C 657.257812 417.574219 723.75 351.078125 723.46875 268.863281 C 722.910156 187.214844 655.578125 120.152344 573.9375 120.433594 Z M 573.9375 120.433594 "/>
</clipPath>
<linearGradient id="linear0" gradientUnits="userSpaceOnUse" x1="-0.000000710071" y1="91.945" x2="235.799981" y2="91.945" gradientTransform="matrix(2.805512,0,0,2.805873,62.210698,48.04244)">
<stop offset="0" style="stop-color:rgb(34.899902%,26.298523%,79.598999%);stop-opacity:1;"/>
<stop offset="0.00390625" style="stop-color:rgb(35.153198%,26.53656%,79.423523%);stop-opacity:1;"/>
<stop offset="0.0078125" style="stop-color:rgb(35.40802%,26.774597%,79.249573%);stop-opacity:1;"/>
<stop offset="0.0117187" style="stop-color:rgb(35.662842%,27.012634%,79.074097%);stop-opacity:1;"/>
<stop offset="0.015625" style="stop-color:rgb(35.917664%,27.250671%,78.900146%);stop-opacity:1;"/>
<stop offset="0.0195312" style="stop-color:rgb(36.170959%,27.487183%,78.72467%);stop-opacity:1;"/>
<stop offset="0.0234375" style="stop-color:rgb(36.425781%,27.72522%,78.55072%);stop-opacity:1;"/>
<stop offset="0.0273438" style="stop-color:rgb(36.680603%,27.963257%,78.375244%);stop-opacity:1;"/>
<stop offset="0.03125" style="stop-color:rgb(36.935425%,28.201294%,78.201294%);stop-opacity:1;"/>
<stop offset="0.0351562" style="stop-color:rgb(37.190247%,28.437805%,78.025818%);stop-opacity:1;"/>
<stop offset="0.0390625" style="stop-color:rgb(37.445068%,28.675842%,77.851868%);stop-opacity:1;"/>
<stop offset="0.0429687" style="stop-color:rgb(37.698364%,28.913879%,77.676392%);stop-opacity:1;"/>
<stop offset="0.046875" style="stop-color:rgb(37.953186%,29.151917%,77.502441%);stop-opacity:1;"/>
<stop offset="0.0507812" style="stop-color:rgb(38.208008%,29.389954%,77.326965%);stop-opacity:1;"/>
<stop offset="0.0546875" style="stop-color:rgb(38.46283%,29.627991%,77.153015%);stop-opacity:1;"/>
<stop offset="0.0585937" style="stop-color:rgb(38.717651%,29.864502%,76.977539%);stop-opacity:1;"/>
<stop offset="0.0625" style="stop-color:rgb(38.972473%,30.102539%,76.803589%);stop-opacity:1;"/>
<stop offset="0.0664062" style="stop-color:rgb(39.225769%,30.340576%,76.628113%);stop-opacity:1;"/>
<stop offset="0.0703125" style="stop-color:rgb(39.480591%,30.578613%,76.452637%);stop-opacity:1;"/>
<stop offset="0.0742187" style="stop-color:rgb(39.735413%,30.815125%,76.277161%);stop-opacity:1;"/>
<stop offset="0.078125" style="stop-color:rgb(39.990234%,31.053162%,76.10321%);stop-opacity:1;"/>
<stop offset="0.0820312" style="stop-color:rgb(40.24353%,31.291199%,75.927734%);stop-opacity:1;"/>
<stop offset="0.0859375" style="stop-color:rgb(40.498352%,31.529236%,75.753784%);stop-opacity:1;"/>
<stop offset="0.0898437" style="stop-color:rgb(40.753174%,31.767273%,75.578308%);stop-opacity:1;"/>
<stop offset="0.09375" style="stop-color:rgb(41.007996%,32.00531%,75.404358%);stop-opacity:1;"/>
<stop offset="0.0976562" style="stop-color:rgb(41.262817%,32.241821%,75.228882%);stop-opacity:1;"/>
<stop offset="0.101562" style="stop-color:rgb(41.517639%,32.479858%,75.054932%);stop-opacity:1;"/>
<stop offset="0.105469" style="stop-color:rgb(41.770935%,32.717896%,74.879456%);stop-opacity:1;"/>
<stop offset="0.109375" style="stop-color:rgb(42.025757%,32.955933%,74.705505%);stop-opacity:1;"/>
<stop offset="0.113281" style="stop-color:rgb(42.280579%,33.192444%,74.530029%);stop-opacity:1;"/>
<stop offset="0.117187" style="stop-color:rgb(42.5354%,33.430481%,74.356079%);stop-opacity:1;"/>
<stop offset="0.121094" style="stop-color:rgb(42.790222%,33.668518%,74.180603%);stop-opacity:1;"/>
<stop offset="0.125" style="stop-color:rgb(43.045044%,33.906555%,74.006653%);stop-opacity:1;"/>
<stop offset="0.128906" style="stop-color:rgb(43.29834%,34.143066%,73.831177%);stop-opacity:1;"/>
<stop offset="0.132812" style="stop-color:rgb(43.553162%,34.381104%,73.657227%);stop-opacity:1;"/>
<stop offset="0.136719" style="stop-color:rgb(43.807983%,34.619141%,73.48175%);stop-opacity:1;"/>
<stop offset="0.140625" style="stop-color:rgb(44.062805%,34.857178%,73.3078%);stop-opacity:1;"/>
<stop offset="0.144531" style="stop-color:rgb(44.316101%,35.095215%,73.132324%);stop-opacity:1;"/>
<stop offset="0.148437" style="stop-color:rgb(44.570923%,35.333252%,72.958374%);stop-opacity:1;"/>
<stop offset="0.152344" style="stop-color:rgb(44.825745%,35.569763%,72.782898%);stop-opacity:1;"/>
<stop offset="0.15625" style="stop-color:rgb(45.080566%,35.8078%,72.608948%);stop-opacity:1;"/>
<stop offset="0.160156" style="stop-color:rgb(45.335388%,36.045837%,72.433472%);stop-opacity:1;"/>
<stop offset="0.164062" style="stop-color:rgb(45.59021%,36.283875%,72.259521%);stop-opacity:1;"/>
<stop offset="0.167969" style="stop-color:rgb(45.843506%,36.520386%,72.084045%);stop-opacity:1;"/>
<stop offset="0.171875" style="stop-color:rgb(46.098328%,36.758423%,71.908569%);stop-opacity:1;"/>
<stop offset="0.175781" style="stop-color:rgb(46.353149%,36.99646%,71.733093%);stop-opacity:1;"/>
<stop offset="0.179688" style="stop-color:rgb(46.607971%,37.234497%,71.559143%);stop-opacity:1;"/>
<stop offset="0.183594" style="stop-color:rgb(46.862793%,37.472534%,71.383667%);stop-opacity:1;"/>
<stop offset="0.1875" style="stop-color:rgb(47.117615%,37.710571%,71.209717%);stop-opacity:1;"/>
<stop offset="0.191406" style="stop-color:rgb(47.370911%,37.947083%,71.034241%);stop-opacity:1;"/>
<stop offset="0.195312" style="stop-color:rgb(47.625732%,38.18512%,70.860291%);stop-opacity:1;"/>
<stop offset="0.199219" style="stop-color:rgb(47.880554%,38.423157%,70.684814%);stop-opacity:1;"/>
<stop offset="0.203125" style="stop-color:rgb(48.135376%,38.661194%,70.510864%);stop-opacity:1;"/>
<stop offset="0.207031" style="stop-color:rgb(48.388672%,38.897705%,70.335388%);stop-opacity:1;"/>
<stop offset="0.210937" style="stop-color:rgb(48.643494%,39.135742%,70.161438%);stop-opacity:1;"/>
<stop offset="0.214844" style="stop-color:rgb(48.898315%,39.373779%,69.985962%);stop-opacity:1;"/>
<stop offset="0.21875" style="stop-color:rgb(49.153137%,39.611816%,69.812012%);stop-opacity:1;"/>
<stop offset="0.222656" style="stop-color:rgb(49.407959%,39.848328%,69.636536%);stop-opacity:1;"/>
<stop offset="0.226562" style="stop-color:rgb(49.662781%,40.086365%,69.462585%);stop-opacity:1;"/>
<stop offset="0.230469" style="stop-color:rgb(49.916077%,40.324402%,69.287109%);stop-opacity:1;"/>
<stop offset="0.234375" style="stop-color:rgb(50.170898%,40.562439%,69.113159%);stop-opacity:1;"/>
<stop offset="0.238281" style="stop-color:rgb(50.42572%,40.800476%,68.937683%);stop-opacity:1;"/>
<stop offset="0.242187" style="stop-color:rgb(50.680542%,41.038513%,68.763733%);stop-opacity:1;"/>
<stop offset="0.246094" style="stop-color:rgb(50.935364%,41.275024%,68.588257%);stop-opacity:1;"/>
<stop offset="0.25" style="stop-color:rgb(51.190186%,41.513062%,68.414307%);stop-opacity:1;"/>
<stop offset="0.253906" style="stop-color:rgb(51.443481%,41.751099%,68.238831%);stop-opacity:1;"/>
<stop offset="0.257812" style="stop-color:rgb(51.698303%,41.989136%,68.06488%);stop-opacity:1;"/>
<stop offset="0.261719" style="stop-color:rgb(51.953125%,42.225647%,67.889404%);stop-opacity:1;"/>
<stop offset="0.265625" style="stop-color:rgb(52.207947%,42.463684%,67.715454%);stop-opacity:1;"/>
<stop offset="0.269531" style="stop-color:rgb(52.461243%,42.701721%,67.539978%);stop-opacity:1;"/>
<stop offset="0.273438" style="stop-color:rgb(52.716064%,42.939758%,67.364502%);stop-opacity:1;"/>
<stop offset="0.277344" style="stop-color:rgb(52.970886%,43.177795%,67.189026%);stop-opacity:1;"/>
<stop offset="0.28125" style="stop-color:rgb(53.225708%,43.415833%,67.015076%);stop-opacity:1;"/>
<stop offset="0.285156" style="stop-color:rgb(53.48053%,43.652344%,66.8396%);stop-opacity:1;"/>
<stop offset="0.289062" style="stop-color:rgb(53.735352%,43.890381%,66.665649%);stop-opacity:1;"/>
<stop offset="0.292969" style="stop-color:rgb(53.988647%,44.128418%,66.490173%);stop-opacity:1;"/>
<stop offset="0.296875" style="stop-color:rgb(54.243469%,44.366455%,66.316223%);stop-opacity:1;"/>
<stop offset="0.300781" style="stop-color:rgb(54.498291%,44.602966%,66.140747%);stop-opacity:1;"/>
<stop offset="0.304688" style="stop-color:rgb(54.753113%,44.841003%,65.966797%);stop-opacity:1;"/>
<stop offset="0.308594" style="stop-color:rgb(55.006409%,45.079041%,65.791321%);stop-opacity:1;"/>
<stop offset="0.3125" style="stop-color:rgb(55.26123%,45.317078%,65.617371%);stop-opacity:1;"/>
<stop offset="0.316406" style="stop-color:rgb(55.516052%,45.555115%,65.441895%);stop-opacity:1;"/>
<stop offset="0.320313" style="stop-color:rgb(55.770874%,45.793152%,65.267944%);stop-opacity:1;"/>
<stop offset="0.324219" style="stop-color:rgb(56.025696%,46.029663%,65.092468%);stop-opacity:1;"/>
<stop offset="0.328125" style="stop-color:rgb(56.280518%,46.2677%,64.918518%);stop-opacity:1;"/>
<stop offset="0.332031" style="stop-color:rgb(56.533813%,46.505737%,64.743042%);stop-opacity:1;"/>
<stop offset="0.335938" style="stop-color:rgb(56.788635%,46.743774%,64.569092%);stop-opacity:1;"/>
<stop offset="0.339844" style="stop-color:rgb(57.043457%,46.980286%,64.393616%);stop-opacity:1;"/>
<stop offset="0.34375" style="stop-color:rgb(57.298279%,47.218323%,64.219666%);stop-opacity:1;"/>
<stop offset="0.347656" style="stop-color:rgb(57.553101%,47.45636%,64.044189%);stop-opacity:1;"/>
<stop offset="0.351563" style="stop-color:rgb(57.807922%,47.694397%,63.870239%);stop-opacity:1;"/>
<stop offset="0.355469" style="stop-color:rgb(58.061218%,47.930908%,63.694763%);stop-opacity:1;"/>
<stop offset="0.359375" style="stop-color:rgb(58.31604%,48.168945%,63.520813%);stop-opacity:1;"/>
<stop offset="0.363281" style="stop-color:rgb(58.570862%,48.406982%,63.345337%);stop-opacity:1;"/>
<stop offset="0.367188" style="stop-color:rgb(58.825684%,48.64502%,63.171387%);stop-opacity:1;"/>
<stop offset="0.371094" style="stop-color:rgb(59.078979%,48.883057%,62.995911%);stop-opacity:1;"/>
<stop offset="0.375" style="stop-color:rgb(59.333801%,49.121094%,62.820435%);stop-opacity:1;"/>
<stop offset="0.378906" style="stop-color:rgb(59.588623%,49.357605%,62.644958%);stop-opacity:1;"/>
<stop offset="0.382812" style="stop-color:rgb(59.843445%,49.595642%,62.471008%);stop-opacity:1;"/>
<stop offset="0.386719" style="stop-color:rgb(60.098267%,49.833679%,62.295532%);stop-opacity:1;"/>
<stop offset="0.390625" style="stop-color:rgb(60.353088%,50.071716%,62.121582%);stop-opacity:1;"/>
<stop offset="0.394531" style="stop-color:rgb(60.606384%,50.308228%,61.946106%);stop-opacity:1;"/>
<stop offset="0.398437" style="stop-color:rgb(60.861206%,50.546265%,61.772156%);stop-opacity:1;"/>
<stop offset="0.402344" style="stop-color:rgb(61.116028%,50.784302%,61.59668%);stop-opacity:1;"/>
<stop offset="0.40625" style="stop-color:rgb(61.37085%,51.022339%,61.422729%);stop-opacity:1;"/>
<stop offset="0.410156" style="stop-color:rgb(61.625671%,51.260376%,61.247253%);stop-opacity:1;"/>
<stop offset="0.414062" style="stop-color:rgb(61.880493%,51.498413%,61.073303%);stop-opacity:1;"/>
<stop offset="0.417969" style="stop-color:rgb(62.133789%,51.734924%,60.897827%);stop-opacity:1;"/>
<stop offset="0.421875" style="stop-color:rgb(62.388611%,51.972961%,60.723877%);stop-opacity:1;"/>
<stop offset="0.425781" style="stop-color:rgb(62.643433%,52.210999%,60.548401%);stop-opacity:1;"/>
<stop offset="0.429687" style="stop-color:rgb(62.898254%,52.449036%,60.374451%);stop-opacity:1;"/>
<stop offset="0.433594" style="stop-color:rgb(63.15155%,52.685547%,60.198975%);stop-opacity:1;"/>
<stop offset="0.4375" style="stop-color:rgb(63.406372%,52.923584%,60.025024%);stop-opacity:1;"/>
<stop offset="0.441406" style="stop-color:rgb(63.661194%,53.161621%,59.849548%);stop-opacity:1;"/>
<stop offset="0.445312" style="stop-color:rgb(63.916016%,53.399658%,59.675598%);stop-opacity:1;"/>
<stop offset="0.449219" style="stop-color:rgb(64.170837%,53.636169%,59.500122%);stop-opacity:1;"/>
<stop offset="0.453125" style="stop-color:rgb(64.425659%,53.874207%,59.326172%);stop-opacity:1;"/>
<stop offset="0.457031" style="stop-color:rgb(64.678955%,54.112244%,59.150696%);stop-opacity:1;"/>
<stop offset="0.460938" style="stop-color:rgb(64.933777%,54.350281%,58.976746%);stop-opacity:1;"/>
<stop offset="0.464844" style="stop-color:rgb(65.188599%,54.588318%,58.80127%);stop-opacity:1;"/>
<stop offset="0.46875" style="stop-color:rgb(65.44342%,54.826355%,58.625793%);stop-opacity:1;"/>
<stop offset="0.472656" style="stop-color:rgb(65.698242%,55.062866%,58.450317%);stop-opacity:1;"/>
<stop offset="0.476562" style="stop-color:rgb(65.953064%,55.300903%,58.276367%);stop-opacity:1;"/>
<stop offset="0.480469" style="stop-color:rgb(66.20636%,55.53894%,58.100891%);stop-opacity:1;"/>
<stop offset="0.484375" style="stop-color:rgb(66.461182%,55.776978%,57.926941%);stop-opacity:1;"/>
<stop offset="0.488281" style="stop-color:rgb(66.716003%,56.013489%,57.751465%);stop-opacity:1;"/>
<stop offset="0.492188" style="stop-color:rgb(66.970825%,56.251526%,57.577515%);stop-opacity:1;"/>
<stop offset="0.496094" style="stop-color:rgb(67.224121%,56.489563%,57.402039%);stop-opacity:1;"/>
<stop offset="0.5" style="stop-color:rgb(67.478943%,56.7276%,57.228088%);stop-opacity:1;"/>
<stop offset="0.503906" style="stop-color:rgb(67.733765%,56.965637%,57.052612%);stop-opacity:1;"/>
<stop offset="0.507813" style="stop-color:rgb(67.988586%,57.203674%,56.878662%);stop-opacity:1;"/>
<stop offset="0.511719" style="stop-color:rgb(68.243408%,57.440186%,56.703186%);stop-opacity:1;"/>
<stop offset="0.515625" style="stop-color:rgb(68.49823%,57.678223%,56.529236%);stop-opacity:1;"/>
<stop offset="0.519531" style="stop-color:rgb(68.751526%,57.91626%,56.35376%);stop-opacity:1;"/>
<stop offset="0.523438" style="stop-color:rgb(69.006348%,58.154297%,56.17981%);stop-opacity:1;"/>
<stop offset="0.527344" style="stop-color:rgb(69.261169%,58.390808%,56.004333%);stop-opacity:1;"/>
<stop offset="0.53125" style="stop-color:rgb(69.515991%,58.628845%,55.830383%);stop-opacity:1;"/>
<stop offset="0.535156" style="stop-color:rgb(69.770813%,58.866882%,55.654907%);stop-opacity:1;"/>
<stop offset="0.539063" style="stop-color:rgb(70.025635%,59.104919%,55.480957%);stop-opacity:1;"/>
<stop offset="0.542969" style="stop-color:rgb(70.278931%,59.342957%,55.305481%);stop-opacity:1;"/>
<stop offset="0.546875" style="stop-color:rgb(70.533752%,59.580994%,55.131531%);stop-opacity:1;"/>
<stop offset="0.550781" style="stop-color:rgb(70.788574%,59.817505%,54.956055%);stop-opacity:1;"/>
<stop offset="0.554688" style="stop-color:rgb(71.043396%,60.055542%,54.782104%);stop-opacity:1;"/>
<stop offset="0.558594" style="stop-color:rgb(71.296692%,60.293579%,54.606628%);stop-opacity:1;"/>
<stop offset="0.5625" style="stop-color:rgb(71.551514%,60.531616%,54.432678%);stop-opacity:1;"/>
<stop offset="0.566406" style="stop-color:rgb(71.806335%,60.768127%,54.257202%);stop-opacity:1;"/>
<stop offset="0.570313" style="stop-color:rgb(72.061157%,61.006165%,54.081726%);stop-opacity:1;"/>
<stop offset="0.574219" style="stop-color:rgb(72.315979%,61.244202%,53.90625%);stop-opacity:1;"/>
<stop offset="0.578125" style="stop-color:rgb(72.570801%,61.482239%,53.7323%);stop-opacity:1;"/>
<stop offset="0.582031" style="stop-color:rgb(72.824097%,61.71875%,53.556824%);stop-opacity:1;"/>
<stop offset="0.585938" style="stop-color:rgb(73.078918%,61.956787%,53.382874%);stop-opacity:1;"/>
<stop offset="0.589844" style="stop-color:rgb(73.33374%,62.194824%,53.207397%);stop-opacity:1;"/>
<stop offset="0.59375" style="stop-color:rgb(73.588562%,62.432861%,53.033447%);stop-opacity:1;"/>
<stop offset="0.597656" style="stop-color:rgb(73.843384%,62.670898%,52.857971%);stop-opacity:1;"/>
<stop offset="0.601563" style="stop-color:rgb(74.098206%,62.908936%,52.684021%);stop-opacity:1;"/>
<stop offset="0.605469" style="stop-color:rgb(74.351501%,63.145447%,52.508545%);stop-opacity:1;"/>
<stop offset="0.609375" style="stop-color:rgb(74.606323%,63.383484%,52.334595%);stop-opacity:1;"/>
<stop offset="0.613281" style="stop-color:rgb(74.861145%,63.621521%,52.159119%);stop-opacity:1;"/>
<stop offset="0.617188" style="stop-color:rgb(75.115967%,63.859558%,51.985168%);stop-opacity:1;"/>
<stop offset="0.621094" style="stop-color:rgb(75.369263%,64.096069%,51.809692%);stop-opacity:1;"/>
<stop offset="0.625" style="stop-color:rgb(75.624084%,64.334106%,51.635742%);stop-opacity:1;"/>
<stop offset="0.628906" style="stop-color:rgb(75.878906%,64.572144%,51.460266%);stop-opacity:1;"/>
<stop offset="0.632813" style="stop-color:rgb(76.133728%,64.810181%,51.286316%);stop-opacity:1;"/>
<stop offset="0.636719" style="stop-color:rgb(76.38855%,65.048218%,51.11084%);stop-opacity:1;"/>
<stop offset="0.640625" style="stop-color:rgb(76.643372%,65.286255%,50.93689%);stop-opacity:1;"/>
<stop offset="0.644531" style="stop-color:rgb(76.896667%,65.522766%,50.761414%);stop-opacity:1;"/>
<stop offset="0.648438" style="stop-color:rgb(77.151489%,65.760803%,50.587463%);stop-opacity:1;"/>
<stop offset="0.652344" style="stop-color:rgb(77.406311%,65.99884%,50.411987%);stop-opacity:1;"/>
<stop offset="0.65625" style="stop-color:rgb(77.661133%,66.236877%,50.238037%);stop-opacity:1;"/>
<stop offset="0.660156" style="stop-color:rgb(77.915955%,66.473389%,50.062561%);stop-opacity:1;"/>
<stop offset="0.664063" style="stop-color:rgb(78.170776%,66.711426%,49.888611%);stop-opacity:1;"/>
<stop offset="0.667969" style="stop-color:rgb(78.424072%,66.949463%,49.713135%);stop-opacity:1;"/>
<stop offset="0.671875" style="stop-color:rgb(78.678894%,67.1875%,49.537659%);stop-opacity:1;"/>
<stop offset="0.675781" style="stop-color:rgb(78.933716%,67.425537%,49.362183%);stop-opacity:1;"/>
<stop offset="0.679688" style="stop-color:rgb(79.188538%,67.663574%,49.188232%);stop-opacity:1;"/>
<stop offset="0.683594" style="stop-color:rgb(79.441833%,67.900085%,49.012756%);stop-opacity:1;"/>
<stop offset="0.6875" style="stop-color:rgb(79.696655%,68.138123%,48.838806%);stop-opacity:1;"/>
<stop offset="0.691406" style="stop-color:rgb(79.951477%,68.37616%,48.66333%);stop-opacity:1;"/>
<stop offset="0.695313" style="stop-color:rgb(80.206299%,68.614197%,48.48938%);stop-opacity:1;"/>
<stop offset="0.699219" style="stop-color:rgb(80.461121%,68.850708%,48.313904%);stop-opacity:1;"/>
<stop offset="0.703125" style="stop-color:rgb(80.715942%,69.088745%,48.139954%);stop-opacity:1;"/>
<stop offset="0.707031" style="stop-color:rgb(80.969238%,69.326782%,47.964478%);stop-opacity:1;"/>
<stop offset="0.710938" style="stop-color:rgb(81.22406%,69.564819%,47.790527%);stop-opacity:1;"/>
<stop offset="0.714844" style="stop-color:rgb(81.478882%,69.801331%,47.615051%);stop-opacity:1;"/>
<stop offset="0.71875" style="stop-color:rgb(81.733704%,70.039368%,47.441101%);stop-opacity:1;"/>
<stop offset="0.722656" style="stop-color:rgb(81.988525%,70.277405%,47.265625%);stop-opacity:1;"/>
<stop offset="0.726562" style="stop-color:rgb(82.243347%,70.515442%,47.091675%);stop-opacity:1;"/>
<stop offset="0.730469" style="stop-color:rgb(82.496643%,70.753479%,46.916199%);stop-opacity:1;"/>
<stop offset="0.734375" style="stop-color:rgb(82.751465%,70.991516%,46.742249%);stop-opacity:1;"/>
<stop offset="0.738281" style="stop-color:rgb(83.006287%,71.228027%,46.566772%);stop-opacity:1;"/>
<stop offset="0.742188" style="stop-color:rgb(83.261108%,71.466064%,46.392822%);stop-opacity:1;"/>
<stop offset="0.746094" style="stop-color:rgb(83.514404%,71.704102%,46.217346%);stop-opacity:1;"/>
<stop offset="0.75" style="stop-color:rgb(83.769226%,71.942139%,46.043396%);stop-opacity:1;"/>
<stop offset="0.753906" style="stop-color:rgb(84.024048%,72.17865%,45.86792%);stop-opacity:1;"/>
<stop offset="0.757812" style="stop-color:rgb(84.27887%,72.416687%,45.69397%);stop-opacity:1;"/>
<stop offset="0.761719" style="stop-color:rgb(84.533691%,72.654724%,45.518494%);stop-opacity:1;"/>
<stop offset="0.765625" style="stop-color:rgb(84.788513%,72.892761%,45.344543%);stop-opacity:1;"/>
<stop offset="0.769531" style="stop-color:rgb(85.041809%,73.130798%,45.169067%);stop-opacity:1;"/>
<stop offset="0.773438" style="stop-color:rgb(85.296631%,73.368835%,44.993591%);stop-opacity:1;"/>
<stop offset="0.777344" style="stop-color:rgb(85.551453%,73.605347%,44.818115%);stop-opacity:1;"/>
<stop offset="0.78125" style="stop-color:rgb(85.806274%,73.843384%,44.644165%);stop-opacity:1;"/>
<stop offset="0.785156" style="stop-color:rgb(86.061096%,74.081421%,44.468689%);stop-opacity:1;"/>
<stop offset="0.789062" style="stop-color:rgb(86.315918%,74.319458%,44.294739%);stop-opacity:1;"/>
<stop offset="0.792969" style="stop-color:rgb(86.569214%,74.555969%,44.119263%);stop-opacity:1;"/>
<stop offset="0.796875" style="stop-color:rgb(86.824036%,74.794006%,43.945312%);stop-opacity:1;"/>
<stop offset="0.800781" style="stop-color:rgb(87.078857%,75.032043%,43.769836%);stop-opacity:1;"/>
<stop offset="0.804687" style="stop-color:rgb(87.333679%,75.270081%,43.595886%);stop-opacity:1;"/>
<stop offset="0.808594" style="stop-color:rgb(87.586975%,75.506592%,43.42041%);stop-opacity:1;"/>
<stop offset="0.8125" style="stop-color:rgb(87.841797%,75.744629%,43.24646%);stop-opacity:1;"/>
<stop offset="0.816406" style="stop-color:rgb(88.096619%,75.982666%,43.070984%);stop-opacity:1;"/>
<stop offset="0.820312" style="stop-color:rgb(88.35144%,76.220703%,42.897034%);stop-opacity:1;"/>
<stop offset="0.824219" style="stop-color:rgb(88.606262%,76.45874%,42.721558%);stop-opacity:1;"/>
<stop offset="0.828125" style="stop-color:rgb(88.861084%,76.696777%,42.547607%);stop-opacity:1;"/>
<stop offset="0.832031" style="stop-color:rgb(89.11438%,76.933289%,42.372131%);stop-opacity:1;"/>
<stop offset="0.835937" style="stop-color:rgb(89.369202%,77.171326%,42.198181%);stop-opacity:1;"/>
<stop offset="0.839844" style="stop-color:rgb(89.624023%,77.409363%,42.022705%);stop-opacity:1;"/>
<stop offset="0.84375" style="stop-color:rgb(89.878845%,77.6474%,41.848755%);stop-opacity:1;"/>
<stop offset="0.847656" style="stop-color:rgb(90.132141%,77.883911%,41.673279%);stop-opacity:1;"/>
<stop offset="0.851562" style="stop-color:rgb(90.386963%,78.121948%,41.499329%);stop-opacity:1;"/>
<stop offset="0.855469" style="stop-color:rgb(90.641785%,78.359985%,41.323853%);stop-opacity:1;"/>
<stop offset="0.859375" style="stop-color:rgb(90.896606%,78.598022%,41.149902%);stop-opacity:1;"/>
<stop offset="0.863281" style="stop-color:rgb(91.151428%,78.83606%,40.974426%);stop-opacity:1;"/>
<stop offset="0.867187" style="stop-color:rgb(91.40625%,79.074097%,40.800476%);stop-opacity:1;"/>
<stop offset="0.871094" style="stop-color:rgb(91.659546%,79.310608%,40.625%);stop-opacity:1;"/>
<stop offset="0.875" style="stop-color:rgb(91.914368%,79.548645%,40.449524%);stop-opacity:1;"/>
<stop offset="0.878906" style="stop-color:rgb(92.169189%,79.786682%,40.274048%);stop-opacity:1;"/>
<stop offset="0.882812" style="stop-color:rgb(92.424011%,80.024719%,40.100098%);stop-opacity:1;"/>
<stop offset="0.886719" style="stop-color:rgb(92.678833%,80.26123%,39.924622%);stop-opacity:1;"/>
<stop offset="0.890625" style="stop-color:rgb(92.933655%,80.499268%,39.750671%);stop-opacity:1;"/>
<stop offset="0.894531" style="stop-color:rgb(93.186951%,80.737305%,39.575195%);stop-opacity:1;"/>
<stop offset="0.898437" style="stop-color:rgb(93.441772%,80.975342%,39.401245%);stop-opacity:1;"/>
<stop offset="0.902344" style="stop-color:rgb(93.696594%,81.213379%,39.225769%);stop-opacity:1;"/>
<stop offset="0.90625" style="stop-color:rgb(93.951416%,81.451416%,39.051819%);stop-opacity:1;"/>
<stop offset="0.910156" style="stop-color:rgb(94.204712%,81.687927%,38.876343%);stop-opacity:1;"/>
<stop offset="0.914062" style="stop-color:rgb(94.459534%,81.925964%,38.702393%);stop-opacity:1;"/>
<stop offset="0.917969" style="stop-color:rgb(94.714355%,82.164001%,38.526917%);stop-opacity:1;"/>
<stop offset="0.921875" style="stop-color:rgb(94.969177%,82.402039%,38.352966%);stop-opacity:1;"/>
<stop offset="0.925781" style="stop-color:rgb(95.223999%,82.63855%,38.17749%);stop-opacity:1;"/>
<stop offset="0.929687" style="stop-color:rgb(95.478821%,82.876587%,38.00354%);stop-opacity:1;"/>
<stop offset="0.933594" style="stop-color:rgb(95.732117%,83.114624%,37.828064%);stop-opacity:1;"/>
<stop offset="0.9375" style="stop-color:rgb(95.986938%,83.352661%,37.654114%);stop-opacity:1;"/>
<stop offset="0.941406" style="stop-color:rgb(96.24176%,83.589172%,37.478638%);stop-opacity:1;"/>
<stop offset="0.945312" style="stop-color:rgb(96.496582%,83.827209%,37.304688%);stop-opacity:1;"/>
<stop offset="0.949219" style="stop-color:rgb(96.751404%,84.065247%,37.129211%);stop-opacity:1;"/>
<stop offset="0.953125" style="stop-color:rgb(97.006226%,84.303284%,36.955261%);stop-opacity:1;"/>
<stop offset="0.957031" style="stop-color:rgb(97.259521%,84.541321%,36.779785%);stop-opacity:1;"/>
<stop offset="0.960937" style="stop-color:rgb(97.514343%,84.779358%,36.605835%);stop-opacity:1;"/>
<stop offset="0.964844" style="stop-color:rgb(97.769165%,85.015869%,36.430359%);stop-opacity:1;"/>
<stop offset="0.96875" style="stop-color:rgb(98.023987%,85.253906%,36.256409%);stop-opacity:1;"/>
<stop offset="0.972656" style="stop-color:rgb(98.277283%,85.491943%,36.080933%);stop-opacity:1;"/>
<stop offset="0.976562" style="stop-color:rgb(98.532104%,85.72998%,35.905457%);stop-opacity:1;"/>
<stop offset="0.980469" style="stop-color:rgb(98.786926%,85.966492%,35.72998%);stop-opacity:1;"/>
<stop offset="0.984375" style="stop-color:rgb(99.041748%,86.204529%,35.55603%);stop-opacity:1;"/>
<stop offset="0.988281" style="stop-color:rgb(99.29657%,86.442566%,35.380554%);stop-opacity:1;"/>
<stop offset="0.992187" style="stop-color:rgb(99.551392%,86.680603%,35.206604%);stop-opacity:1;"/>
<stop offset="0.996094" style="stop-color:rgb(99.775696%,86.889648%,35.05249%);stop-opacity:1;"/>
<stop offset="1" style="stop-color:rgb(100%,87.098694%,34.899902%);stop-opacity:1;"/>
</linearGradient>
<clipPath id="clip3">
  <path d="M 119 105 L 647 105 L 647 507.949219 L 119 507.949219 Z M 119 105 "/>
</clipPath>
<clipPath id="clip4">
  <path d="M 119.628906 296 L 440 296 L 440 507.949219 L 119.628906 507.949219 Z M 119.628906 296 "/>
</clipPath>
</defs>
<g id="surface1">
<g clip-path="url(#clip1)" clip-rule="nonzero">
<g clip-path="url(#clip2)" clip-rule="nonzero">
<path style=" stroke:none;fill-rule:nonzero;fill:url(#linear0);" d="M 62.210938 48.042969 L 62.210938 564.042969 L 723.75 564.042969 L 723.75 48.042969 Z M 62.210938 48.042969 "/>
</g>
</g>
<g clip-path="url(#clip3)" clip-rule="nonzero">
<path style=" stroke:none;fill-rule:nonzero;fill:rgb(96.469116%,52.159119%,7.839966%);fill-opacity:1;" d="M 120.007812 307.339844 C 120.691406 300.039062 125.523438 296.488281 134.777344 296.488281 C 138.9375 296.488281 143.15625 297.160156 147.480469 297.914062 C 166.777344 300.976562 186.28125 305.296875 206.234375 309.824219 C 219.0625 312.488281 232.015625 315.738281 244.542969 318.886719 C 254.945312 321.5 265.699219 324.199219 276.484375 326.59375 C 278.917969 327.179688 281.679688 327.699219 284.605469 328.246094 C 291.726562 329.578125 299.796875 331.089844 306.140625 334.125 C 306.179688 334.148438 306.226562 334.15625 306.277344 334.15625 C 306.316406 334.15625 306.355469 334.148438 306.390625 334.132812 C 306.460938 334.105469 306.507812 334.046875 306.542969 333.984375 C 306.453125 333.9375 306.367188 333.882812 306.277344 333.84375 C 308.253906 328.664062 310.5 323.789062 312.566406 319.65625 C 321.996094 301.535156 335.785156 288.492188 352.46875 276.898438 C 364.617188 268.808594 377.328125 259.328125 390.761719 252.429688 C 390.855469 252.472656 390.949219 252.515625 391.042969 252.554688 C 391.058594 252.515625 391.074219 252.472656 391.074219 252.421875 C 391.074219 252.304688 391.011719 252.199219 390.898438 252.144531 C 384.878906 249.171875 380.855469 244.324219 379.261719 238.132812 C 377.882812 232.621094 377.800781 224.875 380.707031 220.03125 C 384.480469 214.757812 388.238281 212.863281 392.722656 211.640625 C 392.871094 211.597656 392.96875 211.460938 392.957031 211.308594 C 392.761719 208.910156 392.609375 206.40625 392.5 203.667969 C 392.496094 203.582031 392.460938 203.5 392.394531 203.445312 C 391.351562 202.515625 391.195312 201.28125 391.9375 199.617188 C 391.949219 199.558594 392.039062 199.484375 392.175781 199.417969 C 392.285156 199.363281 392.355469 199.25 392.355469 199.128906 C 392.324219 197.894531 392.300781 196.714844 392.277344 195.585938 C 392.238281 193.773438 392.203125 192.105469 392.152344 190.636719 C 392.152344 190.550781 392.109375 190.464844 392.042969 190.40625 C 391.984375 190.359375 391.910156 190.332031 391.835938 190.332031 C 391.824219 190.332031 391.703125 190.339844 391.65625 190.339844 C 391.398438 190.339844 391.179688 190.230469 390.625 189.5625 C 390.160156 189.101562 389.902344 187.59375 389.988281 186.925781 C 390.082031 186.179688 390.601562 185.542969 391.515625 185.042969 C 391.632812 184.980469 391.695312 184.855469 391.679688 184.726562 C 391.417969 182.550781 391.109375 180.480469 390.839844 178.742188 C 390.832031 178.691406 390.8125 178.644531 390.785156 178.601562 C 376.214844 158.882812 369.414062 137.449219 373.503906 132.839844 C 379.605469 125.976562 385.855469 124.570312 393.363281 124.570312 C 395.039062 124.570312 396.707031 124.636719 398.46875 124.699219 C 400.238281 124.769531 402.070312 124.84375 403.917969 124.84375 C 413.160156 124.84375 420.398438 119.324219 427.40625 113.988281 C 428.1875 113.394531 428.964844 112.800781 429.742188 112.21875 C 435.765625 107.710938 441.070312 105.699219 446.957031 105.699219 C 450.410156 105.699219 454.179688 106.421875 458.492188 107.917969 C 463.972656 109.441406 473.476562 114.265625 477.207031 121.328125 C 477.261719 121.425781 477.367188 121.492188 477.480469 121.496094 C 483.359375 121.558594 490.132812 123.488281 497.617188 127.226562 C 509.726562 133.050781 517.109375 143.09375 520.175781 157.925781 C 520.621094 160.261719 520.847656 162.632812 520.855469 164.976562 C 520.855469 165.074219 520.902344 165.164062 520.976562 165.222656 C 521.027344 165.265625 521.09375 165.289062 521.164062 165.289062 C 521.164062 165.183594 521.171875 165.082031 521.171875 164.976562 C 528.371094 163.371094 535.816406 162.5 543.511719 162.472656 C 579.128906 162.359375 662.390625 177.121094 644.136719 229.792969 C 638.769531 245.285156 612.675781 260.484375 580.726562 271.402344 C 622.15625 307.292969 666.519531 379.527344 633.015625 431.160156 C 600.601562 481.296875 524.382812 497.191406 466.871094 487.789062 C 458.46875 486.644531 448.957031 483.019531 439.757812 477.761719 C 439.636719 477.699219 439.519531 477.625 439.398438 477.558594 C 406.621094 489.445312 359.355469 504.242188 341.015625 507.386719 C 339.789062 507.597656 338.273438 507.703125 336.523438 507.703125 C 336.519531 507.703125 336.523438 507.703125 336.523438 507.703125 C 297.976562 507.703125 157.328125 459.789062 148.257812 439.597656 C 138.765625 418.457031 118.691406 320.007812 120.007812 307.339844 "/>
</g>
<path style=" stroke:none;fill-rule:nonzero;fill:rgb(100%,100%,100%);fill-opacity:1;" d="M 390.761719 252.429688 C 385.164062 249.664062 380.710938 245.042969 378.957031 238.214844 C 377.503906 232.417969 377.546875 224.683594 380.453125 219.851562 C 384.101562 214.75 387.75 212.671875 392.640625 211.335938 C 392.8125 213.398438 393.027344 215.5 393.304688 217.621094 C 393.265625 217.632812 393.226562 217.640625 393.191406 217.660156 C 388.691406 220.3125 384.90625 224.386719 387.675781 236.136719 C 390.617188 248.632812 398.808594 249.988281 406.421875 250.050781 C 408.304688 251.957031 410.433594 253.644531 412.847656 255.046875 C 405.554688 256.367188 397.359375 255.6875 390.761719 252.429688 "/>
<path style=" stroke:none;fill-rule:nonzero;fill:rgb(100%,100%,100%);fill-opacity:1;" d="M 388.703125 235.890625 C 386.148438 225.050781 389.425781 221.1875 393.457031 218.734375 C 395.003906 229.730469 398.273438 241.042969 405.410156 248.976562 C 396.890625 248.710938 391.121094 246.160156 388.703125 235.890625 "/>
<path style=" stroke:none;fill-rule:nonzero;fill:rgb(100%,100%,100%);fill-opacity:1;" d="M 525.144531 228.804688 C 525.175781 229.066406 525.40625 229.261719 525.660156 229.261719 C 525.6875 229.261719 525.710938 229.261719 525.730469 229.257812 C 526.019531 229.21875 526.222656 228.957031 526.1875 228.667969 C 526.167969 228.511719 525.648438 224.882812 520.566406 219.847656 C 522.382812 218.035156 529.507812 210.410156 526.101562 205.371094 C 522.527344 200.085938 516.398438 198.367188 516.140625 198.296875 C 515.859375 198.21875 515.570312 198.386719 515.492188 198.667969 C 515.417969 198.949219 515.582031 199.238281 515.859375 199.3125 C 515.921875 199.328125 521.878906 201.007812 525.230469 205.960938 C 528.535156 210.855469 519.542969 219.378906 519.453125 219.464844 C 519.34375 219.5625 519.289062 219.699219 519.285156 219.84375 C 519.285156 219.984375 519.34375 220.125 519.449219 220.226562 C 524.589844 225.167969 525.140625 228.773438 525.144531 228.804688 Z M 511.023438 214.785156 C 510.859375 214.675781 494.433594 203.964844 482.773438 215.550781 C 476.738281 221.554688 476.222656 232.355469 481.53125 241.824219 C 485.390625 248.707031 492.671875 255.207031 502.449219 255.207031 C 504.230469 255.207031 506.097656 254.992188 508.042969 254.523438 C 508.324219 254.453125 508.5 254.167969 508.429688 253.882812 C 508.363281 253.601562 508.078125 253.425781 507.792969 253.496094 C 495.773438 256.410156 486.816406 249.109375 482.449219 241.308594 C 477.371094 232.253906 477.8125 221.964844 483.515625 216.296875 C 494.5625 205.320312 510.277344 215.554688 510.4375 215.664062 C 510.679688 215.824219 511.007812 215.757812 511.167969 215.515625 C 511.332031 215.273438 511.265625 214.949219 511.023438 214.785156 Z M 523.863281 245.078125 C 519.375 253.308594 509.472656 258.734375 500.203125 259.03125 C 495.480469 259.183594 491.019531 259.191406 486.839844 257.789062 C 486.574219 257.871094 486.316406 257.964844 486.046875 258.042969 C 484.679688 258.453125 483.265625 258.871094 481.820312 259.292969 C 479.238281 260.054688 476.535156 260.851562 473.785156 261.703125 C 470.523438 262.710938 467.195312 263.800781 463.902344 265 C 455.160156 268.171875 446.675781 272.128906 440.515625 277.515625 C 439.28125 278.503906 438.234375 279.667969 437.308594 280.6875 C 435.871094 282.277344 434.589844 283.695312 433.171875 283.695312 C 432.8125 283.695312 432.441406 283.605469 432.058594 283.402344 C 430.894531 282.777344 430.914062 280.890625 430.9375 278.039062 C 430.972656 273.816406 431.027344 268.039062 427.125 264.027344 C 426.921875 263.816406 426.925781 263.484375 427.136719 263.28125 C 427.347656 263.082031 427.679688 263.085938 427.882812 263.296875 C 432.085938 267.613281 432.027344 273.890625 431.992188 278.046875 C 431.976562 280.066406 431.957031 282.152344 432.554688 282.472656 C 433.660156 283.0625 434.730469 281.96875 436.527344 279.984375 C 437.476562 278.929688 438.554688 277.738281 439.839844 276.707031 C 444.027344 273.050781 449.25 270.054688 454.882812 267.507812 C 463.527344 263.59375 473.136719 260.753906 481.519531 258.285156 C 482.792969 257.90625 484.039062 257.539062 485.257812 257.179688 C 480.914062 255.289062 476.886719 251.632812 473.207031 244.6875 C 473.183594 244.636719 473.160156 244.59375 473.132812 244.542969 C 472.792969 243.894531 472.449219 243.234375 472.125 242.574219 C 469.839844 237.949219 468.109375 233.058594 469.269531 227.816406 C 470.574219 221.945312 473.808594 216.585938 478.941406 213.488281 C 484.082031 210.382812 487.890625 207.148438 500.316406 209.175781 C 505.238281 209.976562 510.515625 212.191406 515.023438 215.527344 C 516.328125 214.199219 516.914062 212.457031 516.269531 210.183594 C 515.417969 207.640625 511.707031 205.882812 507.496094 204.667969 C 510.714844 202.714844 513.980469 199.179688 516.25 195.214844 C 526.65625 199.007812 541.085938 206.71875 538.492188 219.84375 C 537.421875 225.253906 531.152344 229.578125 526.050781 232.269531 C 526.058594 232.316406 526.070312 232.367188 526.074219 232.417969 C 526.738281 236.566406 526.070312 240.429688 524.476562 243.855469 C 525.609375 243.625 526.75 243.417969 527.902344 243.246094 C 563.554688 237.859375 585.378906 228.660156 591.015625 216.65625 C 593.515625 211.339844 592.832031 205.425781 588.996094 199.078125 C 576.351562 178.179688 536.453125 181.746094 526.601562 187.605469 C 526.351562 187.757812 526.027344 187.675781 525.875 187.425781 C 525.726562 187.175781 525.808594 186.847656 526.0625 186.699219 C 536.449219 180.523438 576.691406 176.703125 589.898438 198.53125 C 593.933594 205.199219 594.628906 211.445312 591.976562 217.101562 C 586.179688 229.441406 564.078125 238.839844 528.058594 244.285156 C 526.640625 244.5 525.246094 244.777344 523.863281 245.078125 "/>
<path style=" stroke:none;fill-rule:nonzero;fill:rgb(100%,100%,100%);fill-opacity:1;" d="M 368.804688 468.789062 C 371.839844 470.304688 375.164062 466.203125 375.902344 463.699219 C 383.578125 466.464844 393.289062 470.675781 394.238281 471.753906 C 393.660156 472.894531 385.261719 474.863281 383.121094 474.902344 C 381 474.902344 359.730469 466.785156 358.976562 465.132812 C 358.59375 463.914062 363.203125 462.425781 365.171875 461.789062 C 365.839844 461.570312 366.429688 461.378906 366.863281 461.214844 C 366.863281 461.214844 366.890625 461.210938 366.933594 461.203125 C 366.84375 463.734375 366.1875 467.628906 368.804688 468.789062 "/>
<path style=" stroke:none;fill-rule:nonzero;fill:rgb(100%,100%,100%);fill-opacity:1;" d="M 221.277344 385.335938 C 221.773438 379.566406 228.21875 379.464844 232.859375 378.566406 C 232.082031 381.757812 232.078125 385.316406 228.773438 387.113281 C 228.542969 387.242188 228.304688 387.351562 228.058594 387.46875 C 226.988281 386.96875 225.851562 386.582031 224.667969 386.308594 C 225.164062 385.984375 225.640625 385.648438 226.078125 385.332031 C 228.28125 383.738281 230.34375 381.996094 231.835938 379.703125 C 231.964844 379.507812 231.671875 379.28125 231.515625 379.457031 C 229.570312 381.589844 227.457031 383.613281 225.007812 385.164062 C 224.480469 385.496094 223.9375 385.792969 223.390625 386.074219 C 222.679688 385.960938 221.953125 385.875 221.207031 385.851562 C 221.179688 385.761719 221.144531 385.671875 221.113281 385.574219 C 221.195312 385.53125 221.265625 385.460938 221.277344 385.335938 "/>
<g clip-path="url(#clip4)" clip-rule="nonzero">
<path style=" stroke:none;fill-rule:nonzero;fill:rgb(100%,100%,100%);fill-opacity:1;" d="M 215.027344 419.746094 C 226.90625 423.898438 241.164062 417.96875 239.378906 403.726562 C 238.601562 397.101562 234.730469 391.019531 228.976562 387.945312 C 232.808594 385.65625 232.679688 382.105469 233.851562 378.128906 C 233.945312 377.804688 233.636719 377.542969 233.328125 377.609375 C 228.738281 378.617188 221.257812 378.757812 220.710938 384.535156 C 219.535156 381.769531 217.539062 378.933594 215.78125 378.808594 C 211.621094 378.613281 215.976562 381.972656 216.769531 383.359375 C 217.101562 383.941406 217.464844 384.773438 217.71875 385.636719 C 212.847656 385.625 208.0625 387.234375 204.929688 390.675781 C 196.617188 400.164062 204.335938 416.1875 215.027344 419.746094 Z M 342.488281 487.769531 C 343.09375 488.625 344.792969 489.003906 347.300781 489.003906 C 363.257812 489.003906 411.835938 473.851562 418.117188 471.867188 C 418.398438 471.78125 418.550781 471.488281 418.464844 471.210938 C 418.378906 470.929688 418.078125 470.78125 417.800781 470.867188 C 389.539062 479.777344 346.390625 491.472656 343.347656 487.167969 C 340.164062 482.664062 333.46875 430.183594 329.820312 398.335938 L 369.023438 412.371094 C 369.085938 412.390625 369.144531 412.398438 369.207031 412.398438 C 369.417969 412.398438 369.621094 412.265625 369.699219 412.054688 C 369.796875 411.777344 369.660156 411.476562 369.382812 411.378906 L 329.6875 397.171875 C 329.492188 395.472656 329.308594 393.839844 329.132812 392.277344 C 329.101562 391.988281 328.859375 391.78125 328.550781 391.816406 C 328.261719 391.84375 328.054688 392.109375 328.085938 392.394531 C 328.496094 396.03125 338.085938 481.546875 342.488281 487.769531 Z M 119.691406 307.3125 C 121.019531 293.1875 137.367188 295.835938 147.53125 297.601562 C 166.972656 300.6875 186.855469 305.101562 206.296875 309.515625 C 229.71875 314.375 252.695312 320.992188 276.558594 326.289062 C 284.902344 328.292969 297.285156 329.539062 306.277344 333.84375 C 309.179688 335.234375 311.730469 336.9375 313.675781 339.089844 C 319.421875 344.390625 322.066406 351.007812 323.398438 358.953125 C 323.621094 360.398438 325.046875 369.378906 327.046875 382.09375 C 343.226562 387.953125 376.601562 399.867188 408.285156 412.914062 C 406.589844 414.226562 405.074219 415.664062 403.800781 417.25 C 400.597656 416.574219 397.75 416.386719 395.546875 419.320312 C 392.585938 418.226562 389.707031 417.136719 386.835938 416.320312 C 380.621094 414.457031 368.496094 411.351562 365.078125 419.734375 L 365.414062 420.304688 C 361.222656 420.394531 357.359375 421.128906 353.886719 425.636719 C 351.398438 429.050781 349.847656 433.707031 350.46875 437.742188 C 350.703125 440.308594 352.519531 442.878906 353.273438 445.3125 C 352.132812 447.160156 350.949219 449.046875 349.847656 451.09375 C 348.605469 453.269531 344.871094 457.925781 347.667969 459.789062 C 349.535156 461.339844 353.886719 460.410156 355.753906 459.476562 C 359.484375 457.617188 360.105469 454.199219 362.902344 452.027344 C 363.320312 451.785156 364.5625 451.476562 366.273438 451.132812 C 366.175781 451.515625 366.085938 451.914062 366.011719 452.335938 C 365.722656 454.925781 366.757812 457.777344 366.914062 460.15625 C 366.75 460.167969 366.601562 460.1875 366.488281 460.234375 C 366.066406 460.394531 365.496094 460.578125 364.84375 460.789062 C 361.472656 461.878906 357.277344 463.230469 357.972656 465.457031 C 358.785156 468.042969 381.636719 475.957031 383.121094 475.957031 L 383.136719 475.957031 C 384.523438 475.933594 393.59375 474.269531 395.046875 472.421875 C 395.328125 472.058594 395.332031 471.730469 395.285156 471.519531 C 394.960938 470.058594 384.398438 465.601562 376.191406 462.722656 C 377.042969 459.429688 376.226562 457.121094 379.6875 454.820312 C 385.589844 451.097656 392.429688 454.199219 398.335938 456.0625 C 399.027344 456.257812 399.691406 456.464844 400.375 456.667969 C 402.988281 460.890625 406.261719 464.40625 411.109375 465.316406 C 414.339844 465.960938 418.75 466.210938 422.898438 465.941406 C 428.144531 470.40625 433.886719 474.414062 439.753906 477.765625 C 405.019531 490.375 358.667969 504.679688 341.066406 507.699219 C 312.789062 512.558594 157.6875 461.378906 147.96875 439.726562 C 138.25 418.078125 118.367188 320.113281 119.691406 307.3125 "/>
</g>
<path style=" stroke:none;fill-rule:nonzero;fill:rgb(100%,100%,100%);fill-opacity:1;" d="M 428.578125 406.632812 C 428.394531 406.632812 428.210938 406.53125 428.117188 406.355469 C 427.976562 406.101562 428.070312 405.78125 428.332031 405.640625 C 438.515625 400.160156 449.4375 399.488281 460 398.835938 C 469.070312 398.277344 478.445312 397.703125 487.152344 394.019531 C 501.253906 388.3125 511.972656 376.488281 515.820312 362.40625 C 519.246094 349.863281 516.71875 337.1875 508.695312 326.707031 C 508.519531 326.476562 508.558594 326.148438 508.789062 325.96875 C 509.027344 325.792969 509.355469 325.835938 509.53125 326.070312 C 517.757812 336.8125 520.355469 349.820312 516.839844 362.679688 C 512.90625 377.082031 501.957031 389.164062 487.554688 394.996094 C 478.6875 398.742188 469.222656 399.328125 460.066406 399.890625 C 449.617188 400.53125 438.8125 401.203125 428.828125 406.570312 C 428.75 406.609375 428.664062 406.632812 428.578125 406.632812 "/>
<path style=" stroke:none;fill-rule:nonzero;fill:rgb(100%,100%,100%);fill-opacity:1;" d="M 381.863281 310.671875 C 389.125 319.683594 398.9375 341.847656 397.171875 354.753906 C 392.964844 375.761719 386.527344 388.5625 378.027344 392.808594 C 377.953125 392.84375 377.871094 392.863281 377.792969 392.863281 C 377.597656 392.863281 377.414062 392.757812 377.316406 392.574219 C 377.191406 392.3125 377.296875 391.996094 377.558594 391.863281 C 385.746094 387.777344 392 375.21875 396.132812 354.582031 C 397.855469 341.980469 388.1875 320.207031 381.042969 311.335938 C 379.054688 308.867188 377.300781 307.457031 376.105469 307.359375 C 375.816406 307.339844 375.601562 307.085938 375.625 306.792969 C 375.644531 306.503906 375.898438 306.296875 376.191406 306.3125 C 377.71875 306.429688 379.628906 307.898438 381.863281 310.671875 "/>
<path style=" stroke:none;fill-rule:nonzero;fill:rgb(100%,100%,100%);fill-opacity:1;" d="M 410.582031 427.402344 C 410.582031 437.828125 412.132812 443.964844 420.917969 450.675781 C 421.148438 450.859375 421.195312 451.1875 421.015625 451.417969 C 420.914062 451.554688 420.753906 451.625 420.597656 451.625 C 420.484375 451.625 420.375 451.589844 420.277344 451.515625 C 411.136719 444.53125 409.527344 438.175781 409.527344 427.402344 C 409.527344 427.113281 409.765625 426.878906 410.054688 426.878906 C 410.347656 426.878906 410.582031 427.113281 410.582031 427.402344 "/>
<path style=" stroke:none;fill-rule:nonzero;fill:rgb(100%,100%,100%);fill-opacity:1;" d="M 460.21875 289.570312 C 461.84375 295.609375 467.21875 301.886719 471.613281 307.011719 C 473.160156 308.808594 474.617188 310.511719 475.730469 311.996094 C 480.617188 318.503906 482.265625 323.445312 482.261719 331.53125 C 482.632812 339.226562 480.53125 344.445312 476.480469 348.933594 C 476.789062 350.285156 476.101562 351.898438 474.417969 352.070312 C 473.871094 354.4375 471.609375 357.988281 470.910156 357.683594 C 470.519531 357.519531 470.550781 356.597656 470.761719 355.859375 C 470.066406 356.03125 469.117188 356.039062 468.398438 355.730469 C 468.277344 355.769531 468.160156 355.800781 468.035156 355.800781 C 467.707031 355.800781 467.382812 355.644531 467.175781 355.355469 C 466.835938 354.878906 466.953125 354.222656 467.425781 353.886719 C 467.527344 353.8125 467.628906 353.738281 467.730469 353.664062 C 467.730469 353.660156 467.730469 353.65625 467.730469 353.652344 C 467.210938 353.957031 466.445312 354.050781 466.195312 353.632812 C 465.808594 352.996094 468.941406 350.546875 471.796875 350.289062 C 471.429688 348.847656 472.199219 347.070312 474.128906 347.070312 C 474.503906 347.070312 474.832031 347.144531 475.117188 347.261719 C 478.660156 343.183594 480.484375 338.441406 480.160156 331.582031 C 480.160156 323.875 478.671875 319.421875 474.042969 313.253906 C 472.96875 311.828125 471.535156 310.152344 470.015625 308.382812 C 465.527344 303.152344 459.648438 296.285156 458.027344 289.484375 C 451.175781 289.1875 445.003906 288.613281 439.878906 287.730469 C 432.296875 286.433594 426.515625 284.59375 422.105469 282.5625 C 418.367188 290.265625 420.789062 299.921875 423.316406 309.972656 C 426.070312 320.929688 428.898438 332.210938 424.425781 342.1875 C 425.453125 343.570312 424.917969 346.054688 422.800781 346.265625 C 422.253906 348.632812 419.992188 352.183594 419.292969 351.882812 C 418.902344 351.714844 418.933594 350.792969 419.144531 350.0625 C 418.433594 350.230469 417.460938 350.238281 416.730469 349.914062 C 416.230469 349.6875 416.078125 348.660156 416.113281 347.851562 C 415.59375 348.15625 414.828125 348.25 414.574219 347.828125 C 414.191406 347.191406 417.324219 344.746094 420.175781 344.488281 C 419.8125 343.046875 420.582031 341.269531 422.511719 341.269531 C 422.511719 341.269531 422.511719 341.269531 422.515625 341.269531 C 426.648438 331.902344 423.925781 321.042969 421.273438 310.488281 C 418.730469 300.378906 416.132812 290.027344 420.199219 281.625 C 408.980469 275.796875 407.996094 268.867188 407.953125 268.457031 C 407.917969 268.171875 408.125 267.910156 408.414062 267.878906 C 408.699219 267.84375 408.964844 268.050781 408.996094 268.339844 C 409.007812 268.433594 409.996094 275.015625 420.710938 280.644531 C 422.335938 277.738281 424.824219 275.078125 428.464844 272.777344 C 428.960938 272.464844 429.613281 272.613281 429.925781 273.101562 C 430.234375 273.59375 430.089844 274.246094 429.59375 274.554688 C 426.332031 276.617188 424.089844 278.984375 422.609375 281.589844 C 426.929688 283.59375 432.597656 285.417969 440.054688 286.695312 C 445.085938 287.554688 451.121094 288.128906 457.816406 288.421875 C 457.148438 284.5 458 280.621094 461.492188 277.132812 C 461.902344 276.722656 462.570312 276.722656 462.984375 277.132812 C 463.394531 277.542969 463.394531 278.210938 462.984375 278.621094 C 459.976562 281.625 459.292969 285.011719 459.972656 288.515625 C 493.679688 289.699219 543.050781 284.203125 570.980469 273.175781 C 571.246094 273.070312 571.554688 273.199219 571.660156 273.472656 C 571.769531 273.742188 571.632812 274.046875 571.363281 274.15625 C 545.824219 284.238281 502.414062 289.722656 469.296875 289.722656 C 466.167969 289.722656 463.140625 289.667969 460.21875 289.570312 "/>
<path style=" stroke:none;fill-rule:nonzero;fill:rgb(96.469116%,52.159119%,42.749023%);fill-opacity:1;" d="M 451.035156 268.367188 C 451.011719 268.371094 450.988281 268.375 450.96875 268.378906 C 450.992188 268.375 451.015625 268.371094 451.042969 268.363281 C 451.035156 268.367188 451.035156 268.367188 451.035156 268.367188 "/>
<path style=" stroke:none;fill-rule:nonzero;fill:rgb(96.469116%,52.159119%,42.749023%);fill-opacity:1;" d="M 473.132812 244.546875 C 473.160156 244.59375 473.183594 244.640625 473.207031 244.6875 C 476.886719 251.636719 480.914062 255.289062 485.257812 257.179688 C 484.039062 257.539062 482.796875 257.910156 481.519531 258.285156 C 473.136719 260.753906 463.527344 263.59375 454.882812 267.507812 C 453.566406 267.828125 452.285156 268.113281 451.042969 268.363281 C 454.035156 266.167969 456.90625 263.730469 459.632812 261.046875 C 464.710938 256.050781 469.007812 250.339844 473.132812 244.546875 "/>
<path style=" stroke:none;fill-rule:nonzero;fill:rgb(96.469116%,52.159119%,42.749023%);fill-opacity:1;" d="M 443.628906 269.445312 C 444.710938 269.367188 445.859375 269.238281 447.070312 269.0625 C 445.863281 269.238281 444.710938 269.367188 443.628906 269.445312 "/>
<path style=" stroke:none;fill-rule:nonzero;fill:rgb(96.469116%,52.159119%,42.749023%);fill-opacity:1;" d="M 463.902344 265 C 467.195312 263.800781 470.527344 262.710938 473.785156 261.703125 C 470.503906 262.875 467.171875 263.992188 463.902344 265 "/>
<path style=" stroke:none;fill-rule:nonzero;fill:rgb(96.469116%,52.159119%,42.749023%);fill-opacity:1;" d="M 401.449219 199.636719 C 397.589844 198.863281 393.351562 198.5 392.039062 199.136719 C 391.960938 195.914062 391.925781 193.03125 391.835938 190.648438 C 392.039062 190.625 392.269531 190.574219 392.578125 190.515625 C 393.535156 190.320312 394.480469 190.238281 395.414062 190.230469 C 397.445312 192.980469 399.3125 196.84375 401.449219 199.636719 "/>
<path style=" stroke:none;fill-rule:nonzero;fill:rgb(96.469116%,52.159119%,42.749023%);fill-opacity:1;" d="M 413.824219 224.421875 C 414.601562 224.421875 415.375 224.390625 416.105469 224.367188 C 416.710938 224.34375 417.273438 224.320312 417.769531 224.320312 C 418.351562 224.320312 418.824219 223.851562 418.824219 223.269531 C 418.824219 222.6875 418.351562 222.214844 417.769531 222.214844 C 417.25 222.214844 416.660156 222.238281 416.027344 222.261719 C 413.558594 222.351562 410.179688 222.476562 409.035156 221.203125 C 408.667969 220.796875 408.542969 220.214844 408.660156 219.429688 C 408.804688 218.414062 409.910156 217.175781 410.980469 215.980469 C 412.121094 214.707031 413.296875 213.398438 413.707031 211.960938 C 414.488281 209.230469 414.488281 205.417969 413.707031 202.683594 C 413.546875 202.125 412.96875 201.804688 412.402344 201.960938 C 411.84375 202.121094 411.523438 202.707031 411.679688 203.265625 C 412.351562 205.617188 412.351562 209.03125 411.679688 211.386719 C 411.402344 212.351562 410.390625 213.484375 409.414062 214.578125 C 408.132812 216.003906 406.804688 217.484375 406.570312 219.132812 C 406.371094 220.558594 406.671875 221.726562 407.46875 222.609375 C 408.839844 224.136719 411.355469 224.421875 413.824219 224.421875 Z M 408.96875 235.535156 C 410.585938 236.464844 413.929688 237.007812 417.847656 237.007812 C 421.492188 237.007812 425.625 236.539062 429.320312 235.464844 C 434.972656 233.828125 438.976562 231.03125 440.898438 227.382812 C 441.171875 226.867188 440.972656 226.230469 440.457031 225.960938 C 439.9375 225.691406 439.300781 225.890625 439.035156 226.402344 C 436.949219 230.355469 432.28125 232.414062 428.730469 233.441406 C 421.070312 235.667969 412.394531 235.074219 410.019531 233.707031 C 409.511719 233.421875 408.867188 233.597656 408.578125 234.097656 C 408.289062 234.605469 408.460938 235.246094 408.96875 235.535156 Z M 448.925781 198.207031 C 452.207031 197 454.589844 195.777344 454.085938 195.164062 C 453.738281 194.742188 452.273438 194.765625 450.273438 195.074219 C 452.109375 192.972656 453.628906 190.597656 454.515625 188.085938 C 456.097656 187.78125 457.402344 187.660156 458.582031 187.785156 C 460.433594 187.992188 455.132812 181.957031 444.070312 184.859375 C 433.003906 187.757812 430.285156 184.675781 427.019531 183.773438 C 423.753906 182.863281 424.9375 192.105469 424.9375 192.105469 C 425.417969 193.199219 426.476562 193.722656 427.90625 193.878906 C 428.539062 196.097656 430.523438 201.011719 434.675781 202.976562 C 434.683594 202.980469 434.695312 202.984375 434.707031 202.988281 C 436.554688 205.582031 441.4375 204.222656 444.058594 203.378906 C 447.96875 201.875 449.359375 201.441406 448.925781 198.207031 Z M 506.230469 192.273438 C 506.148438 190.035156 502.6875 189.332031 503.183594 187.214844 C 503.535156 185.484375 505.519531 183.945312 507.433594 183.566406 C 509.347656 183.191406 512.859375 185.105469 512.859375 185.105469 C 511.441406 181.160156 508.59375 177.757812 504.476562 180.875 C 501.1875 183.148438 497.226562 187.5625 497.398438 192.03125 C 497.496094 195.953125 506.378906 196.5625 506.230469 192.273438 Z M 407.058594 249 C 406.496094 249 405.949219 248.992188 405.410156 248.976562 C 398.273438 241.042969 395.003906 229.730469 393.457031 218.734375 C 393.546875 218.679688 393.636719 218.621094 393.726562 218.566406 C 393.980469 218.417969 394.0625 218.09375 393.914062 217.847656 C 393.789062 217.628906 393.535156 217.546875 393.304688 217.621094 C 393.027344 215.5 392.8125 213.398438 392.644531 211.335938 C 392.425781 208.695312 392.28125 206.121094 392.1875 203.679688 C 393.546875 204.898438 395.949219 205.328125 397.492188 205.535156 C 400.96875 205.792969 402.148438 205.972656 403.460938 202.980469 C 406.347656 203.242188 408.621094 203.128906 408.578125 202.394531 C 408.570312 202.277344 408.503906 202.15625 408.390625 202.035156 C 409.84375 200.339844 410.476562 196.917969 410.117188 194.03125 C 412.84375 193.042969 412.289062 188.257812 410.539062 185.980469 C 409.027344 184.023438 396.078125 182.191406 391.367188 184.765625 C 391.121094 182.714844 390.828125 180.722656 390.53125 178.792969 C 389.175781 169.984375 387.777344 162.339844 390.597656 155.484375 C 397.496094 162.867188 408.332031 167.914062 418.738281 167.464844 C 424.542969 166.980469 429.867188 166.015625 434.21875 163.117188 C 439.539062 159.734375 442.773438 154.339844 449.210938 153.933594 C 493.230469 151.15625 470.011719 208.050781 480.894531 208.050781 C 491.066406 208.050781 500.605469 184.414062 502.992188 173.4375 C 504.925781 171.410156 507.191406 170.015625 510.878906 171.109375 C 514.46875 172.226562 517.007812 175.722656 518.28125 179.691406 C 518.992188 181.90625 519.3125 184.265625 519.191406 186.445312 C 519 189.304688 517.878906 192.371094 516.25 195.214844 C 513.984375 199.183594 510.714844 202.71875 507.496094 204.667969 C 506.125 205.5 504.761719 206.058594 503.5 206.222656 C 502.675781 206.328125 501.636719 207.40625 500.316406 209.175781 C 487.890625 207.152344 484.085938 210.382812 478.941406 213.488281 C 473.808594 216.585938 470.574219 221.945312 469.269531 227.820312 C 468.109375 233.058594 469.839844 237.953125 472.125 242.578125 C 458.988281 252.945312 441.519531 260.917969 426.402344 259.328125 C 425.984375 259.285156 425.566406 259.242188 425.148438 259.183594 C 420.390625 258.507812 416.328125 257.070312 412.851562 255.046875 C 410.433594 253.644531 408.304688 251.957031 406.425781 250.050781 C 406.636719 250.054688 406.847656 250.054688 407.058594 250.054688 C 407.351562 250.054688 407.585938 249.820312 407.585938 249.527344 C 407.585938 249.234375 407.347656 249 407.058594 249 "/>
<path style=" stroke:none;fill-rule:nonzero;fill:rgb(96.469116%,52.159119%,42.749023%);fill-opacity:1;" d="M 356.542969 443.066406 C 356.613281 443.097656 356.683594 443.109375 356.75 443.109375 C 356.953125 443.109375 357.148438 442.988281 357.234375 442.789062 C 361.246094 433.359375 370.050781 432.5 378.972656 432.964844 C 379.261719 433 379.511719 432.753906 379.523438 432.464844 C 379.542969 432.175781 379.320312 431.929688 379.027344 431.914062 C 369.730469 431.421875 360.53125 432.351562 356.261719 442.375 C 356.152344 442.644531 356.277344 442.957031 356.542969 443.066406 Z M 366.863281 461.214844 C 366.429688 461.378906 365.835938 461.570312 365.171875 461.789062 C 363.203125 462.421875 358.59375 463.914062 358.976562 465.132812 C 359.730469 466.785156 381 474.902344 383.121094 474.902344 C 385.261719 474.863281 393.660156 472.894531 394.238281 471.753906 C 393.289062 470.675781 383.578125 466.464844 375.902344 463.699219 C 375.160156 466.203125 371.839844 470.304688 368.804688 468.789062 C 366.1875 467.628906 366.84375 463.734375 366.933594 461.203125 C 366.890625 461.210938 366.863281 461.214844 366.863281 461.214844 Z M 385.441406 443.34375 C 385.730469 443.398438 386.003906 443.199219 386.050781 442.910156 C 386.097656 442.628906 385.902344 442.355469 385.617188 442.308594 C 380.554688 441.464844 373.324219 441.59375 369.605469 444.742188 C 367.945312 446.144531 367.105469 448.019531 367.105469 450.316406 C 367.105469 450.605469 367.34375 450.839844 367.632812 450.839844 C 367.925781 450.839844 368.160156 450.605469 368.160156 450.316406 C 368.160156 448.339844 368.875 446.742188 370.285156 445.542969 C 373.96875 442.429688 381.542969 442.699219 385.441406 443.34375 Z M 380.386719 423.003906 C 375.898438 421.421875 371.460938 420.828125 367.570312 421.289062 C 367.28125 421.320312 367.078125 421.578125 367.109375 421.871094 C 367.144531 422.15625 367.410156 422.375 367.695312 422.332031 C 371.429688 421.894531 375.699219 422.46875 380.035156 424 C 380.09375 424.019531 380.152344 424.027344 380.207031 424.027344 C 380.425781 424.027344 380.632812 423.890625 380.707031 423.671875 C 380.804688 423.402344 380.660156 423.101562 380.386719 423.003906 Z M 353.273438 445.3125 C 352.519531 442.878906 350.703125 440.308594 350.46875 437.742188 C 349.847656 433.707031 351.398438 429.046875 353.886719 425.632812 C 357.359375 421.128906 361.222656 420.394531 365.414062 420.300781 L 365.078125 419.734375 C 368.496094 411.351562 380.621094 414.457031 386.835938 416.316406 C 389.707031 417.136719 392.585938 418.226562 395.546875 419.320312 C 395.085938 419.9375 394.644531 420.691406 394.242188 421.613281 C 391.082031 428.984375 392.132812 439.515625 395.296875 446.886719 C 396.867188 450.019531 398.4375 453.535156 400.375 456.664062 C 399.695312 456.464844 399.027344 456.253906 398.339844 456.058594 C 392.429688 454.199219 385.59375 451.09375 379.6875 454.820312 C 376.230469 457.117188 377.042969 459.425781 376.191406 462.71875 C 384.398438 465.601562 394.960938 470.054688 395.289062 471.515625 C 395.332031 471.726562 395.332031 472.058594 395.050781 472.417969 C 393.59375 474.265625 384.527344 475.929688 383.136719 475.953125 L 383.121094 475.953125 C 381.640625 475.953125 358.789062 468.039062 357.972656 465.453125 C 357.277344 463.230469 361.472656 461.875 364.847656 460.785156 C 365.496094 460.574219 366.066406 460.390625 366.492188 460.226562 C 366.605469 460.183594 366.75 460.164062 366.914062 460.15625 C 366.757812 457.773438 365.722656 454.921875 366.011719 452.332031 C 366.085938 451.910156 366.175781 451.511719 366.277344 451.128906 C 364.5625 451.472656 363.324219 451.785156 362.902344 452.023438 C 360.105469 454.195312 359.484375 457.613281 355.753906 459.476562 C 353.886719 460.40625 349.539062 461.335938 347.671875 459.785156 C 344.871094 457.921875 348.605469 453.265625 349.847656 451.09375 C 350.949219 449.046875 352.132812 447.160156 353.273438 445.3125 "/>
<path style=" stroke:none;fill-rule:nonzero;fill:rgb(96.469116%,52.159119%,42.749023%);fill-opacity:1;" d="M 328.988281 397.480469 C 329.089844 397.207031 329.390625 397.0625 329.664062 397.164062 L 329.691406 397.171875 L 369.386719 411.378906 C 369.660156 411.472656 369.804688 411.777344 369.703125 412.050781 C 369.625 412.265625 369.425781 412.398438 369.207031 412.398438 C 369.148438 412.398438 369.085938 412.390625 369.027344 412.371094 L 329.820312 398.335938 L 329.308594 398.15625 C 329.035156 398.054688 328.890625 397.753906 328.988281 397.480469 "/>
<path style=" stroke:none;fill-rule:nonzero;fill:rgb(47.839355%,17.248535%,11.369324%);fill-opacity:1;" d="M 390.59375 155.484375 C 387.777344 162.34375 389.175781 169.988281 390.53125 178.792969 C 375.6875 158.707031 369.070312 137.363281 373.269531 132.636719 C 382.765625 121.941406 392.796875 124.527344 403.917969 124.527344 C 414.078125 124.527344 421.816406 117.765625 429.558594 111.964844 C 439.230469 104.71875 447.453125 103.753906 458.578125 107.617188 C 464.683594 109.3125 473.871094 114.335938 477.492188 121.179688 C 484.574219 121.257812 491.835938 123.984375 497.757812 126.941406 C 510.816406 133.222656 517.589844 143.851562 520.488281 157.867188 C 520.945312 160.28125 521.164062 162.652344 521.171875 164.980469 C 521.191406 170.136719 520.140625 175.070312 518.277344 179.691406 C 517.007812 175.722656 514.464844 172.226562 510.878906 171.101562 C 507.191406 170.011719 504.921875 171.40625 502.988281 173.429688 C 500.605469 184.410156 491.066406 208.050781 480.890625 208.050781 C 470.007812 208.050781 493.226562 151.15625 449.210938 153.933594 C 442.773438 154.339844 439.535156 159.730469 434.214844 163.117188 C 429.863281 166.015625 424.542969 166.980469 418.734375 167.464844 C 408.324219 167.914062 397.492188 162.867188 390.59375 155.484375 "/>
<path style=" stroke:none;fill-rule:nonzero;fill:rgb(47.839355%,17.248535%,11.369324%);fill-opacity:1;" d="M 427.019531 183.773438 C 430.285156 184.675781 433.003906 187.757812 444.070312 184.859375 C 455.132812 181.957031 460.433594 187.992188 458.582031 187.785156 C 457.402344 187.660156 456.097656 187.78125 454.519531 188.085938 C 451.972656 188.578125 448.710938 189.53125 444.070312 190.65625 C 438.101562 192.101562 431.675781 194.289062 427.910156 193.878906 C 426.476562 193.722656 425.421875 193.199219 424.9375 192.105469 C 424.9375 192.105469 423.753906 182.863281 427.019531 183.773438 "/>
<path style=" stroke:none;fill-rule:nonzero;fill:rgb(47.839355%,17.248535%,11.369324%);fill-opacity:1;" d="M 450.273438 195.074219 C 452.273438 194.765625 453.738281 194.738281 454.085938 195.164062 C 454.589844 195.777344 452.207031 197 448.925781 198.207031 C 449.359375 201.441406 447.96875 201.875 444.058594 203.378906 C 441.4375 204.226562 436.554688 205.582031 434.710938 202.988281 C 434.363281 202.503906 434.113281 201.894531 434.011719 201.105469 C 433.390625 199.542969 444.246094 196.015625 450.273438 195.074219 "/>
<path style=" stroke:none;fill-rule:nonzero;fill:rgb(47.839355%,17.248535%,11.369324%);fill-opacity:1;" d="M 392.039062 199.136719 C 393.351562 198.5 397.585938 198.867188 401.449219 199.636719 C 404.6875 200.277344 407.652344 201.199219 408.390625 202.035156 C 408.5 202.15625 408.570312 202.277344 408.574219 202.398438 C 408.617188 203.132812 406.347656 203.246094 403.457031 202.984375 C 402.148438 205.972656 400.964844 205.792969 397.488281 205.539062 C 395.949219 205.328125 393.542969 204.898438 392.183594 203.683594 C 391.195312 202.796875 390.753906 201.496094 391.632812 199.550781 C 391.667969 199.382812 391.816406 199.246094 392.039062 199.136719 "/>
<path style=" stroke:none;fill-rule:nonzero;fill:rgb(47.839355%,17.248535%,11.369324%);fill-opacity:1;" d="M 391.367188 184.769531 C 396.078125 182.191406 409.027344 184.023438 410.53125 185.980469 C 412.285156 188.257812 412.84375 193.042969 410.113281 194.03125 C 410.015625 194.066406 409.917969 194.109375 409.808594 194.136719 C 408.210938 194.457031 402.296875 190.160156 395.414062 190.230469 C 394.480469 190.238281 393.535156 190.320312 392.578125 190.515625 C 392.269531 190.574219 392.039062 190.625 391.835938 190.648438 C 391.339844 190.707031 391.046875 190.5625 390.402344 189.789062 C 389.855469 189.246094 389.578125 187.628906 389.675781 186.890625 C 389.796875 185.976562 390.417969 185.285156 391.367188 184.769531 "/>
<path style=" stroke:none;fill-rule:nonzero;fill:rgb(47.839355%,17.248535%,11.369324%);fill-opacity:1;" d="M 369.605469 444.742188 C 373.324219 441.59375 380.554688 441.464844 385.617188 442.308594 C 385.902344 442.355469 386.097656 442.628906 386.050781 442.910156 C 386.003906 443.199219 385.730469 443.398438 385.441406 443.34375 C 381.542969 442.699219 373.96875 442.429688 370.285156 445.542969 C 368.875 446.742188 368.160156 448.339844 368.160156 450.316406 C 368.160156 450.605469 367.925781 450.839844 367.632812 450.839844 C 367.34375 450.839844 367.105469 450.605469 367.105469 450.316406 C 367.105469 448.019531 367.945312 446.144531 369.605469 444.742188 "/>
<path style=" stroke:none;fill-rule:nonzero;fill:rgb(47.839355%,17.248535%,11.369324%);fill-opacity:1;" d="M 356.265625 442.375 C 360.535156 432.351562 369.730469 431.425781 379.03125 431.914062 C 379.320312 431.929688 379.542969 432.175781 379.53125 432.46875 C 379.511719 432.753906 379.261719 433 378.972656 432.964844 C 370.054688 432.5 361.25 433.363281 357.238281 442.792969 C 357.152344 442.988281 356.960938 443.113281 356.753906 443.113281 C 356.683594 443.113281 356.613281 443.097656 356.546875 443.066406 C 356.277344 442.957031 356.152344 442.644531 356.265625 442.375 "/>
<path style=" stroke:none;fill-rule:nonzero;fill:rgb(47.839355%,17.248535%,11.369324%);fill-opacity:1;" d="M 380.707031 423.671875 C 380.632812 423.890625 380.425781 424.027344 380.207031 424.027344 C 380.152344 424.027344 380.09375 424.019531 380.035156 424 C 375.699219 422.46875 371.429688 421.894531 367.695312 422.332031 C 367.410156 422.375 367.144531 422.160156 367.109375 421.871094 C 367.078125 421.578125 367.28125 421.320312 367.570312 421.289062 C 371.460938 420.824219 375.898438 421.421875 380.386719 423.003906 C 380.660156 423.101562 380.804688 423.402344 380.707031 423.671875 "/>
<path style=" stroke:none;fill-rule:nonzero;fill:rgb(89.408875%,28.62854%,28.62854%);fill-opacity:1;" d="M 472.125 242.578125 C 472.449219 243.238281 472.792969 243.894531 473.132812 244.546875 C 469.007812 250.339844 464.707031 256.054688 459.632812 261.046875 C 456.902344 263.730469 454.03125 266.167969 451.03125 268.367188 C 449.683594 268.636719 448.375 268.871094 447.132812 269.054688 C 447.113281 269.058594 447.09375 269.058594 447.070312 269.0625 C 445.859375 269.238281 444.710938 269.367188 443.625 269.445312 C 443.574219 269.449219 443.523438 269.453125 443.46875 269.453125 C 442.953125 269.488281 442.453125 269.511719 441.96875 269.519531 C 441.90625 269.523438 441.839844 269.523438 441.78125 269.523438 C 441.339844 269.53125 440.910156 269.523438 440.5 269.507812 C 440.449219 269.507812 440.402344 269.507812 440.351562 269.503906 C 439.925781 269.484375 439.523438 269.449219 439.132812 269.402344 C 439.046875 269.394531 438.960938 269.382812 438.871094 269.371094 C 438.488281 269.320312 438.117188 269.261719 437.773438 269.183594 C 437.769531 269.183594 437.765625 269.183594 437.761719 269.179688 C 432.035156 267.902344 428.292969 263.933594 426.402344 259.328125 C 441.519531 260.917969 458.984375 252.945312 472.125 242.578125 "/>
<path style=" stroke:none;fill-rule:nonzero;fill:rgb(89.408875%,28.62854%,28.62854%);fill-opacity:1;" d="M 434.011719 201.105469 C 434.113281 201.898438 434.363281 202.503906 434.710938 202.988281 C 434.695312 202.984375 434.683594 202.980469 434.675781 202.976562 C 430.527344 201.011719 428.539062 196.097656 427.910156 193.878906 C 431.675781 194.289062 438.101562 192.101562 444.070312 190.65625 C 448.710938 189.53125 451.972656 188.578125 454.519531 188.085938 C 453.628906 190.597656 452.109375 192.972656 450.273438 195.074219 C 444.246094 196.015625 433.390625 199.542969 434.011719 201.105469 "/>
<path style=" stroke:none;fill-rule:nonzero;fill:rgb(89.408875%,28.62854%,28.62854%);fill-opacity:1;" d="M 409.808594 194.136719 C 409.917969 194.113281 410.015625 194.066406 410.113281 194.03125 C 410.476562 196.917969 409.84375 200.339844 408.390625 202.035156 C 407.652344 201.199219 404.6875 200.277344 401.449219 199.636719 C 399.3125 196.84375 397.445312 192.980469 395.414062 190.230469 C 402.296875 190.160156 408.210938 194.457031 409.808594 194.136719 "/>
<path style=" stroke:none;fill-rule:nonzero;fill:rgb(89.408875%,28.62854%,28.62854%);fill-opacity:1;" d="M 504.476562 180.875 C 508.59375 177.757812 511.441406 181.160156 512.859375 185.105469 C 512.859375 185.105469 509.347656 183.191406 507.433594 183.566406 C 505.519531 183.945312 503.535156 185.484375 503.183594 187.214844 C 502.6875 189.332031 506.148438 190.035156 506.230469 192.273438 C 506.378906 196.5625 497.496094 195.953125 497.398438 192.03125 C 497.226562 187.5625 501.1875 183.148438 504.476562 180.875 "/>
<path style=" stroke:none;fill-rule:nonzero;fill:rgb(89.408875%,28.62854%,28.62854%);fill-opacity:1;" d="M 409.410156 214.578125 C 410.390625 213.484375 411.402344 212.351562 411.679688 211.386719 C 412.351562 209.03125 412.351562 205.617188 411.679688 203.265625 C 411.515625 202.707031 411.84375 202.121094 412.402344 201.960938 C 412.960938 201.804688 413.546875 202.125 413.707031 202.683594 C 414.488281 205.417969 414.488281 209.230469 413.707031 211.960938 C 413.296875 213.398438 412.117188 214.707031 410.980469 215.980469 C 409.910156 217.175781 408.804688 218.414062 408.65625 219.429688 C 408.542969 220.214844 408.667969 220.796875 409.035156 221.203125 C 410.179688 222.476562 413.558594 222.351562 416.027344 222.261719 C 416.660156 222.234375 417.25 222.214844 417.769531 222.214844 C 418.347656 222.214844 418.824219 222.6875 418.824219 223.269531 C 418.824219 223.851562 418.347656 224.320312 417.769531 224.320312 C 417.273438 224.320312 416.710938 224.34375 416.105469 224.367188 C 415.375 224.390625 414.601562 224.421875 413.820312 224.421875 C 411.355469 224.421875 408.835938 224.136719 407.464844 222.609375 C 406.667969 221.726562 406.367188 220.558594 406.566406 219.132812 C 406.804688 217.484375 408.128906 216.003906 409.410156 214.578125 "/>
<path style=" stroke:none;fill-rule:nonzero;fill:rgb(89.408875%,28.62854%,28.62854%);fill-opacity:1;" d="M 410.019531 233.707031 C 412.398438 235.074219 421.074219 235.667969 428.734375 233.441406 C 432.285156 232.414062 436.949219 230.355469 439.035156 226.402344 C 439.304688 225.890625 439.9375 225.691406 440.457031 225.960938 C 440.972656 226.230469 441.171875 226.867188 440.898438 227.382812 C 438.980469 231.03125 434.972656 233.828125 429.324219 235.464844 C 425.628906 236.539062 421.492188 237.007812 417.847656 237.007812 C 413.933594 237.007812 410.585938 236.464844 408.972656 235.535156 C 408.464844 235.246094 408.292969 234.605469 408.582031 234.097656 C 408.871094 233.59375 409.511719 233.421875 410.019531 233.707031 "/>
</g>
</svg>
