<?xml version="1.0" encoding="UTF-8"?>
<svg xmlns="http://www.w3.org/2000/svg" xmlns:xlink="http://www.w3.org/1999/xlink" width="768pt" height="767.999994pt" viewBox="0 0 768 767.999994" version="1.2">
<defs>
<clipPath id="clip1">
  <path d="M 233.183594 157.632812 L 534.683594 157.632812 L 534.683594 610.632812 L 233.183594 610.632812 Z M 233.183594 157.632812 "/>
</clipPath>
</defs>
<g id="surface1">
<path style=" stroke:none;fill-rule:nonzero;fill:rgb(34.899902%,26.269531%,79.60968%);fill-opacity:1;" d="M 384 46.800781 C 378.480469 46.800781 372.964844 46.933594 367.453125 47.207031 C 361.941406 47.476562 356.441406 47.882812 350.949219 48.421875 C 345.457031 48.964844 339.980469 49.640625 334.523438 50.449219 C 329.0625 51.257812 323.628906 52.203125 318.214844 53.277344 C 312.804688 54.355469 307.421875 55.566406 302.066406 56.90625 C 296.714844 58.246094 291.398438 59.71875 286.117188 61.320312 C 280.835938 62.921875 275.597656 64.652344 270.402344 66.511719 C 265.203125 68.371094 260.058594 70.355469 254.960938 72.46875 C 249.859375 74.578125 244.816406 76.816406 239.828125 79.175781 C 234.839844 81.535156 229.910156 84.015625 225.046875 86.617188 C 220.179688 89.21875 215.378906 91.9375 210.644531 94.773438 C 205.910156 97.609375 201.25 100.5625 196.660156 103.628906 C 192.074219 106.695312 187.5625 109.871094 183.128906 113.160156 C 178.699219 116.445312 174.347656 119.839844 170.082031 123.339844 C 165.816406 126.84375 161.640625 130.445312 157.550781 134.152344 C 153.460938 137.855469 149.464844 141.660156 145.5625 145.5625 C 141.660156 149.464844 137.855469 153.460938 134.152344 157.550781 C 130.445312 161.640625 126.839844 165.816406 123.339844 170.082031 C 119.839844 174.347656 116.445312 178.699219 113.160156 183.128906 C 109.871094 187.5625 106.695312 192.074219 103.628906 196.660156 C 100.5625 201.25 97.609375 205.910156 94.773438 210.644531 C 91.9375 215.378906 89.21875 220.179688 86.617188 225.046875 C 84.015625 229.910156 81.535156 234.839844 79.175781 239.828125 C 76.816406 244.816406 74.578125 249.859375 72.46875 254.960938 C 70.355469 260.058594 68.371094 265.203125 66.511719 270.402344 C 64.652344 275.597656 62.921875 280.835938 61.320312 286.117188 C 59.71875 291.398438 58.246094 296.714844 56.90625 302.066406 C 55.566406 307.421875 54.355469 312.804688 53.277344 318.214844 C 52.203125 323.628906 51.257812 329.0625 50.449219 334.523438 C 49.640625 339.980469 48.964844 345.457031 48.421875 350.949219 C 47.882812 356.441406 47.476562 361.941406 47.207031 367.453125 C 46.933594 372.964844 46.800781 378.480469 46.800781 384 C 46.800781 389.519531 46.933594 395.035156 47.207031 400.546875 C 47.476562 406.058594 47.882812 411.558594 48.421875 417.050781 C 48.964844 422.542969 49.640625 428.019531 50.449219 433.476562 C 51.257812 438.9375 52.203125 444.371094 53.277344 449.785156 C 54.355469 455.195312 55.566406 460.578125 56.90625 465.933594 C 58.246094 471.285156 59.71875 476.601562 61.320312 481.882812 C 62.921875 487.164062 64.652344 492.402344 66.511719 497.597656 C 68.371094 502.796875 70.355469 507.941406 72.46875 513.039062 C 74.578125 518.140625 76.816406 523.183594 79.175781 528.171875 C 81.535156 533.160156 84.015625 538.089844 86.617188 542.953125 C 89.21875 547.820312 91.9375 552.621094 94.773438 557.355469 C 97.609375 562.089844 100.5625 566.75 103.628906 571.339844 C 106.695312 575.925781 109.871094 580.4375 113.160156 584.871094 C 116.445312 589.300781 119.839844 593.652344 123.339844 597.917969 C 126.839844 602.183594 130.445312 606.359375 134.152344 610.449219 C 137.855469 614.539062 141.660156 618.535156 145.5625 622.4375 C 149.464844 626.339844 153.460938 630.144531 157.550781 633.847656 C 161.640625 637.554688 165.816406 641.15625 170.082031 644.660156 C 174.347656 648.160156 178.699219 651.554688 183.128906 654.839844 C 187.5625 658.128906 192.074219 661.304688 196.660156 664.371094 C 201.25 667.4375 205.910156 670.390625 210.644531 673.226562 C 215.378906 676.0625 220.179688 678.78125 225.046875 681.382812 C 229.910156 683.984375 234.839844 686.464844 239.828125 688.824219 C 244.816406 691.183594 249.859375 693.421875 254.960938 695.53125 C 260.058594 697.644531 265.203125 699.628906 270.402344 701.488281 C 275.597656 703.347656 280.835938 705.078125 286.117188 706.679688 C 291.398438 708.28125 296.714844 709.753906 302.066406 711.09375 C 307.421875 712.433594 312.804688 713.644531 318.214844 714.722656 C 323.628906 715.796875 329.0625 716.742188 334.523438 717.550781 C 339.980469 718.359375 345.457031 719.035156 350.949219 719.578125 C 356.441406 720.117188 361.941406 720.523438 367.453125 720.792969 C 372.964844 721.066406 378.480469 721.199219 384 721.199219 C 389.519531 721.199219 395.035156 721.066406 400.546875 720.792969 C 406.058594 720.523438 411.558594 720.117188 417.050781 719.578125 C 422.542969 719.035156 428.019531 718.359375 433.476562 717.550781 C 438.9375 716.742188 444.371094 715.796875 449.785156 714.722656 C 455.195312 713.644531 460.578125 712.433594 465.933594 711.09375 C 471.285156 709.753906 476.601562 708.28125 481.882812 706.679688 C 487.164062 705.078125 492.402344 703.347656 497.597656 701.488281 C 502.796875 699.628906 507.941406 697.644531 513.039062 695.53125 C 518.140625 693.421875 523.183594 691.183594 528.171875 688.824219 C 533.160156 686.464844 538.089844 683.984375 542.953125 681.382812 C 547.820312 678.78125 552.621094 676.0625 557.355469 673.226562 C 562.089844 670.390625 566.75 667.4375 571.339844 664.371094 C 575.925781 661.304688 580.4375 658.128906 584.871094 654.839844 C 589.300781 651.554688 593.652344 648.160156 597.917969 644.660156 C 602.183594 641.15625 606.359375 637.554688 610.449219 633.847656 C 614.539062 630.144531 618.535156 626.339844 622.4375 622.4375 C 626.339844 618.535156 630.144531 614.539062 633.847656 610.449219 C 637.554688 606.359375 641.15625 602.183594 644.660156 597.917969 C 648.160156 593.652344 651.554688 589.300781 654.839844 584.871094 C 658.128906 580.4375 661.304688 575.925781 664.371094 571.339844 C 667.4375 566.75 670.390625 562.089844 673.226562 557.355469 C 676.0625 552.621094 678.78125 547.820312 681.382812 542.953125 C 683.984375 538.089844 686.464844 533.160156 688.824219 528.171875 C 691.183594 523.183594 693.421875 518.140625 695.53125 513.039062 C 697.644531 507.941406 699.628906 502.796875 701.488281 497.597656 C 703.347656 492.402344 705.078125 487.164062 706.679688 481.882812 C 708.28125 476.601562 709.753906 471.285156 711.09375 465.933594 C 712.433594 460.578125 713.644531 455.195312 714.722656 449.785156 C 715.796875 444.371094 716.742188 438.9375 717.550781 433.476562 C 718.359375 428.019531 719.035156 422.542969 719.578125 417.050781 C 720.117188 411.558594 720.523438 406.058594 720.792969 400.546875 C 721.066406 395.035156 721.199219 389.519531 721.199219 384 C 721.199219 378.480469 721.066406 372.964844 720.792969 367.453125 C 720.523438 361.941406 720.117188 356.441406 719.578125 350.949219 C 719.035156 345.457031 718.359375 339.980469 717.550781 334.523438 C 716.742188 329.0625 715.796875 323.628906 714.71875 318.214844 C 713.644531 312.804688 712.433594 307.421875 711.09375 302.066406 C 709.753906 296.714844 708.28125 291.398438 706.679688 286.117188 C 705.078125 280.835938 703.347656 275.597656 701.488281 270.402344 C 699.628906 265.203125 697.644531 260.058594 695.53125 254.960938 C 693.421875 249.859375 691.183594 244.816406 688.824219 239.828125 C 686.464844 234.839844 683.984375 229.910156 681.382812 225.046875 C 678.78125 220.179688 676.0625 215.378906 673.226562 210.644531 C 670.390625 205.910156 667.4375 201.25 664.371094 196.660156 C 661.304688 192.074219 658.128906 187.5625 654.839844 183.128906 C 651.554688 178.699219 648.160156 174.347656 644.660156 170.082031 C 641.15625 165.816406 637.554688 161.640625 633.847656 157.550781 C 630.144531 153.460938 626.339844 149.464844 622.4375 145.5625 C 618.535156 141.660156 614.539062 137.855469 610.449219 134.152344 C 606.359375 130.445312 602.183594 126.84375 597.917969 123.339844 C 593.652344 119.839844 589.300781 116.445312 584.871094 113.160156 C 580.4375 109.871094 575.925781 106.695312 571.339844 103.628906 C 566.75 100.5625 562.089844 97.609375 557.355469 94.773438 C 552.621094 91.9375 547.820312 89.21875 542.953125 86.617188 C 538.089844 84.015625 533.160156 81.535156 528.171875 79.175781 C 523.183594 76.816406 518.140625 74.578125 513.039062 72.46875 C 507.941406 70.355469 502.796875 68.371094 497.597656 66.511719 C 492.402344 64.652344 487.164062 62.921875 481.882812 61.320312 C 476.601562 59.71875 471.285156 58.246094 465.933594 56.90625 C 460.578125 55.566406 455.195312 54.355469 449.785156 53.277344 C 444.371094 52.203125 438.9375 51.257812 433.476562 50.449219 C 428.019531 49.640625 422.542969 48.964844 417.050781 48.421875 C 411.558594 47.882812 406.058594 47.476562 400.546875 47.207031 C 395.035156 46.933594 389.519531 46.800781 384 46.800781 Z M 384 46.800781 "/>
<g clip-path="url(#clip1)" clip-rule="nonzero">
<path style=" stroke:none;fill-rule:nonzero;fill:rgb(100%,87.059021%,34.899902%);fill-opacity:1;" d="M 444.234375 157.777344 C 443.574219 157.777344 442.917969 157.84375 442.273438 157.972656 C 441.625 158.101562 440.996094 158.289062 440.386719 158.542969 C 439.777344 158.796875 439.199219 159.105469 438.648438 159.472656 C 438.101562 159.839844 437.59375 160.257812 437.125 160.722656 C 436.660156 161.191406 436.242188 161.699219 435.875 162.25 C 435.511719 162.796875 435.199219 163.378906 434.949219 163.988281 C 434.695312 164.597656 434.503906 165.226562 434.375 165.875 C 434.246094 166.523438 434.183594 167.175781 434.183594 167.835938 L 434.183594 469.644531 C 434.183594 497.550781 411.808594 519.949219 383.933594 519.949219 C 356.058594 519.949219 333.683594 497.550781 333.683594 469.644531 C 333.683594 468.984375 333.617188 468.332031 333.488281 467.683594 C 333.359375 467.035156 333.171875 466.40625 332.917969 465.796875 C 332.664062 465.1875 332.355469 464.605469 331.988281 464.054688 C 331.621094 463.507812 331.207031 463 330.738281 462.53125 C 330.273438 462.066406 329.765625 461.648438 329.214844 461.28125 C 328.667969 460.914062 328.089844 460.605469 327.480469 460.351562 C 326.871094 460.097656 326.242188 459.90625 325.59375 459.777344 C 324.945312 459.648438 324.292969 459.585938 323.632812 459.585938 L 243.234375 459.585938 C 242.574219 459.585938 241.917969 459.648438 241.273438 459.777344 C 240.625 459.910156 239.996094 460.097656 239.386719 460.351562 C 238.777344 460.605469 238.199219 460.914062 237.648438 461.28125 C 237.101562 461.648438 236.59375 462.066406 236.125 462.53125 C 235.660156 463 235.242188 463.507812 234.878906 464.058594 C 234.511719 464.605469 234.199219 465.1875 233.949219 465.796875 C 233.695312 466.40625 233.503906 467.035156 233.375 467.683594 C 233.246094 468.332031 233.183594 468.984375 233.183594 469.644531 C 233.183594 547.734375 301.183594 610.488281 383.933594 610.488281 C 466.683594 610.488281 534.683594 547.734375 534.683594 469.644531 L 534.683594 167.835938 C 534.683594 167.175781 534.617188 166.523438 534.488281 165.875 C 534.359375 165.226562 534.171875 164.597656 533.917969 163.988281 C 533.664062 163.378906 533.355469 162.796875 532.988281 162.25 C 532.621094 161.699219 532.207031 161.191406 531.738281 160.722656 C 531.273438 160.257812 530.765625 159.839844 530.214844 159.472656 C 529.667969 159.105469 529.089844 158.796875 528.480469 158.542969 C 527.871094 158.289062 527.242188 158.097656 526.59375 157.96875 C 525.945312 157.839844 525.292969 157.777344 524.632812 157.777344 Z M 454.285156 177.898438 L 514.582031 177.898438 L 514.582031 469.644531 C 514.582031 536.023438 456.597656 590.371094 383.933594 590.371094 C 315.039062 590.371094 259.976562 541.351562 254.382812 479.707031 L 315.625 479.707031 C 320.714844 513.539062 348.757812 540.066406 383.933594 540.066406 C 422.667969 540.066406 454.285156 508.421875 454.285156 469.644531 Z M 454.285156 177.898438 "/>
</g>
</g>
</svg>
