<?xml version="1.0" encoding="UTF-8"?>
<svg xmlns="http://www.w3.org/2000/svg" xmlns:xlink="http://www.w3.org/1999/xlink" width="792pt" height="611.999999pt" viewBox="0 0 792 611.999999" version="1.2">
<defs>
<clipPath id="clip1">
  <path d="M 62 48.042969 L 724 48.042969 L 724 564 L 62 564 Z M 62 48.042969 "/>
</clipPath>
<clipPath id="clip2">
  <path d="M 573.9375 120.433594 C 568.324219 120.433594 562.996094 120.714844 557.664062 121.277344 C 518.949219 125.765625 479.953125 115.664062 449.652344 91.253906 C 427.769531 73.855469 399.996094 63.195312 369.695312 63.195312 C 351.179688 63.195312 333.222656 67.121094 317.230469 74.417969 C 299.277344 82.554688 278.234375 80.589844 261.964844 69.648438 C 239.519531 54.496094 212.304688 46.359375 183.128906 48.042969 C 117.480469 51.96875 62.210938 105.5625 62.210938 171.21875 C 62.210938 247.539062 111.308594 280.367188 148.902344 294.398438 C 171.625 302.816406 185.371094 326.386719 182.007812 350.515625 C 179.761719 367.070312 178.078125 384.746094 178.921875 398.496094 C 183.96875 487.441406 256.351562 559.273438 345.566406 563.761719 C 423 567.691406 489.769531 521.394531 517.265625 454.894531 C 526.804688 431.886719 549.527344 417.296875 574.496094 417.574219 L 575.058594 417.574219 C 657.257812 417.574219 723.75 351.078125 723.46875 268.863281 C 722.910156 187.214844 655.578125 120.152344 573.9375 120.433594 Z M 573.9375 120.433594 "/>
</clipPath>
<linearGradient id="linear0" gradientUnits="userSpaceOnUse" x1="-0.000000710071" y1="91.945" x2="235.799981" y2="91.945" gradientTransform="matrix(2.805512,0,0,2.805873,62.210698,48.04244)">
<stop offset="0" style="stop-color:rgb(34.899902%,26.298523%,79.598999%);stop-opacity:1;"/>
<stop offset="0.00390625" style="stop-color:rgb(35.153198%,26.53656%,79.423523%);stop-opacity:1;"/>
<stop offset="0.0078125" style="stop-color:rgb(35.40802%,26.774597%,79.249573%);stop-opacity:1;"/>
<stop offset="0.0117187" style="stop-color:rgb(35.662842%,27.012634%,79.074097%);stop-opacity:1;"/>
<stop offset="0.015625" style="stop-color:rgb(35.917664%,27.250671%,78.900146%);stop-opacity:1;"/>
<stop offset="0.0195312" style="stop-color:rgb(36.170959%,27.487183%,78.72467%);stop-opacity:1;"/>
<stop offset="0.0234375" style="stop-color:rgb(36.425781%,27.72522%,78.55072%);stop-opacity:1;"/>
<stop offset="0.0273438" style="stop-color:rgb(36.680603%,27.963257%,78.375244%);stop-opacity:1;"/>
<stop offset="0.03125" style="stop-color:rgb(36.935425%,28.201294%,78.201294%);stop-opacity:1;"/>
<stop offset="0.0351562" style="stop-color:rgb(37.190247%,28.437805%,78.025818%);stop-opacity:1;"/>
<stop offset="0.0390625" style="stop-color:rgb(37.445068%,28.675842%,77.851868%);stop-opacity:1;"/>
<stop offset="0.0429687" style="stop-color:rgb(37.698364%,28.913879%,77.676392%);stop-opacity:1;"/>
<stop offset="0.046875" style="stop-color:rgb(37.953186%,29.151917%,77.502441%);stop-opacity:1;"/>
<stop offset="0.0507812" style="stop-color:rgb(38.208008%,29.389954%,77.326965%);stop-opacity:1;"/>
<stop offset="0.0546875" style="stop-color:rgb(38.46283%,29.627991%,77.153015%);stop-opacity:1;"/>
<stop offset="0.0585937" style="stop-color:rgb(38.717651%,29.864502%,76.977539%);stop-opacity:1;"/>
<stop offset="0.0625" style="stop-color:rgb(38.972473%,30.102539%,76.803589%);stop-opacity:1;"/>
<stop offset="0.0664062" style="stop-color:rgb(39.225769%,30.340576%,76.628113%);stop-opacity:1;"/>
<stop offset="0.0703125" style="stop-color:rgb(39.480591%,30.578613%,76.452637%);stop-opacity:1;"/>
<stop offset="0.0742187" style="stop-color:rgb(39.735413%,30.815125%,76.277161%);stop-opacity:1;"/>
<stop offset="0.078125" style="stop-color:rgb(39.990234%,31.053162%,76.10321%);stop-opacity:1;"/>
<stop offset="0.0820312" style="stop-color:rgb(40.24353%,31.291199%,75.927734%);stop-opacity:1;"/>
<stop offset="0.0859375" style="stop-color:rgb(40.498352%,31.529236%,75.753784%);stop-opacity:1;"/>
<stop offset="0.0898437" style="stop-color:rgb(40.753174%,31.767273%,75.578308%);stop-opacity:1;"/>
<stop offset="0.09375" style="stop-color:rgb(41.007996%,32.00531%,75.404358%);stop-opacity:1;"/>
<stop offset="0.0976562" style="stop-color:rgb(41.262817%,32.241821%,75.228882%);stop-opacity:1;"/>
<stop offset="0.101562" style="stop-color:rgb(41.517639%,32.479858%,75.054932%);stop-opacity:1;"/>
<stop offset="0.105469" style="stop-color:rgb(41.770935%,32.717896%,74.879456%);stop-opacity:1;"/>
<stop offset="0.109375" style="stop-color:rgb(42.025757%,32.955933%,74.705505%);stop-opacity:1;"/>
<stop offset="0.113281" style="stop-color:rgb(42.280579%,33.192444%,74.530029%);stop-opacity:1;"/>
<stop offset="0.117187" style="stop-color:rgb(42.5354%,33.430481%,74.356079%);stop-opacity:1;"/>
<stop offset="0.121094" style="stop-color:rgb(42.790222%,33.668518%,74.180603%);stop-opacity:1;"/>
<stop offset="0.125" style="stop-color:rgb(43.045044%,33.906555%,74.006653%);stop-opacity:1;"/>
<stop offset="0.128906" style="stop-color:rgb(43.29834%,34.143066%,73.831177%);stop-opacity:1;"/>
<stop offset="0.132812" style="stop-color:rgb(43.553162%,34.381104%,73.657227%);stop-opacity:1;"/>
<stop offset="0.136719" style="stop-color:rgb(43.807983%,34.619141%,73.48175%);stop-opacity:1;"/>
<stop offset="0.140625" style="stop-color:rgb(44.062805%,34.857178%,73.3078%);stop-opacity:1;"/>
<stop offset="0.144531" style="stop-color:rgb(44.316101%,35.095215%,73.132324%);stop-opacity:1;"/>
<stop offset="0.148437" style="stop-color:rgb(44.570923%,35.333252%,72.958374%);stop-opacity:1;"/>
<stop offset="0.152344" style="stop-color:rgb(44.825745%,35.569763%,72.782898%);stop-opacity:1;"/>
<stop offset="0.15625" style="stop-color:rgb(45.080566%,35.8078%,72.608948%);stop-opacity:1;"/>
<stop offset="0.160156" style="stop-color:rgb(45.335388%,36.045837%,72.433472%);stop-opacity:1;"/>
<stop offset="0.164062" style="stop-color:rgb(45.59021%,36.283875%,72.259521%);stop-opacity:1;"/>
<stop offset="0.167969" style="stop-color:rgb(45.843506%,36.520386%,72.084045%);stop-opacity:1;"/>
<stop offset="0.171875" style="stop-color:rgb(46.098328%,36.758423%,71.908569%);stop-opacity:1;"/>
<stop offset="0.175781" style="stop-color:rgb(46.353149%,36.99646%,71.733093%);stop-opacity:1;"/>
<stop offset="0.179688" style="stop-color:rgb(46.607971%,37.234497%,71.559143%);stop-opacity:1;"/>
<stop offset="0.183594" style="stop-color:rgb(46.862793%,37.472534%,71.383667%);stop-opacity:1;"/>
<stop offset="0.1875" style="stop-color:rgb(47.117615%,37.710571%,71.209717%);stop-opacity:1;"/>
<stop offset="0.191406" style="stop-color:rgb(47.370911%,37.947083%,71.034241%);stop-opacity:1;"/>
<stop offset="0.195312" style="stop-color:rgb(47.625732%,38.18512%,70.860291%);stop-opacity:1;"/>
<stop offset="0.199219" style="stop-color:rgb(47.880554%,38.423157%,70.684814%);stop-opacity:1;"/>
<stop offset="0.203125" style="stop-color:rgb(48.135376%,38.661194%,70.510864%);stop-opacity:1;"/>
<stop offset="0.207031" style="stop-color:rgb(48.388672%,38.897705%,70.335388%);stop-opacity:1;"/>
<stop offset="0.210937" style="stop-color:rgb(48.643494%,39.135742%,70.161438%);stop-opacity:1;"/>
<stop offset="0.214844" style="stop-color:rgb(48.898315%,39.373779%,69.985962%);stop-opacity:1;"/>
<stop offset="0.21875" style="stop-color:rgb(49.153137%,39.611816%,69.812012%);stop-opacity:1;"/>
<stop offset="0.222656" style="stop-color:rgb(49.407959%,39.848328%,69.636536%);stop-opacity:1;"/>
<stop offset="0.226562" style="stop-color:rgb(49.662781%,40.086365%,69.462585%);stop-opacity:1;"/>
<stop offset="0.230469" style="stop-color:rgb(49.916077%,40.324402%,69.287109%);stop-opacity:1;"/>
<stop offset="0.234375" style="stop-color:rgb(50.170898%,40.562439%,69.113159%);stop-opacity:1;"/>
<stop offset="0.238281" style="stop-color:rgb(50.42572%,40.800476%,68.937683%);stop-opacity:1;"/>
<stop offset="0.242187" style="stop-color:rgb(50.680542%,41.038513%,68.763733%);stop-opacity:1;"/>
<stop offset="0.246094" style="stop-color:rgb(50.935364%,41.275024%,68.588257%);stop-opacity:1;"/>
<stop offset="0.25" style="stop-color:rgb(51.190186%,41.513062%,68.414307%);stop-opacity:1;"/>
<stop offset="0.253906" style="stop-color:rgb(51.443481%,41.751099%,68.238831%);stop-opacity:1;"/>
<stop offset="0.257812" style="stop-color:rgb(51.698303%,41.989136%,68.06488%);stop-opacity:1;"/>
<stop offset="0.261719" style="stop-color:rgb(51.953125%,42.225647%,67.889404%);stop-opacity:1;"/>
<stop offset="0.265625" style="stop-color:rgb(52.207947%,42.463684%,67.715454%);stop-opacity:1;"/>
<stop offset="0.269531" style="stop-color:rgb(52.461243%,42.701721%,67.539978%);stop-opacity:1;"/>
<stop offset="0.273438" style="stop-color:rgb(52.716064%,42.939758%,67.364502%);stop-opacity:1;"/>
<stop offset="0.277344" style="stop-color:rgb(52.970886%,43.177795%,67.189026%);stop-opacity:1;"/>
<stop offset="0.28125" style="stop-color:rgb(53.225708%,43.415833%,67.015076%);stop-opacity:1;"/>
<stop offset="0.285156" style="stop-color:rgb(53.48053%,43.652344%,66.8396%);stop-opacity:1;"/>
<stop offset="0.289062" style="stop-color:rgb(53.735352%,43.890381%,66.665649%);stop-opacity:1;"/>
<stop offset="0.292969" style="stop-color:rgb(53.988647%,44.128418%,66.490173%);stop-opacity:1;"/>
<stop offset="0.296875" style="stop-color:rgb(54.243469%,44.366455%,66.316223%);stop-opacity:1;"/>
<stop offset="0.300781" style="stop-color:rgb(54.498291%,44.602966%,66.140747%);stop-opacity:1;"/>
<stop offset="0.304688" style="stop-color:rgb(54.753113%,44.841003%,65.966797%);stop-opacity:1;"/>
<stop offset="0.308594" style="stop-color:rgb(55.006409%,45.079041%,65.791321%);stop-opacity:1;"/>
<stop offset="0.3125" style="stop-color:rgb(55.26123%,45.317078%,65.617371%);stop-opacity:1;"/>
<stop offset="0.316406" style="stop-color:rgb(55.516052%,45.555115%,65.441895%);stop-opacity:1;"/>
<stop offset="0.320313" style="stop-color:rgb(55.770874%,45.793152%,65.267944%);stop-opacity:1;"/>
<stop offset="0.324219" style="stop-color:rgb(56.025696%,46.029663%,65.092468%);stop-opacity:1;"/>
<stop offset="0.328125" style="stop-color:rgb(56.280518%,46.2677%,64.918518%);stop-opacity:1;"/>
<stop offset="0.332031" style="stop-color:rgb(56.533813%,46.505737%,64.743042%);stop-opacity:1;"/>
<stop offset="0.335938" style="stop-color:rgb(56.788635%,46.743774%,64.569092%);stop-opacity:1;"/>
<stop offset="0.339844" style="stop-color:rgb(57.043457%,46.980286%,64.393616%);stop-opacity:1;"/>
<stop offset="0.34375" style="stop-color:rgb(57.298279%,47.218323%,64.219666%);stop-opacity:1;"/>
<stop offset="0.347656" style="stop-color:rgb(57.553101%,47.45636%,64.044189%);stop-opacity:1;"/>
<stop offset="0.351563" style="stop-color:rgb(57.807922%,47.694397%,63.870239%);stop-opacity:1;"/>
<stop offset="0.355469" style="stop-color:rgb(58.061218%,47.930908%,63.694763%);stop-opacity:1;"/>
<stop offset="0.359375" style="stop-color:rgb(58.31604%,48.168945%,63.520813%);stop-opacity:1;"/>
<stop offset="0.363281" style="stop-color:rgb(58.570862%,48.406982%,63.345337%);stop-opacity:1;"/>
<stop offset="0.367188" style="stop-color:rgb(58.825684%,48.64502%,63.171387%);stop-opacity:1;"/>
<stop offset="0.371094" style="stop-color:rgb(59.078979%,48.883057%,62.995911%);stop-opacity:1;"/>
<stop offset="0.375" style="stop-color:rgb(59.333801%,49.121094%,62.820435%);stop-opacity:1;"/>
<stop offset="0.378906" style="stop-color:rgb(59.588623%,49.357605%,62.644958%);stop-opacity:1;"/>
<stop offset="0.382812" style="stop-color:rgb(59.843445%,49.595642%,62.471008%);stop-opacity:1;"/>
<stop offset="0.386719" style="stop-color:rgb(60.098267%,49.833679%,62.295532%);stop-opacity:1;"/>
<stop offset="0.390625" style="stop-color:rgb(60.353088%,50.071716%,62.121582%);stop-opacity:1;"/>
<stop offset="0.394531" style="stop-color:rgb(60.606384%,50.308228%,61.946106%);stop-opacity:1;"/>
<stop offset="0.398437" style="stop-color:rgb(60.861206%,50.546265%,61.772156%);stop-opacity:1;"/>
<stop offset="0.402344" style="stop-color:rgb(61.116028%,50.784302%,61.59668%);stop-opacity:1;"/>
<stop offset="0.40625" style="stop-color:rgb(61.37085%,51.022339%,61.422729%);stop-opacity:1;"/>
<stop offset="0.410156" style="stop-color:rgb(61.625671%,51.260376%,61.247253%);stop-opacity:1;"/>
<stop offset="0.414062" style="stop-color:rgb(61.880493%,51.498413%,61.073303%);stop-opacity:1;"/>
<stop offset="0.417969" style="stop-color:rgb(62.133789%,51.734924%,60.897827%);stop-opacity:1;"/>
<stop offset="0.421875" style="stop-color:rgb(62.388611%,51.972961%,60.723877%);stop-opacity:1;"/>
<stop offset="0.425781" style="stop-color:rgb(62.643433%,52.210999%,60.548401%);stop-opacity:1;"/>
<stop offset="0.429687" style="stop-color:rgb(62.898254%,52.449036%,60.374451%);stop-opacity:1;"/>
<stop offset="0.433594" style="stop-color:rgb(63.15155%,52.685547%,60.198975%);stop-opacity:1;"/>
<stop offset="0.4375" style="stop-color:rgb(63.406372%,52.923584%,60.025024%);stop-opacity:1;"/>
<stop offset="0.441406" style="stop-color:rgb(63.661194%,53.161621%,59.849548%);stop-opacity:1;"/>
<stop offset="0.445312" style="stop-color:rgb(63.916016%,53.399658%,59.675598%);stop-opacity:1;"/>
<stop offset="0.449219" style="stop-color:rgb(64.170837%,53.636169%,59.500122%);stop-opacity:1;"/>
<stop offset="0.453125" style="stop-color:rgb(64.425659%,53.874207%,59.326172%);stop-opacity:1;"/>
<stop offset="0.457031" style="stop-color:rgb(64.678955%,54.112244%,59.150696%);stop-opacity:1;"/>
<stop offset="0.460938" style="stop-color:rgb(64.933777%,54.350281%,58.976746%);stop-opacity:1;"/>
<stop offset="0.464844" style="stop-color:rgb(65.188599%,54.588318%,58.80127%);stop-opacity:1;"/>
<stop offset="0.46875" style="stop-color:rgb(65.44342%,54.826355%,58.625793%);stop-opacity:1;"/>
<stop offset="0.472656" style="stop-color:rgb(65.698242%,55.062866%,58.450317%);stop-opacity:1;"/>
<stop offset="0.476562" style="stop-color:rgb(65.953064%,55.300903%,58.276367%);stop-opacity:1;"/>
<stop offset="0.480469" style="stop-color:rgb(66.20636%,55.53894%,58.100891%);stop-opacity:1;"/>
<stop offset="0.484375" style="stop-color:rgb(66.461182%,55.776978%,57.926941%);stop-opacity:1;"/>
<stop offset="0.488281" style="stop-color:rgb(66.716003%,56.013489%,57.751465%);stop-opacity:1;"/>
<stop offset="0.492188" style="stop-color:rgb(66.970825%,56.251526%,57.577515%);stop-opacity:1;"/>
<stop offset="0.496094" style="stop-color:rgb(67.224121%,56.489563%,57.402039%);stop-opacity:1;"/>
<stop offset="0.5" style="stop-color:rgb(67.478943%,56.7276%,57.228088%);stop-opacity:1;"/>
<stop offset="0.503906" style="stop-color:rgb(67.733765%,56.965637%,57.052612%);stop-opacity:1;"/>
<stop offset="0.507813" style="stop-color:rgb(67.988586%,57.203674%,56.878662%);stop-opacity:1;"/>
<stop offset="0.511719" style="stop-color:rgb(68.243408%,57.440186%,56.703186%);stop-opacity:1;"/>
<stop offset="0.515625" style="stop-color:rgb(68.49823%,57.678223%,56.529236%);stop-opacity:1;"/>
<stop offset="0.519531" style="stop-color:rgb(68.751526%,57.91626%,56.35376%);stop-opacity:1;"/>
<stop offset="0.523438" style="stop-color:rgb(69.006348%,58.154297%,56.17981%);stop-opacity:1;"/>
<stop offset="0.527344" style="stop-color:rgb(69.261169%,58.390808%,56.004333%);stop-opacity:1;"/>
<stop offset="0.53125" style="stop-color:rgb(69.515991%,58.628845%,55.830383%);stop-opacity:1;"/>
<stop offset="0.535156" style="stop-color:rgb(69.770813%,58.866882%,55.654907%);stop-opacity:1;"/>
<stop offset="0.539063" style="stop-color:rgb(70.025635%,59.104919%,55.480957%);stop-opacity:1;"/>
<stop offset="0.542969" style="stop-color:rgb(70.278931%,59.342957%,55.305481%);stop-opacity:1;"/>
<stop offset="0.546875" style="stop-color:rgb(70.533752%,59.580994%,55.131531%);stop-opacity:1;"/>
<stop offset="0.550781" style="stop-color:rgb(70.788574%,59.817505%,54.956055%);stop-opacity:1;"/>
<stop offset="0.554688" style="stop-color:rgb(71.043396%,60.055542%,54.782104%);stop-opacity:1;"/>
<stop offset="0.558594" style="stop-color:rgb(71.296692%,60.293579%,54.606628%);stop-opacity:1;"/>
<stop offset="0.5625" style="stop-color:rgb(71.551514%,60.531616%,54.432678%);stop-opacity:1;"/>
<stop offset="0.566406" style="stop-color:rgb(71.806335%,60.768127%,54.257202%);stop-opacity:1;"/>
<stop offset="0.570313" style="stop-color:rgb(72.061157%,61.006165%,54.081726%);stop-opacity:1;"/>
<stop offset="0.574219" style="stop-color:rgb(72.315979%,61.244202%,53.90625%);stop-opacity:1;"/>
<stop offset="0.578125" style="stop-color:rgb(72.570801%,61.482239%,53.7323%);stop-opacity:1;"/>
<stop offset="0.582031" style="stop-color:rgb(72.824097%,61.71875%,53.556824%);stop-opacity:1;"/>
<stop offset="0.585938" style="stop-color:rgb(73.078918%,61.956787%,53.382874%);stop-opacity:1;"/>
<stop offset="0.589844" style="stop-color:rgb(73.33374%,62.194824%,53.207397%);stop-opacity:1;"/>
<stop offset="0.59375" style="stop-color:rgb(73.588562%,62.432861%,53.033447%);stop-opacity:1;"/>
<stop offset="0.597656" style="stop-color:rgb(73.843384%,62.670898%,52.857971%);stop-opacity:1;"/>
<stop offset="0.601563" style="stop-color:rgb(74.098206%,62.908936%,52.684021%);stop-opacity:1;"/>
<stop offset="0.605469" style="stop-color:rgb(74.351501%,63.145447%,52.508545%);stop-opacity:1;"/>
<stop offset="0.609375" style="stop-color:rgb(74.606323%,63.383484%,52.334595%);stop-opacity:1;"/>
<stop offset="0.613281" style="stop-color:rgb(74.861145%,63.621521%,52.159119%);stop-opacity:1;"/>
<stop offset="0.617188" style="stop-color:rgb(75.115967%,63.859558%,51.985168%);stop-opacity:1;"/>
<stop offset="0.621094" style="stop-color:rgb(75.369263%,64.096069%,51.809692%);stop-opacity:1;"/>
<stop offset="0.625" style="stop-color:rgb(75.624084%,64.334106%,51.635742%);stop-opacity:1;"/>
<stop offset="0.628906" style="stop-color:rgb(75.878906%,64.572144%,51.460266%);stop-opacity:1;"/>
<stop offset="0.632813" style="stop-color:rgb(76.133728%,64.810181%,51.286316%);stop-opacity:1;"/>
<stop offset="0.636719" style="stop-color:rgb(76.38855%,65.048218%,51.11084%);stop-opacity:1;"/>
<stop offset="0.640625" style="stop-color:rgb(76.643372%,65.286255%,50.93689%);stop-opacity:1;"/>
<stop offset="0.644531" style="stop-color:rgb(76.896667%,65.522766%,50.761414%);stop-opacity:1;"/>
<stop offset="0.648438" style="stop-color:rgb(77.151489%,65.760803%,50.587463%);stop-opacity:1;"/>
<stop offset="0.652344" style="stop-color:rgb(77.406311%,65.99884%,50.411987%);stop-opacity:1;"/>
<stop offset="0.65625" style="stop-color:rgb(77.661133%,66.236877%,50.238037%);stop-opacity:1;"/>
<stop offset="0.660156" style="stop-color:rgb(77.915955%,66.473389%,50.062561%);stop-opacity:1;"/>
<stop offset="0.664063" style="stop-color:rgb(78.170776%,66.711426%,49.888611%);stop-opacity:1;"/>
<stop offset="0.667969" style="stop-color:rgb(78.424072%,66.949463%,49.713135%);stop-opacity:1;"/>
<stop offset="0.671875" style="stop-color:rgb(78.678894%,67.1875%,49.537659%);stop-opacity:1;"/>
<stop offset="0.675781" style="stop-color:rgb(78.933716%,67.425537%,49.362183%);stop-opacity:1;"/>
<stop offset="0.679688" style="stop-color:rgb(79.188538%,67.663574%,49.188232%);stop-opacity:1;"/>
<stop offset="0.683594" style="stop-color:rgb(79.441833%,67.900085%,49.012756%);stop-opacity:1;"/>
<stop offset="0.6875" style="stop-color:rgb(79.696655%,68.138123%,48.838806%);stop-opacity:1;"/>
<stop offset="0.691406" style="stop-color:rgb(79.951477%,68.37616%,48.66333%);stop-opacity:1;"/>
<stop offset="0.695313" style="stop-color:rgb(80.206299%,68.614197%,48.48938%);stop-opacity:1;"/>
<stop offset="0.699219" style="stop-color:rgb(80.461121%,68.850708%,48.313904%);stop-opacity:1;"/>
<stop offset="0.703125" style="stop-color:rgb(80.715942%,69.088745%,48.139954%);stop-opacity:1;"/>
<stop offset="0.707031" style="stop-color:rgb(80.969238%,69.326782%,47.964478%);stop-opacity:1;"/>
<stop offset="0.710938" style="stop-color:rgb(81.22406%,69.564819%,47.790527%);stop-opacity:1;"/>
<stop offset="0.714844" style="stop-color:rgb(81.478882%,69.801331%,47.615051%);stop-opacity:1;"/>
<stop offset="0.71875" style="stop-color:rgb(81.733704%,70.039368%,47.441101%);stop-opacity:1;"/>
<stop offset="0.722656" style="stop-color:rgb(81.988525%,70.277405%,47.265625%);stop-opacity:1;"/>
<stop offset="0.726562" style="stop-color:rgb(82.243347%,70.515442%,47.091675%);stop-opacity:1;"/>
<stop offset="0.730469" style="stop-color:rgb(82.496643%,70.753479%,46.916199%);stop-opacity:1;"/>
<stop offset="0.734375" style="stop-color:rgb(82.751465%,70.991516%,46.742249%);stop-opacity:1;"/>
<stop offset="0.738281" style="stop-color:rgb(83.006287%,71.228027%,46.566772%);stop-opacity:1;"/>
<stop offset="0.742188" style="stop-color:rgb(83.261108%,71.466064%,46.392822%);stop-opacity:1;"/>
<stop offset="0.746094" style="stop-color:rgb(83.514404%,71.704102%,46.217346%);stop-opacity:1;"/>
<stop offset="0.75" style="stop-color:rgb(83.769226%,71.942139%,46.043396%);stop-opacity:1;"/>
<stop offset="0.753906" style="stop-color:rgb(84.024048%,72.17865%,45.86792%);stop-opacity:1;"/>
<stop offset="0.757812" style="stop-color:rgb(84.27887%,72.416687%,45.69397%);stop-opacity:1;"/>
<stop offset="0.761719" style="stop-color:rgb(84.533691%,72.654724%,45.518494%);stop-opacity:1;"/>
<stop offset="0.765625" style="stop-color:rgb(84.788513%,72.892761%,45.344543%);stop-opacity:1;"/>
<stop offset="0.769531" style="stop-color:rgb(85.041809%,73.130798%,45.169067%);stop-opacity:1;"/>
<stop offset="0.773438" style="stop-color:rgb(85.296631%,73.368835%,44.993591%);stop-opacity:1;"/>
<stop offset="0.777344" style="stop-color:rgb(85.551453%,73.605347%,44.818115%);stop-opacity:1;"/>
<stop offset="0.78125" style="stop-color:rgb(85.806274%,73.843384%,44.644165%);stop-opacity:1;"/>
<stop offset="0.785156" style="stop-color:rgb(86.061096%,74.081421%,44.468689%);stop-opacity:1;"/>
<stop offset="0.789062" style="stop-color:rgb(86.315918%,74.319458%,44.294739%);stop-opacity:1;"/>
<stop offset="0.792969" style="stop-color:rgb(86.569214%,74.555969%,44.119263%);stop-opacity:1;"/>
<stop offset="0.796875" style="stop-color:rgb(86.824036%,74.794006%,43.945312%);stop-opacity:1;"/>
<stop offset="0.800781" style="stop-color:rgb(87.078857%,75.032043%,43.769836%);stop-opacity:1;"/>
<stop offset="0.804687" style="stop-color:rgb(87.333679%,75.270081%,43.595886%);stop-opacity:1;"/>
<stop offset="0.808594" style="stop-color:rgb(87.586975%,75.506592%,43.42041%);stop-opacity:1;"/>
<stop offset="0.8125" style="stop-color:rgb(87.841797%,75.744629%,43.24646%);stop-opacity:1;"/>
<stop offset="0.816406" style="stop-color:rgb(88.096619%,75.982666%,43.070984%);stop-opacity:1;"/>
<stop offset="0.820312" style="stop-color:rgb(88.35144%,76.220703%,42.897034%);stop-opacity:1;"/>
<stop offset="0.824219" style="stop-color:rgb(88.606262%,76.45874%,42.721558%);stop-opacity:1;"/>
<stop offset="0.828125" style="stop-color:rgb(88.861084%,76.696777%,42.547607%);stop-opacity:1;"/>
<stop offset="0.832031" style="stop-color:rgb(89.11438%,76.933289%,42.372131%);stop-opacity:1;"/>
<stop offset="0.835937" style="stop-color:rgb(89.369202%,77.171326%,42.198181%);stop-opacity:1;"/>
<stop offset="0.839844" style="stop-color:rgb(89.624023%,77.409363%,42.022705%);stop-opacity:1;"/>
<stop offset="0.84375" style="stop-color:rgb(89.878845%,77.6474%,41.848755%);stop-opacity:1;"/>
<stop offset="0.847656" style="stop-color:rgb(90.132141%,77.883911%,41.673279%);stop-opacity:1;"/>
<stop offset="0.851562" style="stop-color:rgb(90.386963%,78.121948%,41.499329%);stop-opacity:1;"/>
<stop offset="0.855469" style="stop-color:rgb(90.641785%,78.359985%,41.323853%);stop-opacity:1;"/>
<stop offset="0.859375" style="stop-color:rgb(90.896606%,78.598022%,41.149902%);stop-opacity:1;"/>
<stop offset="0.863281" style="stop-color:rgb(91.151428%,78.83606%,40.974426%);stop-opacity:1;"/>
<stop offset="0.867187" style="stop-color:rgb(91.40625%,79.074097%,40.800476%);stop-opacity:1;"/>
<stop offset="0.871094" style="stop-color:rgb(91.659546%,79.310608%,40.625%);stop-opacity:1;"/>
<stop offset="0.875" style="stop-color:rgb(91.914368%,79.548645%,40.449524%);stop-opacity:1;"/>
<stop offset="0.878906" style="stop-color:rgb(92.169189%,79.786682%,40.274048%);stop-opacity:1;"/>
<stop offset="0.882812" style="stop-color:rgb(92.424011%,80.024719%,40.100098%);stop-opacity:1;"/>
<stop offset="0.886719" style="stop-color:rgb(92.678833%,80.26123%,39.924622%);stop-opacity:1;"/>
<stop offset="0.890625" style="stop-color:rgb(92.933655%,80.499268%,39.750671%);stop-opacity:1;"/>
<stop offset="0.894531" style="stop-color:rgb(93.186951%,80.737305%,39.575195%);stop-opacity:1;"/>
<stop offset="0.898437" style="stop-color:rgb(93.441772%,80.975342%,39.401245%);stop-opacity:1;"/>
<stop offset="0.902344" style="stop-color:rgb(93.696594%,81.213379%,39.225769%);stop-opacity:1;"/>
<stop offset="0.90625" style="stop-color:rgb(93.951416%,81.451416%,39.051819%);stop-opacity:1;"/>
<stop offset="0.910156" style="stop-color:rgb(94.204712%,81.687927%,38.876343%);stop-opacity:1;"/>
<stop offset="0.914062" style="stop-color:rgb(94.459534%,81.925964%,38.702393%);stop-opacity:1;"/>
<stop offset="0.917969" style="stop-color:rgb(94.714355%,82.164001%,38.526917%);stop-opacity:1;"/>
<stop offset="0.921875" style="stop-color:rgb(94.969177%,82.402039%,38.352966%);stop-opacity:1;"/>
<stop offset="0.925781" style="stop-color:rgb(95.223999%,82.63855%,38.17749%);stop-opacity:1;"/>
<stop offset="0.929687" style="stop-color:rgb(95.478821%,82.876587%,38.00354%);stop-opacity:1;"/>
<stop offset="0.933594" style="stop-color:rgb(95.732117%,83.114624%,37.828064%);stop-opacity:1;"/>
<stop offset="0.9375" style="stop-color:rgb(95.986938%,83.352661%,37.654114%);stop-opacity:1;"/>
<stop offset="0.941406" style="stop-color:rgb(96.24176%,83.589172%,37.478638%);stop-opacity:1;"/>
<stop offset="0.945312" style="stop-color:rgb(96.496582%,83.827209%,37.304688%);stop-opacity:1;"/>
<stop offset="0.949219" style="stop-color:rgb(96.751404%,84.065247%,37.129211%);stop-opacity:1;"/>
<stop offset="0.953125" style="stop-color:rgb(97.006226%,84.303284%,36.955261%);stop-opacity:1;"/>
<stop offset="0.957031" style="stop-color:rgb(97.259521%,84.541321%,36.779785%);stop-opacity:1;"/>
<stop offset="0.960937" style="stop-color:rgb(97.514343%,84.779358%,36.605835%);stop-opacity:1;"/>
<stop offset="0.964844" style="stop-color:rgb(97.769165%,85.015869%,36.430359%);stop-opacity:1;"/>
<stop offset="0.96875" style="stop-color:rgb(98.023987%,85.253906%,36.256409%);stop-opacity:1;"/>
<stop offset="0.972656" style="stop-color:rgb(98.277283%,85.491943%,36.080933%);stop-opacity:1;"/>
<stop offset="0.976562" style="stop-color:rgb(98.532104%,85.72998%,35.905457%);stop-opacity:1;"/>
<stop offset="0.980469" style="stop-color:rgb(98.786926%,85.966492%,35.72998%);stop-opacity:1;"/>
<stop offset="0.984375" style="stop-color:rgb(99.041748%,86.204529%,35.55603%);stop-opacity:1;"/>
<stop offset="0.988281" style="stop-color:rgb(99.29657%,86.442566%,35.380554%);stop-opacity:1;"/>
<stop offset="0.992187" style="stop-color:rgb(99.551392%,86.680603%,35.206604%);stop-opacity:1;"/>
<stop offset="0.996094" style="stop-color:rgb(99.775696%,86.889648%,35.05249%);stop-opacity:1;"/>
<stop offset="1" style="stop-color:rgb(100%,87.098694%,34.899902%);stop-opacity:1;"/>
</linearGradient>
<clipPath id="clip3">
  <path d="M 119.015625 367.449219 L 370.953125 367.449219 L 370.953125 486.199219 L 119.015625 486.199219 Z M 119.015625 367.449219 "/>
</clipPath>
</defs>
<g id="surface1">
<g clip-path="url(#clip1)" clip-rule="nonzero">
<g clip-path="url(#clip2)" clip-rule="nonzero">
<path style=" stroke:none;fill-rule:nonzero;fill:url(#linear0);" d="M 62.210938 48.042969 L 62.210938 564.042969 L 723.75 564.042969 L 723.75 48.042969 Z M 62.210938 48.042969 "/>
</g>
</g>
<path style=" stroke:none;fill-rule:nonzero;fill:rgb(34.899902%,26.269531%,79.60968%);fill-opacity:1;" d="M 654.546875 316.195312 C 657.667969 313.761719 660.574219 310.855469 663.226562 307.394531 C 700.058594 259.277344 615.699219 216.382812 583.542969 207.089844 C 575.285156 204.699219 566.019531 203.839844 556.273438 204.097656 C 556.292969 204.214844 556.300781 204.328125 556.320312 204.449219 C 556.308594 204.449219 556.296875 204.449219 556.285156 204.449219 L 555.972656 204.457031 L 555.925781 204.152344 C 555.082031 198.6875 552.859375 193.4375 549.5 188.972656 C 549.417969 188.863281 549.328125 188.75 549.234375 188.640625 L 549.027344 188.386719 L 549.042969 188.242188 C 551.085938 170.75 545.65625 154.136719 535.214844 145.90625 C 529.644531 141.644531 523.925781 138.492188 517.742188 136.265625 L 517.675781 136.238281 L 517.621094 136.1875 C 507.941406 127.035156 493.027344 125.109375 482.210938 125.109375 C 473.234375 125.109375 463.410156 126.460938 454.546875 128.910156 C 436.695312 133.851562 430.871094 142.195312 430.242188 146.351562 C 430.125 147.117188 430.242188 147.503906 430.335938 147.621094 L 430.875 147.785156 L 430.445312 148.199219 C 429.578125 149.03125 428.902344 149.75 428.304688 150.445312 C 423.082031 156.617188 421.179688 161.734375 422.636719 165.664062 C 424.0625 169.5 428.621094 171.503906 432.097656 172.050781 L 432.398438 172.101562 L 432.394531 172.410156 C 432.367188 173.390625 432.351562 174.371094 432.347656 175.34375 L 432.347656 175.613281 L 432.082031 175.683594 C 426.011719 177.234375 420.773438 180.300781 417.320312 184.3125 C 414.226562 187.902344 412.277344 192.445312 411.671875 197.4375 C 410.703125 205.433594 413.238281 213.867188 418.453125 219.996094 C 422.945312 225.277344 429.523438 229.0625 436.492188 230.378906 L 436.710938 230.417969 L 436.765625 230.640625 C 436.929688 231.289062 437.097656 231.9375 437.273438 232.582031 C 437.964844 235.113281 439.007812 237.734375 440.375 240.375 L 440.519531 240.660156 L 440.253906 240.835938 C 440.25 240.839844 440.238281 240.84375 440.230469 240.847656 C 440.175781 240.742188 440.117188 240.640625 440.0625 240.535156 C 438.609375 241.488281 437.542969 242.296875 436.933594 242.902344 C 433.75 244.03125 430.722656 245.199219 428.035156 246.273438 C 411.722656 253.074219 401.527344 270.078125 396.089844 285.71875 C 390.652344 300 385.898438 319.71875 372.980469 328.5625 C 360.167969 336.894531 343.738281 339.1875 328.804688 341.128906 C 328.796875 341.25 328.78125 341.367188 328.765625 341.484375 C 328.4375 341.53125 328.097656 341.578125 327.769531 341.617188 L 326.132812 341.828125 C 325.804688 341.875 325.484375 341.925781 325.160156 341.972656 C 325.175781 341.847656 325.191406 341.730469 325.207031 341.609375 C 311.226562 343.609375 297.296875 345.757812 285.976562 355.082031 C 279 360.738281 274.304688 368.175781 272.75 376.058594 C 272.332031 376.09375 271.847656 376.136719 271.292969 376.191406 C 271.621094 376.277344 271.949219 376.371094 272.273438 376.457031 C 268.921875 376.761719 266.019531 377.183594 263.574219 377.71875 C 263.320312 377.652344 263.0625 377.582031 262.8125 377.515625 C 257.96875 378.664062 253.390625 380.6875 253.269531 384.328125 C 253.25 384.902344 253.347656 385.628906 253.523438 386.457031 C 253.546875 386.570312 253.585938 386.6875 253.609375 386.800781 L 251.65625 386.933594 C 248.621094 387.136719 245.484375 387.347656 242.636719 387.6875 L 242.546875 387.699219 L 242.472656 387.667969 C 214.347656 376.96875 193.542969 369.394531 189.46875 368.378906 C 188.949219 368.25 188.296875 368.179688 187.539062 368.179688 C 173.007812 368.179688 123.847656 391.355469 119.921875 401.996094 C 119.441406 403.292969 119.664062 404.320312 120.609375 405.125 C 130.789062 413.828125 298.089844 485.851562 315.011719 485.851562 C 315.300781 485.851562 315.535156 485.828125 315.71875 485.78125 C 325.457031 483.445312 366.832031 455.136719 370.046875 443.355469 C 370.421875 441.988281 370.234375 440.96875 369.472656 440.238281 C 368.285156 439.082031 362.625 435.914062 342.429688 427.347656 L 342.496094 427.019531 C 342.519531 427.019531 342.539062 427.019531 342.566406 427.019531 C 358.105469 426.882812 373.894531 423.78125 387.933594 419.011719 C 392.875 417.421875 397.625 415.597656 402.230469 413.554688 C 399.226562 419.035156 397.753906 423.902344 397.617188 428.199219 C 397.734375 428.164062 397.859375 428.148438 397.972656 428.125 C 397.972656 428.152344 397.96875 428.179688 397.96875 428.207031 L 397.957031 428.472656 L 397.703125 428.535156 C 394.546875 429.339844 392.300781 430.996094 390.425781 433.910156 C 389.816406 434.902344 389.285156 436.039062 388.84375 437.273438 L 388.792969 437.417969 L 388.65625 437.476562 C 384.863281 439.148438 381.324219 441.296875 378.128906 443.859375 C 371.390625 449.273438 370.707031 455.675781 370.902344 459.011719 C 371.191406 464.046875 373.578125 467.757812 375.675781 469.074219 C 381.492188 472.734375 400.316406 475.820312 416.765625 475.820312 C 436.445312 475.820312 448.90625 471.753906 450.949219 464.660156 L 450.996094 464.515625 C 451.09375 464.59375 451.191406 464.683594 451.289062 464.757812 C 452.625 465.746094 453.984375 466.4375 455.359375 466.695312 C 459.578125 467.539062 468.613281 469.070312 474.527344 468.722656 C 484.777344 475.261719 495.746094 479.832031 505.246094 481.132812 C 561.070312 490.269531 635.050781 474.820312 666.515625 426.074219 C 688.023438 392.871094 676.472656 350.90625 654.546875 316.195312 "/>
<path style=" stroke:none;fill-rule:nonzero;fill:rgb(96.469116%,52.159119%,42.749023%);fill-opacity:1;" d="M 257.414062 403.074219 C 253.328125 403.074219 247.171875 405.523438 244.238281 408.316406 C 244.128906 408.425781 243.980469 408.476562 243.835938 408.476562 C 243.679688 408.476562 243.527344 408.417969 243.410156 408.300781 C 243.191406 408.066406 243.199219 407.691406 243.433594 407.46875 C 246.601562 404.453125 253.003906 401.902344 257.414062 401.902344 C 257.742188 401.902344 258 402.164062 258 402.488281 C 258 402.8125 257.742188 403.074219 257.414062 403.074219 Z M 238.007812 400.6875 C 231.960938 403.167969 226.539062 405.785156 221.417969 408.691406 C 221.328125 408.746094 221.226562 408.769531 221.132812 408.769531 C 220.925781 408.769531 220.726562 408.660156 220.617188 408.472656 C 220.457031 408.195312 220.558594 407.832031 220.839844 407.671875 C 226 404.742188 231.472656 402.101562 237.554688 399.601562 C 240.625 398.289062 243.53125 397.683594 246.902344 396.988281 C 248.046875 396.753906 249.242188 396.507812 250.496094 396.21875 C 250.8125 396.144531 251.125 396.339844 251.195312 396.65625 C 251.269531 396.972656 251.070312 397.285156 250.757812 397.359375 C 249.492188 397.652344 248.292969 397.898438 247.140625 398.136719 C 243.835938 398.824219 240.984375 399.414062 238.007812 400.6875 Z M 233.183594 393.890625 C 236.917969 392.78125 241.152344 391.527344 245.761719 391.527344 C 246.085938 391.527344 246.347656 391.789062 246.347656 392.113281 C 246.347656 392.433594 246.085938 392.699219 245.761719 392.699219 C 241.320312 392.699219 237.175781 393.929688 233.519531 395.011719 C 233.460938 395.03125 233.40625 395.035156 233.351562 395.035156 C 233.097656 395.035156 232.863281 394.871094 232.789062 394.621094 C 232.699219 394.308594 232.875 393.984375 233.183594 393.890625 Z M 253.523438 386.457031 C 249.847656 386.710938 246.042969 386.925781 242.59375 387.339844 C 238.003906 387.886719 234.0625 388.785156 231.957031 390.589844 C 230.542969 391.804688 230.546875 395.621094 229.007812 396.339844 C 227.472656 397.066406 224.425781 398.636719 221.640625 400.777344 C 217.761719 403.972656 212.398438 408.066406 217.96875 410.625 C 213.765625 413.488281 210.507812 416.839844 212.027344 419.273438 C 214.289062 422.890625 219.792969 418.929688 227.046875 415.398438 C 234.296875 411.867188 239.101562 409.582031 240.007812 410.492188 C 240.914062 411.398438 222.453125 424.351562 226.15625 427.367188 C 229.859375 430.390625 236.304688 426.824219 239.046875 425.175781 C 249.472656 420.785156 253.996094 409.941406 266.617188 413.234375 C 272.515625 414.601562 265.65625 417.921875 261.554688 422.488281 C 261.269531 422.808594 260.996094 423.132812 260.742188 423.460938 C 260.234375 424.121094 259.800781 424.804688 259.484375 425.507812 C 256.742188 431.625 264.136719 433.398438 271.554688 430.175781 C 272.722656 429.667969 274.019531 429.035156 275.378906 428.320312 C 275.804688 428.097656 276.234375 427.863281 276.667969 427.621094 C 278.964844 426.347656 281.386719 424.832031 283.71875 423.15625 C 269.96875 420.550781 255.570312 395.929688 253.523438 386.457031 "/>
<path style=" stroke:none;fill-rule:nonzero;fill:rgb(96.469116%,52.159119%,42.749023%);fill-opacity:1;" d="M 421.949219 448.378906 C 418.148438 448.070312 410.851562 448.40625 407.570312 451.691406 C 406.324219 452.9375 405.773438 454.527344 405.929688 456.410156 C 405.957031 456.730469 405.710938 457.011719 405.390625 457.039062 C 405.375 457.039062 405.359375 457.039062 405.34375 457.039062 C 405.039062 457.039062 404.785156 456.8125 404.761719 456.503906 C 404.574219 454.265625 405.242188 452.363281 406.742188 450.863281 C 410.097656 447.511719 417.085938 446.800781 422.042969 447.210938 C 422.363281 447.238281 422.609375 447.523438 422.582031 447.84375 C 422.550781 448.167969 422.25 448.40625 421.949219 448.378906 Z M 394.796875 450.042969 C 394.714844 450.289062 394.484375 450.445312 394.238281 450.445312 C 394.175781 450.445312 394.113281 450.4375 394.054688 450.414062 C 393.746094 450.3125 393.578125 449.984375 393.683594 449.675781 C 397.007812 439.613281 405.824219 437.976562 414.859375 437.707031 C 415.183594 437.714844 415.449219 437.949219 415.460938 438.273438 C 415.472656 438.59375 415.214844 438.867188 414.890625 438.878906 C 406.285156 439.132812 397.890625 440.664062 394.796875 450.042969 Z M 402.957031 428.359375 C 406.6875 427.601562 411.011719 427.828125 415.476562 429 C 415.792969 429.082031 415.980469 429.402344 415.894531 429.714844 C 415.824219 429.980469 415.585938 430.148438 415.328125 430.148438 C 415.277344 430.148438 415.230469 430.144531 415.179688 430.128906 C 410.890625 429.003906 406.742188 428.789062 403.191406 429.507812 C 402.867188 429.570312 402.5625 429.367188 402.5 429.050781 C 402.429688 428.734375 402.636719 428.421875 402.957031 428.359375 Z M 432.953125 425.15625 C 428.875 424.097656 424.984375 422.867188 421.136719 422.101562 C 415 420.800781 403.066406 418.769531 400.441406 427.136719 L 400.804688 427.65625 C 399.714844 427.773438 398.648438 427.933594 397.621094 428.191406 C 394.839844 428.898438 392.300781 430.34375 390.125 433.722656 C 389.480469 434.777344 388.945312 435.945312 388.515625 437.15625 C 387.664062 439.550781 387.28125 442.132812 387.59375 444.519531 C 387.644531 444.910156 387.707031 445.304688 387.792969 445.683594 C 388.222656 448.140625 390.175781 450.476562 391.101562 452.773438 C 390.148438 454.644531 389.160156 456.558594 388.257812 458.621094 C 387.234375 460.820312 384.011719 465.613281 386.855469 467.1875 C 388.777344 468.539062 392.894531 467.292969 394.621094 466.246094 C 398.070312 464.148438 398.394531 460.804688 400.921875 458.484375 C 401.304688 458.21875 402.472656 457.820312 404.097656 457.351562 C 404.03125 457.726562 403.976562 458.121094 403.941406 458.535156 C 403.863281 461.253906 405.308594 464.152344 405.507812 466.550781 C 405.703125 468.949219 405.152344 473.21875 407.945312 474.195312 C 411.066406 475.445312 414.015625 470.980469 414.417969 468.53125 C 415.320312 464.835938 413.925781 462.535156 417.320312 459.84375 C 422.71875 455.777344 429.554688 458.226562 435.398438 459.554688 C 439.917969 460.453125 444.285156 461.445312 448.65625 462.390625 C 443.128906 456.582031 438.355469 446.519531 435.773438 441.359375 C 433.777344 436.699219 432.65625 430.730469 432.953125 425.15625 "/>
<path style=" stroke:none;fill-rule:nonzero;fill:rgb(96.469116%,52.159119%,42.749023%);fill-opacity:1;" d="M 486.023438 268.476562 C 484.851562 268.644531 483.734375 268.769531 482.679688 268.84375 C 483.734375 268.769531 484.851562 268.644531 486.023438 268.476562 "/>
<path style=" stroke:none;fill-rule:nonzero;fill:rgb(96.469116%,52.159119%,42.749023%);fill-opacity:1;" d="M 460.59375 235.125 C 458.738281 235.570312 456.046875 235.695312 453.574219 235.695312 C 450.386719 235.695312 447.574219 235.484375 447.367188 235.472656 C 447.042969 235.445312 446.804688 235.164062 446.828125 234.839844 C 446.847656 234.519531 447.15625 234.28125 447.453125 234.304688 C 447.546875 234.308594 456.25 234.964844 460.355469 233.972656 C 464.453125 233.265625 470.039062 230.335938 471.882812 227.113281 C 472.042969 226.828125 472.398438 226.738281 472.679688 226.898438 C 472.964844 227.058594 473.058594 227.414062 472.898438 227.695312 C 470.824219 231.320312 464.902344 234.371094 460.59375 235.125 Z M 444.945312 225.414062 C 443.273438 222.972656 443.207031 219.28125 444.757812 215.292969 C 446.117188 211.886719 452.085938 201.539062 452.34375 201.101562 C 452.503906 200.820312 452.859375 200.726562 453.144531 200.886719 C 453.421875 201.046875 453.519531 201.40625 453.355469 201.6875 C 453.292969 201.792969 447.179688 212.398438 445.847656 215.722656 C 444.441406 219.339844 444.464844 222.632812 445.914062 224.75 C 447.238281 226.6875 449.683594 227.667969 453.1875 227.667969 C 453.515625 227.667969 453.773438 227.929688 453.773438 228.253906 C 453.773438 228.578125 453.515625 228.839844 453.1875 228.839844 C 449.269531 228.839844 446.496094 227.6875 444.945312 225.414062 Z M 463.296875 188.839844 C 466.246094 188.347656 490.070312 185.195312 490.695312 187.832031 C 490.832031 188.40625 490.273438 189.074219 489.238281 189.808594 C 487.941406 193.472656 485.375 196.859375 482.484375 199.46875 C 486.246094 199.09375 489.378906 199.160156 489.570312 199.71875 C 489.929688 200.796875 482.257812 202.664062 480.566406 202.855469 C 482.324219 204.496094 482.300781 207.578125 480.117188 209.246094 C 478.300781 210.640625 475.515625 210.839844 473.5 209.824219 C 471.90625 209.019531 470.523438 206.546875 470.640625 205.558594 C 470.703125 205.0625 468.230469 205.796875 467.617188 205.597656 C 467.164062 205.453125 466.785156 204.539062 468.875 203.199219 C 467.039062 201.929688 465.859375 200.390625 465.132812 199.039062 C 462.984375 199.21875 461.101562 198.589844 460.082031 196.0625 C 459.0625 193.957031 460.347656 189.335938 463.296875 188.839844 Z M 528.050781 243.238281 C 526.625 241.09375 526.15625 238.445312 526.253906 235.609375 C 522.882812 235.648438 519.527344 234.894531 516.371094 233.550781 C 506.515625 240.929688 491.695312 244.832031 480.945312 245.054688 C 480.652344 246.59375 478.253906 247.988281 475.230469 247.84375 C 471.78125 247.679688 470.097656 245.628906 471.09375 242.902344 C 471.9375 240.617188 473.933594 240.707031 478.246094 242.195312 C 479.582031 242.65625 480.378906 243.253906 480.746094 243.882812 C 491.078125 243.671875 505.421875 239.855469 515.070312 232.960938 C 510.9375 230.964844 507.191406 228 504.289062 224.589844 C 498.976562 218.347656 496.457031 209.785156 497.429688 201.765625 C 498.015625 196.917969 499.875 192.265625 503.160156 188.445312 C 505.746094 185.449219 509.136719 183.125 512.898438 181.484375 C 511.953125 176.046875 510.5 169.8125 508.28125 163.777344 C 503.988281 174.097656 486.847656 169.976562 484.15625 170.988281 C 481.4375 172.011719 480.988281 181.5 469.496094 180.820312 C 462.195312 180.390625 459.980469 176.742188 455.902344 178.78125 C 451.316406 181.335938 446.964844 186.753906 439.488281 182.671875 C 432.015625 178.589844 441.117188 170.960938 433.980469 172.492188 C 433.644531 172.566406 432.9375 172.542969 432.042969 172.398438 C 432.015625 173.382812 432 174.363281 431.996094 175.339844 C 431.972656 180.199219 432.183594 184.921875 432.214844 188.878906 C 432.21875 189.480469 432.222656 190.171875 432.234375 190.929688 C 435.515625 190.078125 443.988281 190.03125 446.988281 190.695312 C 450.683594 191.519531 450.058594 195.179688 449.03125 197.285156 C 448.675781 198.167969 448.226562 198.757812 447.710938 199.136719 C 447.992188 201.367188 447.65625 203.671875 446.636719 204.859375 C 447.015625 205.136719 447.214844 205.339844 447.183594 205.429688 C 446.9375 206.054688 440.972656 203.917969 441.226562 204.683594 C 442.042969 207.101562 441.488281 209.472656 439.414062 210.609375 C 437.433594 211.695312 435.46875 211.492188 433.613281 210.160156 C 433.394531 210.003906 433.207031 209.800781 433.035156 209.582031 C 433.617188 216.230469 434.636719 223.597656 436.425781 230.726562 C 436.589844 231.378906 436.757812 232.027344 436.933594 232.675781 C 437.65625 235.324219 438.738281 237.984375 440.0625 240.539062 C 444.941406 249.957031 453.121094 257.933594 458.878906 258.457031 C 461.0625 258.65625 463.367188 258.671875 465.761719 258.515625 C 482.589844 257.445312 503.746094 248.179688 516.039062 237.8125 C 516.039062 237.8125 516.042969 237.808594 516.042969 237.808594 C 515.195312 239.117188 514.316406 240.402344 513.429688 241.660156 C 508.765625 248.292969 504.015625 254.972656 498.222656 260.683594 C 495.570312 263.292969 492.789062 265.660156 489.878906 267.792969 C 494.054688 266.949219 498.691406 265.683594 503.445312 264.191406 C 512.03125 259.476562 521.316406 252.578125 531.011719 245.917969 C 529.8125 245.265625 528.796875 244.402344 528.050781 243.238281 "/>
<path style=" stroke:none;fill-rule:nonzero;fill:rgb(96.469116%,52.159119%,42.749023%);fill-opacity:1;" d="M 489.878906 267.800781 C 489.878906 267.800781 489.878906 267.792969 489.886719 267.792969 C 489.457031 267.882812 489.035156 267.960938 488.613281 268.039062 C 489.035156 267.960938 489.449219 267.886719 489.878906 267.800781 "/>
<path style=" stroke:none;fill-rule:nonzero;fill:rgb(96.469116%,52.159119%,42.749023%);fill-opacity:1;" d="M 438.847656 201.5625 C 437.035156 199.542969 435.28125 197.152344 433.59375 195.132812 C 433.0625 194.8125 432.632812 194.507812 432.269531 194.207031 C 432.3125 196.59375 432.390625 199.390625 432.546875 202.464844 C 434.046875 201.109375 436.429688 201.054688 438.847656 201.5625 "/>
<path style=" stroke:none;fill-rule:nonzero;fill:rgb(89.408875%,28.62854%,28.62854%);fill-opacity:1;" d="M 422.042969 447.210938 C 417.085938 446.800781 410.097656 447.511719 406.742188 450.863281 C 405.242188 452.363281 404.574219 454.261719 404.761719 456.503906 C 404.785156 456.8125 405.039062 457.039062 405.34375 457.039062 C 405.359375 457.039062 405.375 457.039062 405.390625 457.039062 C 405.710938 457.011719 405.957031 456.730469 405.929688 456.410156 C 405.773438 454.527344 406.324219 452.941406 407.570312 451.691406 C 410.851562 448.40625 418.148438 448.070312 421.949219 448.378906 C 422.25 448.40625 422.550781 448.167969 422.582031 447.84375 C 422.609375 447.523438 422.363281 447.238281 422.042969 447.210938 "/>
<path style=" stroke:none;fill-rule:nonzero;fill:rgb(89.408875%,28.62854%,28.62854%);fill-opacity:1;" d="M 415.457031 438.273438 C 415.449219 437.949219 415.183594 437.714844 414.859375 437.707031 C 405.824219 437.976562 397.007812 439.613281 393.679688 449.675781 C 393.578125 449.984375 393.746094 450.3125 394.054688 450.414062 C 394.113281 450.4375 394.171875 450.445312 394.238281 450.445312 C 394.480469 450.445312 394.707031 450.289062 394.792969 450.042969 C 397.890625 440.664062 406.285156 439.132812 414.890625 438.878906 C 415.214844 438.867188 415.46875 438.59375 415.457031 438.273438 "/>
<path style=" stroke:none;fill-rule:nonzero;fill:rgb(89.408875%,28.62854%,28.62854%);fill-opacity:1;" d="M 403.191406 429.507812 C 406.738281 428.789062 410.890625 429.003906 415.179688 430.128906 C 415.230469 430.144531 415.277344 430.148438 415.324219 430.148438 C 415.585938 430.148438 415.824219 429.980469 415.894531 429.714844 C 415.976562 429.402344 415.789062 429.082031 415.476562 429 C 411.011719 427.828125 406.683594 427.601562 402.953125 428.359375 C 402.636719 428.421875 402.429688 428.734375 402.496094 429.050781 C 402.5625 429.367188 402.867188 429.570312 403.191406 429.507812 "/>
<path style=" stroke:none;fill-rule:nonzero;fill:rgb(89.408875%,28.62854%,28.62854%);fill-opacity:1;" d="M 516.039062 237.8125 C 503.746094 248.179688 482.589844 257.445312 465.761719 258.515625 C 466.050781 259.28125 466.390625 260.027344 466.777344 260.75 C 467.183594 261.492188 467.640625 262.207031 468.152344 262.886719 C 468.664062 263.566406 469.230469 264.207031 469.855469 264.804688 C 470.476562 265.394531 471.160156 265.945312 471.894531 266.433594 C 472.628906 266.925781 473.425781 267.355469 474.273438 267.714844 C 475.125 268.078125 476.03125 268.375 476.996094 268.589844 C 477.335938 268.667969 477.699219 268.730469 478.082031 268.777344 C 478.160156 268.789062 478.234375 268.796875 478.320312 268.808594 C 478.699219 268.851562 479.097656 268.882812 479.511719 268.902344 C 479.554688 268.90625 479.601562 268.90625 479.640625 268.90625 C 480.046875 268.925781 480.46875 268.929688 480.90625 268.925781 C 480.960938 268.921875 481.015625 268.925781 481.074219 268.921875 C 481.546875 268.910156 482.035156 268.894531 482.539062 268.855469 C 482.585938 268.851562 482.628906 268.851562 482.679688 268.847656 C 483.734375 268.773438 484.847656 268.652344 486.023438 268.476562 C 486.046875 268.472656 486.074219 268.472656 486.101562 268.46875 C 487.304688 268.289062 488.566406 268.066406 489.875 267.800781 C 492.78125 265.660156 495.570312 263.292969 498.222656 260.683594 C 504.015625 254.976562 508.765625 248.300781 513.429688 241.664062 C 514.316406 240.402344 515.195312 239.117188 516.042969 237.808594 C 516.042969 237.808594 516.042969 237.808594 516.039062 237.8125 "/>
<path style=" stroke:none;fill-rule:nonzero;fill:rgb(89.408875%,28.62854%,28.62854%);fill-opacity:1;" d="M 468.875 203.199219 C 469.640625 202.710938 470.726562 202.167969 472.265625 201.582031 C 475.03125 200.527344 479.023438 199.8125 482.484375 199.46875 C 485.375 196.859375 487.941406 193.476562 489.238281 189.808594 C 485.5 192.449219 475.515625 195.84375 469.636719 197.910156 C 468.128906 198.441406 466.574219 198.917969 465.132812 199.039062 C 465.859375 200.390625 467.042969 201.929688 468.875 203.199219 "/>
<path style=" stroke:none;fill-rule:nonzero;fill:rgb(89.408875%,28.62854%,28.62854%);fill-opacity:1;" d="M 430.921875 192.320312 L 430.925781 192.324219 Z M 430.921875 192.320312 "/>
<path style=" stroke:none;fill-rule:nonzero;fill:rgb(89.408875%,28.62854%,28.62854%);fill-opacity:1;" d="M 447.714844 199.136719 C 445.769531 200.574219 442.832031 198.949219 439.863281 197.910156 C 437.007812 196.902344 434.984375 195.980469 433.59375 195.132812 C 435.28125 197.152344 437.035156 199.542969 438.847656 201.5625 C 442.09375 202.25 445.375 203.945312 446.644531 204.859375 C 447.660156 203.671875 447.992188 201.367188 447.714844 199.136719 "/>
<path style=" stroke:none;fill-rule:nonzero;fill:rgb(89.408875%,28.62854%,28.62854%);fill-opacity:1;" d="M 453.773438 228.253906 C 453.773438 227.929688 453.507812 227.667969 453.1875 227.667969 C 449.683594 227.667969 447.234375 226.6875 445.910156 224.75 C 444.464844 222.632812 444.441406 219.339844 445.847656 215.722656 C 447.175781 212.398438 453.289062 201.792969 453.355469 201.6875 C 453.519531 201.40625 453.421875 201.046875 453.136719 200.886719 C 452.859375 200.726562 452.503906 200.820312 452.335938 201.101562 C 452.085938 201.539062 446.117188 211.886719 444.753906 215.292969 C 443.199219 219.28125 443.269531 222.972656 444.941406 225.414062 C 446.496094 227.6875 449.269531 228.839844 453.183594 228.839844 C 453.507812 228.839844 453.773438 228.578125 453.773438 228.253906 "/>
<path style=" stroke:none;fill-rule:nonzero;fill:rgb(89.408875%,28.62854%,28.62854%);fill-opacity:1;" d="M 472.898438 227.695312 C 473.058594 227.414062 472.964844 227.058594 472.679688 226.898438 C 472.398438 226.738281 472.042969 226.828125 471.878906 227.113281 C 470.039062 230.335938 464.453125 233.265625 460.355469 233.972656 C 456.25 234.964844 447.539062 234.308594 447.453125 234.304688 C 447.15625 234.28125 446.847656 234.519531 446.828125 234.839844 C 446.800781 235.164062 447.042969 235.445312 447.363281 235.472656 C 447.566406 235.484375 450.386719 235.695312 453.570312 235.695312 C 456.039062 235.695312 458.738281 235.570312 460.59375 235.125 C 464.902344 234.371094 470.824219 231.320312 472.898438 227.695312 "/>
<path style=" stroke:none;fill-rule:nonzero;fill:rgb(89.408875%,28.62854%,28.62854%);fill-opacity:1;" d="M 257.414062 401.902344 C 253.003906 401.902344 246.601562 404.453125 243.433594 407.46875 C 243.199219 407.691406 243.191406 408.0625 243.410156 408.300781 C 243.527344 408.417969 243.679688 408.476562 243.835938 408.476562 C 243.980469 408.476562 244.125 408.421875 244.238281 408.316406 C 247.171875 405.523438 253.328125 403.074219 257.414062 403.074219 C 257.734375 403.074219 258 402.808594 258 402.488281 C 258 402.164062 257.742188 401.902344 257.414062 401.902344 "/>
<path style=" stroke:none;fill-rule:nonzero;fill:rgb(89.408875%,28.62854%,28.62854%);fill-opacity:1;" d="M 250.757812 397.363281 C 251.070312 397.289062 251.269531 396.972656 251.195312 396.65625 C 251.121094 396.339844 250.8125 396.144531 250.496094 396.21875 C 249.242188 396.507812 248.046875 396.753906 246.902344 396.992188 C 243.53125 397.6875 240.625 398.289062 237.554688 399.605469 C 231.472656 402.101562 226.007812 404.742188 220.839844 407.675781 C 220.558594 407.832031 220.457031 408.195312 220.617188 408.472656 C 220.726562 408.664062 220.925781 408.769531 221.132812 408.769531 C 221.226562 408.769531 221.328125 408.746094 221.417969 408.691406 C 226.542969 405.789062 231.960938 403.167969 238.007812 400.6875 C 240.984375 399.414062 243.835938 398.824219 247.140625 398.140625 C 248.292969 397.898438 249.492188 397.652344 250.757812 397.363281 "/>
<path style=" stroke:none;fill-rule:nonzero;fill:rgb(89.408875%,28.62854%,28.62854%);fill-opacity:1;" d="M 233.351562 395.035156 C 233.40625 395.035156 233.460938 395.027344 233.519531 395.011719 C 237.175781 393.929688 241.320312 392.695312 245.761719 392.695312 C 246.085938 392.695312 246.347656 392.433594 246.347656 392.109375 C 246.347656 391.789062 246.085938 391.523438 245.761719 391.523438 C 241.152344 391.523438 236.917969 392.777344 233.183594 393.886719 C 232.871094 393.976562 232.699219 394.304688 232.789062 394.613281 C 232.863281 394.871094 233.097656 395.035156 233.351562 395.035156 "/>
<g clip-path="url(#clip3)" clip-rule="nonzero">
<path style=" stroke:none;fill-rule:nonzero;fill:rgb(99.609375%,95.289612%,87.838745%);fill-opacity:1;" d="M 315.9375 476.667969 C 315.71875 476.71875 315.433594 476.746094 315.105469 476.746094 C 299.164062 476.746094 158.832031 416.761719 126.363281 399.617188 L 126.90625 398.578125 C 159.144531 415.605469 305.34375 477.972656 315.664062 475.527344 C 323.421875 473.667969 352.007812 454.859375 364.460938 441.261719 L 365.328125 442.054688 C 353.191406 455.300781 324.679688 474.570312 315.9375 476.667969 Z M 369.722656 439.980469 C 367.820312 438.144531 357.453125 433.335938 342.566406 427.019531 C 327.972656 427.148438 313.605469 424.648438 301.132812 418.414062 C 298.222656 420.613281 293.78125 422.699219 287.113281 423.34375 C 285.992188 423.449219 284.851562 423.371094 283.710938 423.15625 C 281.386719 424.832031 278.964844 426.347656 276.667969 427.621094 C 279.179688 428.78125 281.191406 430.050781 282.058594 431.449219 C 282.476562 432.195312 282.398438 433.105469 281.859375 434.027344 C 280.453125 436.414062 276.0625 438.886719 271.144531 438.886719 C 270.957031 438.886719 270.769531 438.882812 270.582031 438.878906 C 263.914062 438.617188 247.011719 432.800781 245.84375 429.824219 C 245.660156 429.351562 245.601562 428.550781 246.375 427.417969 C 248.1875 424.761719 253.566406 421.675781 257.785156 421.675781 C 258.621094 421.675781 259.394531 421.789062 260.085938 422.019531 C 260.519531 422.167969 261.019531 422.320312 261.554688 422.488281 C 265.65625 417.921875 272.515625 414.601562 266.617188 413.234375 C 253.996094 409.941406 249.472656 420.785156 239.046875 425.175781 C 236.304688 426.824219 229.859375 430.390625 226.15625 427.367188 C 222.453125 424.351562 240.914062 411.398438 240.007812 410.492188 C 239.101562 409.582031 234.296875 411.867188 227.046875 415.398438 C 219.792969 418.929688 214.289062 422.890625 212.027344 419.273438 C 210.507812 416.839844 213.765625 413.488281 217.96875 410.625 C 212.398438 408.066406 217.761719 403.972656 221.640625 400.777344 C 224.425781 398.636719 227.472656 397.066406 229.007812 396.339844 C 230.546875 395.621094 230.542969 391.804688 231.957031 390.589844 C 234.0625 388.78125 238.003906 387.886719 242.59375 387.339844 C 215.550781 377.046875 193.777344 369.09375 189.558594 368.039062 C 177.308594 364.980469 110.148438 396.644531 120.382812 405.390625 C 130.613281 414.136719 304.253906 488.898438 315.800781 486.125 C 327.34375 483.355469 377.757812 447.75 369.722656 439.980469 "/>
</g>
<path style=" stroke:none;fill-rule:nonzero;fill:rgb(99.609375%,95.289612%,87.838745%);fill-opacity:1;" d="M 260.742188 423.460938 C 260.378906 423.347656 260.023438 423.238281 259.714844 423.132812 C 259.140625 422.945312 258.492188 422.847656 257.785156 422.847656 C 253.976562 422.847656 248.960938 425.707031 247.347656 428.078125 C 246.96875 428.628906 246.824219 429.105469 246.933594 429.398438 C 247.765625 431.519531 263.710938 437.441406 270.625 437.707031 C 275.285156 437.882812 279.589844 435.570312 280.847656 433.433594 C 281.078125 433.042969 281.296875 432.484375 281.054688 432.042969 C 280.234375 430.730469 278.0625 429.476562 275.378906 428.320312 C 274.019531 429.035156 272.722656 429.667969 271.554688 430.175781 C 264.136719 433.398438 256.742188 431.625 259.484375 425.507812 C 259.800781 424.804688 260.234375 424.121094 260.742188 423.460938 "/>
<path style=" stroke:none;fill-rule:nonzero;fill:rgb(99.609375%,95.289612%,87.838745%);fill-opacity:1;" d="M 435.398438 459.554688 C 429.554688 458.230469 422.71875 455.777344 417.320312 459.84375 C 413.925781 462.539062 415.320312 464.839844 414.417969 468.535156 C 414.015625 470.980469 411.066406 475.449219 407.945312 474.199219 C 405.152344 473.21875 405.703125 468.953125 405.507812 466.550781 C 405.308594 464.152344 403.863281 461.257812 403.941406 458.535156 C 403.976562 458.121094 404.03125 457.730469 404.097656 457.351562 C 402.472656 457.820312 401.304688 458.21875 400.921875 458.484375 C 398.394531 460.804688 398.070312 464.148438 394.621094 466.246094 C 392.894531 467.292969 388.777344 468.539062 386.855469 467.1875 C 384.011719 465.613281 387.234375 460.820312 388.257812 458.625 C 389.160156 456.558594 390.148438 454.644531 391.101562 452.773438 C 390.175781 450.484375 388.222656 448.148438 387.792969 445.683594 C 382.386719 446.4375 378.335938 451.398438 375.863281 455.519531 C 375.753906 455.703125 375.5625 455.804688 375.359375 455.804688 C 375.257812 455.804688 375.15625 455.78125 375.0625 455.722656 C 374.785156 455.558594 374.691406 455.195312 374.863281 454.914062 C 378.550781 448.761719 382.941406 445.1875 387.59375 444.519531 C 387.28125 442.132812 387.664062 439.550781 388.515625 437.15625 C 385.015625 438.699219 381.410156 440.773438 377.914062 443.585938 C 366.445312 452.796875 370.523438 466.25 375.492188 469.375 C 386.644531 476.378906 446.304688 482.03125 451.292969 464.753906 C 450.402344 464.089844 449.519531 463.296875 448.65625 462.390625 C 444.285156 461.445312 439.917969 460.453125 435.398438 459.554688 "/>
<path style=" stroke:none;fill-rule:nonzero;fill:rgb(99.609375%,95.289612%,87.838745%);fill-opacity:1;" d="M 266.695312 382.335938 C 267.015625 382.296875 267.238281 382.003906 267.199219 381.675781 C 267.15625 381.355469 266.855469 381.125 266.542969 381.171875 L 265.953125 381.25 C 264.363281 381.457031 262.5625 381.6875 260.953125 381.683594 C 260.652344 381.691406 260.367188 381.9375 260.363281 382.261719 C 260.359375 382.585938 260.621094 382.851562 260.945312 382.855469 C 260.996094 382.855469 261.042969 382.855469 261.089844 382.855469 C 262.742188 382.855469 264.527344 382.621094 266.109375 382.410156 L 266.695312 382.335938 "/>
<path style=" stroke:none;fill-rule:nonzero;fill:rgb(99.609375%,95.289612%,87.838745%);fill-opacity:1;" d="M 262.609375 392.722656 C 262.621094 392.722656 262.632812 392.722656 262.644531 392.722656 C 265.078125 392.59375 267.550781 391.636719 269.941406 390.707031 C 270.242188 390.589844 270.394531 390.25 270.273438 389.949219 C 270.15625 389.644531 269.816406 389.5 269.515625 389.613281 C 267.210938 390.511719 264.832031 391.4375 262.582031 391.550781 C 262.257812 391.570312 262.011719 391.84375 262.023438 392.167969 C 262.042969 392.480469 262.300781 392.722656 262.609375 392.722656 "/>
<path style=" stroke:none;fill-rule:nonzero;fill:rgb(99.609375%,95.289612%,87.838745%);fill-opacity:1;" d="M 268.691406 401.367188 C 268.742188 401.367188 268.796875 401.359375 268.84375 401.34375 C 269.390625 401.191406 269.945312 401.058594 270.492188 400.921875 C 272.167969 400.503906 273.902344 400.074219 275.523438 399.214844 C 275.808594 399.0625 275.917969 398.703125 275.765625 398.421875 C 275.617188 398.132812 275.257812 398.023438 274.972656 398.179688 C 273.480469 398.976562 271.894531 399.363281 270.210938 399.78125 C 269.652344 399.921875 269.09375 400.058594 268.535156 400.214844 C 268.222656 400.296875 268.039062 400.625 268.125 400.933594 C 268.199219 401.195312 268.433594 401.367188 268.691406 401.367188 "/>
<path style=" stroke:none;fill-rule:nonzero;fill:rgb(99.609375%,95.289612%,87.838745%);fill-opacity:1;" d="M 282.890625 407.246094 C 283.199219 407.160156 283.382812 406.839844 283.296875 406.523438 C 283.210938 406.210938 282.890625 406.027344 282.578125 406.113281 C 281.785156 406.335938 281.007812 406.632812 280.179688 406.949219 C 278.941406 407.417969 277.660156 407.90625 276.328125 408.121094 C 276.007812 408.171875 275.792969 408.472656 275.84375 408.792969 C 275.890625 409.082031 276.140625 409.285156 276.421875 409.285156 C 276.453125 409.285156 276.484375 409.285156 276.515625 409.277344 C 277.964844 409.046875 279.304688 408.53125 280.59375 408.042969 C 281.398438 407.734375 282.152344 407.453125 282.890625 407.246094 "/>
<path style=" stroke:none;fill-rule:nonzero;fill:rgb(99.609375%,95.289612%,87.838745%);fill-opacity:1;" d="M 283.835938 417.027344 C 283.886719 417.027344 283.941406 417.019531 283.992188 417.003906 C 284.542969 416.855469 285.09375 416.714844 285.644531 416.578125 C 287.320312 416.164062 289.050781 415.738281 290.671875 414.871094 C 290.953125 414.71875 291.0625 414.363281 290.910156 414.078125 C 290.757812 413.789062 290.40625 413.683594 290.117188 413.835938 C 288.628906 414.632812 287.039062 415.027344 285.363281 415.4375 C 284.800781 415.582031 284.238281 415.71875 283.679688 415.875 C 283.371094 415.960938 283.1875 416.285156 283.273438 416.597656 C 283.347656 416.859375 283.578125 417.027344 283.835938 417.027344 "/>
<path style=" stroke:none;fill-rule:nonzero;fill:rgb(99.609375%,95.289612%,87.838745%);fill-opacity:1;" d="M 436.425781 230.726562 C 434.636719 223.589844 433.621094 216.230469 433.035156 209.578125 C 431.5625 207.671875 431.5 203.523438 432.34375 202.652344 C 432.40625 202.585938 432.476562 202.53125 432.546875 202.464844 C 432.390625 199.386719 432.3125 196.589844 432.273438 194.203125 C 431.441406 193.515625 431.035156 192.890625 430.925781 192.324219 C 430.921875 192.324219 430.921875 192.320312 430.921875 192.320312 C 430.875 192.089844 430.875 191.867188 430.921875 191.65625 C 430.976562 191.367188 431.464844 191.125 432.234375 190.925781 C 432.230469 190.167969 432.222656 189.480469 432.21875 188.878906 C 432.183594 184.921875 431.976562 180.199219 432 175.339844 C 426.191406 176.828125 420.785156 179.746094 417.054688 184.078125 C 413.769531 187.898438 411.910156 192.546875 411.324219 197.390625 C 410.355469 205.414062 412.871094 213.980469 418.1875 220.222656 C 422.761719 225.601562 429.414062 229.402344 436.425781 230.726562 "/>
<path style=" stroke:none;fill-rule:nonzero;fill:rgb(99.609375%,95.289612%,87.838745%);fill-opacity:1;" d="M 411.117188 402.089844 C 411.285156 402.089844 411.449219 402.015625 411.5625 401.882812 C 411.78125 401.625 433.605469 376.011719 440.0625 349.628906 C 446.566406 323.054688 436.03125 312.5625 435.578125 312.125 C 435.347656 311.902344 434.976562 311.910156 434.75 312.140625 C 434.527344 312.375 434.535156 312.75 434.769531 312.96875 C 434.875 313.074219 445.265625 323.425781 438.925781 349.347656 C 432.535156 375.457031 410.894531 400.867188 410.675781 401.117188 C 410.464844 401.367188 410.492188 401.730469 410.738281 401.945312 C 410.847656 402.039062 410.980469 402.089844 411.117188 402.089844 "/>
<path style=" stroke:none;fill-rule:nonzero;fill:rgb(99.609375%,95.289612%,87.838745%);fill-opacity:1;" d="M 450.683594 422.421875 C 450.683594 422.097656 450.425781 421.835938 450.097656 421.835938 C 449.777344 421.835938 449.511719 422.097656 449.511719 422.421875 C 449.511719 432.902344 460.523438 454.699219 469.144531 461.296875 C 469.25 461.378906 469.375 461.417969 469.503906 461.417969 C 469.675781 461.417969 469.851562 461.339844 469.964844 461.183594 C 470.160156 460.929688 470.109375 460.5625 469.855469 460.367188 C 461.4375 453.921875 450.683594 432.644531 450.683594 422.421875 "/>
<path style=" stroke:none;fill-rule:nonzero;fill:rgb(99.609375%,95.289612%,87.838745%);fill-opacity:1;" d="M 520.34375 329.257812 C 520.34375 321.3125 518.730469 316.480469 513.964844 310.128906 C 508.703125 303.105469 502.113281 291.78125 500.925781 282.230469 C 505.859375 280.90625 510.441406 279.097656 514.308594 277.019531 C 514.59375 276.867188 514.703125 276.507812 514.546875 276.226562 C 514.398438 275.941406 514.039062 275.835938 513.757812 275.988281 C 510.003906 278 505.570312 279.757812 500.800781 281.058594 C 500.460938 276.628906 501.378906 272.648438 504.273438 269.757812 C 504.730469 269.296875 504.730469 268.558594 504.273438 268.101562 C 503.8125 267.640625 503.074219 267.640625 502.613281 268.101562 C 498.980469 271.734375 497.988281 276.542969 498.472656 281.644531 C 488.78125 283.90625 477.957031 284.171875 468.613281 280.664062 C 466.945312 280.035156 465.40625 279.28125 463.9375 278.457031 C 465.257812 276.835938 466.960938 275.324219 469.144531 273.941406 C 469.695312 273.59375 469.855469 272.867188 469.511719 272.324219 C 469.164062 271.773438 468.441406 271.613281 467.894531 271.957031 C 465.367188 273.554688 463.417969 275.328125 461.925781 277.238281 C 456.824219 273.835938 453.078125 269.109375 450.804688 263.082031 C 450.695312 262.773438 450.355469 262.625 450.046875 262.738281 C 449.746094 262.851562 449.59375 263.191406 449.710938 263.496094 C 452.027344 269.652344 455.957031 274.621094 461.234375 278.179688 C 455.332031 286.773438 458.117188 297.925781 460.84375 308.78125 C 463.417969 319.050781 466.046875 329.609375 462.003906 338.695312 C 460.273438 338.816406 459.582031 340.457031 459.925781 341.800781 C 457.152344 342.058594 454.113281 344.429688 454.488281 345.054688 C 454.730469 345.460938 455.476562 345.371094 455.980469 345.078125 C 455.949219 345.859375 456.09375 346.859375 456.582031 347.078125 C 457.285156 347.398438 458.234375 347.390625 458.917969 347.21875 C 458.71875 347.933594 458.6875 348.832031 459.0625 348.992188 C 459.742188 349.285156 461.9375 345.835938 462.46875 343.535156 C 464.453125 343.332031 465.011719 341.070312 464.152344 339.703125 C 468.558594 329.941406 465.804688 318.921875 463.117188 308.214844 C 460.3125 297.023438 457.816406 287.046875 463.203125 279.410156 C 464.769531 280.304688 466.4375 281.097656 468.203125 281.757812 C 473.296875 283.671875 478.816406 284.492188 484.359375 284.492188 C 489.183594 284.492188 494.023438 283.875 498.609375 282.8125 C 500.339844 295.421875 510.480469 309.378906 512.09375 311.53125 C 516.5625 317.492188 518 321.804688 518 329.3125 C 518.320312 336 516.601562 340.519531 513.132812 344.464844 C 512.882812 344.375 512.605469 344.316406 512.296875 344.316406 C 510.425781 344.316406 509.671875 346.042969 510.03125 347.445312 C 507.261719 347.695312 504.21875 350.074219 504.59375 350.695312 C 504.769531 350.992188 505.207031 351.019531 505.621094 350.90625 C 505.171875 351.296875 505.074219 351.957031 505.421875 352.453125 C 505.648438 352.773438 506.011719 352.949219 506.382812 352.949219 C 506.570312 352.949219 506.757812 352.894531 506.929688 352.796875 C 507.601562 353.023438 508.410156 353.011719 509.023438 352.863281 C 508.820312 353.578125 508.789062 354.472656 509.167969 354.632812 C 509.851562 354.925781 512.042969 351.480469 512.574219 349.175781 C 514.132812 349.015625 514.808594 347.585938 514.613281 346.316406 C 518.617188 341.917969 520.699219 336.804688 520.34375 329.257812 "/>
<path style=" stroke:none;fill-rule:nonzero;fill:rgb(99.609375%,95.289612%,87.838745%);fill-opacity:1;" d="M 583.65625 255.015625 C 583.34375 254.949219 583.035156 255.15625 582.964844 255.472656 C 582.902344 255.792969 583.109375 256.097656 583.421875 256.164062 C 619.570312 263.542969 650.144531 312.363281 650.449219 312.855469 C 650.558594 313.039062 650.75 313.132812 650.949219 313.132812 C 651.054688 313.132812 651.160156 313.105469 651.253906 313.046875 C 651.53125 312.878906 651.617188 312.515625 651.441406 312.242188 C 651.136719 311.742188 620.304688 262.496094 583.65625 255.015625 "/>
<path style=" stroke:none;fill-rule:nonzero;fill:rgb(99.609375%,95.289612%,87.838745%);fill-opacity:1;" d="M 434.847656 141.398438 C 435.019531 141.28125 452.742188 129.601562 482.328125 133.238281 C 512.144531 136.898438 517.914062 178.054688 517.96875 178.472656 C 518.007812 178.792969 517.785156 179.085938 517.464844 179.128906 C 517.4375 179.132812 517.410156 179.136719 517.386719 179.136719 C 517.097656 179.136719 516.847656 178.921875 516.804688 178.625 C 516.75 178.214844 511.101562 137.945312 482.1875 134.398438 C 453.050781 130.824219 435.675781 142.257812 435.503906 142.371094 C 435.230469 142.554688 434.871094 142.480469 434.691406 142.214844 C 434.507812 141.945312 434.582031 141.582031 434.847656 141.398438 Z M 537.730469 184.359375 C 541.535156 185.238281 546.1875 187.964844 548.570312 191.359375 C 557.398438 203.878906 553.324219 225.871094 532.902344 225.863281 C 526.953125 225.863281 521.015625 222.566406 517.179688 217.753906 C 513.511719 213.148438 511.773438 206.84375 512.441406 200.929688 C 512.84375 197.363281 514.132812 193.9375 516.398438 191.125 C 521.332031 185.007812 530.492188 182.6875 537.730469 184.359375 Z M 430.183594 147.945312 C 430.1875 147.949219 430.195312 147.945312 430.203125 147.945312 C 430.714844 148.105469 433.859375 144.699219 439.863281 142.398438 C 452.625 137.515625 475.144531 132.425781 490.632812 140.519531 C 499.210938 145.003906 504.730469 154.128906 508.28125 163.777344 C 510.507812 169.808594 511.957031 176.046875 512.90625 181.484375 C 509.136719 183.125 505.746094 185.449219 503.164062 188.445312 C 499.878906 192.265625 498.015625 196.914062 497.429688 201.761719 C 496.457031 209.785156 498.980469 218.34375 504.292969 224.589844 C 507.195312 228 510.9375 230.964844 515.070312 232.960938 C 505.425781 239.847656 491.085938 243.671875 480.75 243.882812 C 480.382812 243.253906 479.585938 242.65625 478.25 242.195312 C 473.933594 240.707031 471.9375 240.617188 471.101562 242.902344 C 470.097656 245.625 471.78125 247.679688 475.230469 247.84375 C 478.257812 247.988281 480.65625 246.59375 480.945312 245.054688 C 491.695312 244.832031 506.519531 240.929688 516.371094 233.550781 C 519.527344 234.894531 522.882812 235.648438 526.257812 235.609375 C 526.53125 235.605469 526.800781 235.613281 527.078125 235.597656 C 550.394531 234.402344 558.578125 218.957031 556.273438 204.097656 C 555.4375 198.664062 553.203125 193.3125 549.785156 188.761719 C 549.660156 188.597656 549.527344 188.441406 549.394531 188.28125 C 545.949219 184.042969 539.792969 180.632812 534.570312 179.382812 C 532.898438 169.039062 529.703125 155.238281 523.660156 143.589844 C 522.132812 140.640625 520.160156 138.113281 517.863281 135.9375 C 503.132812 121.992188 474.398438 123.054688 454.457031 128.574219 C 430.921875 135.089844 428.753906 147.203125 430.183594 147.945312 "/>
<path style=" stroke:none;fill-rule:nonzero;fill:rgb(99.609375%,95.289612%,87.838745%);fill-opacity:1;" d="M 654.785156 255.9375 C 654.207031 253.058594 651.210938 250.433594 648.5625 248.117188 C 647.484375 247.167969 646.457031 246.269531 645.722656 245.453125 C 645.5 245.21875 645.136719 245.199219 644.890625 245.414062 C 644.65625 245.632812 644.636719 246.003906 644.851562 246.242188 C 645.636719 247.109375 646.6875 248.023438 647.792969 248.996094 C 650.296875 251.191406 653.136719 253.679688 653.636719 256.183594 C 653.90625 257.316406 653.804688 258.066406 653.335938 258.421875 C 652.164062 259.308594 648.769531 258.140625 646.832031 257.0625 C 641.914062 254.464844 637.648438 250.675781 633.523438 247.011719 C 630.023438 243.902344 626.40625 240.6875 622.394531 238.210938 C 610.316406 230.8125 594.585938 227.335938 579.230469 228.6875 C 570.445312 229.316406 563.316406 230.582031 557.453125 232.535156 C 550.871094 234.308594 538.144531 239.390625 538.015625 239.441406 C 537.714844 239.566406 537.566406 239.90625 537.691406 240.207031 C 537.808594 240.503906 538.152344 240.652344 538.449219 240.53125 C 538.578125 240.480469 551.238281 235.425781 557.789062 233.65625 C 563.589844 231.726562 570.628906 230.484375 579.320312 229.859375 C 594.4375 228.53125 609.917969 231.941406 621.78125 239.207031 C 625.699219 241.632812 629.277344 244.8125 632.746094 247.886719 C 636.921875 251.601562 641.238281 255.4375 646.273438 258.09375 C 646.316406 258.117188 649.570312 259.902344 652.105469 259.902344 C 652.847656 259.902344 653.523438 259.753906 654.046875 259.359375 C 654.917969 258.695312 655.164062 257.535156 654.785156 255.9375 "/>
<path style=" stroke:none;fill-rule:nonzero;fill:rgb(99.609375%,95.289612%,87.838745%);fill-opacity:1;" d="M 102.765625 312.613281 C 99.753906 307.761719 98.855469 301.390625 97.976562 295.867188 C 94.992188 277.039062 95.296875 257.527344 95.949219 238.539062 C 96.644531 218.339844 98.285156 198.046875 101.769531 178.125 C 102.976562 171.203125 104.425781 164.253906 106.785156 157.621094 C 108.007812 154.167969 109.378906 150.636719 113.050781 149.378906 C 123.988281 145.621094 138.230469 148.390625 149.328125 149.804688 C 168.601562 152.261719 187.699219 156.300781 206.585938 160.816406 C 226.394531 165.546875 246.046875 171.050781 265.363281 177.511719 C 280.085938 182.433594 295.164062 187.722656 308.585938 195.65625 C 311.921875 197.625 315.777344 199.960938 317.847656 203.355469 C 317.847656 203.355469 317.847656 203.359375 317.847656 203.359375 C 324.40625 214.976562 324.773438 231.347656 325.894531 244.257812 C 327.695312 265.023438 328.011719 285.949219 327.417969 306.777344 C 327.085938 318.339844 326.539062 330.035156 325.210938 341.609375 C 324.382812 348.800781 323.261719 355.945312 321.695312 362.980469 C 320.464844 368.496094 318.972656 374.363281 315.796875 379.121094 C 313.703125 382.257812 310.566406 382.558594 307.0625 382.574219 C 295.140625 382.628906 282.902344 379.363281 271.292969 376.191406 C 269.554688 375.714844 267.820312 375.238281 266.109375 374.777344 C 246.632812 369.527344 227.421875 363.28125 208.34375 356.746094 C 175.597656 345.527344 141.992188 334.109375 111.003906 318.511719 C 107.996094 317 104.601562 315.566406 102.765625 312.613281 Z M 260.949219 376.992188 C 261.566406 377.167969 262.191406 377.339844 262.8125 377.515625 C 266.140625 378.445312 269.496094 379.371094 272.867188 380.253906 C 273.367188 382.25 280.027344 407.542969 299.921875 416.96875 C 300 417.007812 300.085938 417.027344 300.167969 417.027344 C 300.386719 417.027344 300.597656 416.90625 300.699219 416.695312 C 300.835938 416.402344 300.714844 416.046875 300.421875 415.910156 C 282.226562 407.285156 275.351562 384.933594 274.167969 380.59375 C 283.886719 383.101562 293.765625 385.207031 303.691406 385.949219 C 312.90625 386.632812 317.9375 384.1875 321.59375 375.492188 C 326.046875 364.910156 327.746094 352.863281 328.804688 341.128906 C 329.175781 337.0625 329.464844 333.03125 329.769531 329.117188 C 331.394531 308.058594 331.53125 286.855469 330.710938 265.761719 C 330.199219 252.476562 329.21875 239.183594 327.335938 226.023438 C 326.167969 217.925781 324.964844 208.828125 320.867188 201.582031 C 315.703125 193.113281 303.3125 188.589844 294.742188 184.859375 C 278.210938 177.667969 260.949219 172.121094 243.671875 167.046875 C 207.898438 156.53125 170.339844 146.96875 132.988281 144.699219 C 125.996094 144.277344 112.570312 142.632812 107.355469 148.929688 C 104.320312 152.589844 102.929688 157.699219 101.671875 162.179688 C 99.53125 169.816406 98.207031 177.699219 97.042969 185.539062 C 94.070312 205.589844 92.683594 225.910156 92.230469 246.164062 C 91.824219 264.109375 91.949219 282.472656 95.175781 300.191406 C 96.101562 305.273438 97.328125 310.800781 100.242188 315.164062 C 102.140625 317.996094 105.34375 319.515625 108.28125 321.046875 C 120.398438 327.347656 133.261719 332.363281 145.929688 337.417969 C 183.550781 352.417969 221.9375 366.074219 260.949219 376.992188 "/>
<path style=" stroke:none;fill-rule:nonzero;fill:rgb(99.609375%,95.289612%,87.838745%);fill-opacity:1;" d="M 545.898438 323.738281 C 545.636719 323.9375 545.589844 324.304688 545.789062 324.5625 C 553.5625 334.730469 556.015625 347.035156 552.695312 359.203125 C 548.964844 372.878906 538.578125 384.351562 524.898438 389.902344 C 518.632812 392.554688 507.746094 393.675781 496.226562 394.867188 C 474.9375 397.070312 450.863281 399.554688 450.53125 412.964844 C 448.054688 412.382812 440.152344 410.796875 436.605469 413.234375 C 432.429688 416.113281 432.316406 422.160156 432.3125 422.414062 C 432.308594 422.738281 432.566406 423.003906 432.894531 423.007812 C 432.894531 423.007812 432.898438 423.007812 432.898438 423.007812 C 433.21875 423.007812 433.480469 422.753906 433.484375 422.425781 C 433.484375 422.371094 433.601562 416.730469 437.269531 414.203125 C 440.972656 411.652344 450.867188 414.257812 450.96875 414.285156 C 451.148438 414.332031 451.34375 414.292969 451.484375 414.175781 C 451.632812 414.058594 451.714844 413.882812 451.707031 413.695312 C 451.164062 400.703125 475.167969 398.222656 496.34375 396.035156 C 507.957031 394.835938 518.925781 393.703125 525.347656 390.984375 C 539.351562 385.300781 550 373.535156 553.828125 359.511719 C 557.242188 346.980469 554.71875 334.320312 546.71875 323.851562 C 546.519531 323.59375 546.15625 323.542969 545.898438 323.738281 "/>
<path style=" stroke:none;fill-rule:nonzero;fill:rgb(99.609375%,95.289612%,87.838745%);fill-opacity:1;" d="M 443.757812 420.777344 L 444.355469 420.859375 C 444.382812 420.867188 444.410156 420.867188 444.4375 420.867188 C 444.722656 420.867188 444.972656 420.65625 445.015625 420.363281 C 445.058594 420.046875 444.839844 419.75 444.519531 419.703125 L 443.917969 419.617188 C 442.335938 419.394531 440.535156 419.140625 438.988281 418.699219 C 438.679688 418.601562 438.355469 418.792969 438.265625 419.101562 C 438.175781 419.414062 438.359375 419.738281 438.667969 419.824219 C 440.292969 420.289062 442.132812 420.550781 443.757812 420.777344 "/>
<path style=" stroke:none;fill-rule:nonzero;fill:rgb(99.609375%,95.289612%,87.838745%);fill-opacity:1;" d="M 437.238281 429.078125 C 437.167969 429.398438 437.363281 429.710938 437.679688 429.777344 C 438.695312 430.007812 439.757812 430.089844 440.839844 430.089844 C 442.300781 430.089844 443.792969 429.9375 445.257812 429.792969 C 445.582031 429.757812 445.816406 429.472656 445.78125 429.148438 C 445.75 428.824219 445.433594 428.582031 445.140625 428.625 C 442.683594 428.871094 440.144531 429.128906 437.933594 428.632812 C 437.617188 428.570312 437.308594 428.765625 437.238281 429.078125 "/>
<path style=" stroke:none;fill-rule:nonzero;fill:rgb(99.609375%,95.289612%,87.838745%);fill-opacity:1;" d="M 448.132812 438.324219 C 446.484375 438.691406 444.84375 438.644531 443.109375 438.597656 C 442.53125 438.578125 441.957031 438.566406 441.378906 438.566406 C 441.054688 438.566406 440.792969 438.828125 440.792969 439.152344 C 440.792969 439.476562 441.054688 439.738281 441.378906 439.738281 C 441.945312 439.738281 442.515625 439.757812 443.082031 439.769531 C 443.648438 439.785156 444.226562 439.800781 444.808594 439.800781 C 445.988281 439.800781 447.1875 439.734375 448.386719 439.46875 C 448.703125 439.398438 448.898438 439.082031 448.832031 438.769531 C 448.761719 438.453125 448.453125 438.257812 448.132812 438.324219 "/>
<path style=" stroke:none;fill-rule:nonzero;fill:rgb(99.609375%,95.289612%,87.838745%);fill-opacity:1;" d="M 446.792969 448.261719 C 446.476562 448.226562 446.183594 448.457031 446.148438 448.777344 C 446.113281 449.097656 446.34375 449.386719 446.667969 449.425781 C 447.152344 449.480469 447.632812 449.503906 448.109375 449.503906 C 449.070312 449.503906 450.011719 449.414062 450.933594 449.328125 C 451.789062 449.25 452.589844 449.171875 453.355469 449.171875 C 453.679688 449.171875 453.941406 448.910156 453.941406 448.585938 C 453.941406 448.265625 453.679688 448 453.355469 448 C 452.535156 448 451.707031 448.078125 450.824219 448.160156 C 449.503906 448.285156 448.136719 448.414062 446.792969 448.261719 "/>
<path style=" stroke:none;fill-rule:nonzero;fill:rgb(99.609375%,95.289612%,87.838745%);fill-opacity:1;" d="M 458.582031 457.453125 C 456.933594 457.820312 455.300781 457.773438 453.570312 457.722656 C 452.988281 457.703125 452.40625 457.691406 451.828125 457.691406 C 451.503906 457.691406 451.242188 457.953125 451.242188 458.277344 C 451.242188 458.601562 451.503906 458.863281 451.828125 458.863281 C 452.398438 458.863281 452.964844 458.882812 453.535156 458.894531 C 454.109375 458.914062 454.6875 458.925781 455.265625 458.925781 C 456.441406 458.925781 457.636719 458.859375 458.835938 458.59375 C 459.152344 458.523438 459.351562 458.214844 459.28125 457.898438 C 459.210938 457.582031 458.902344 457.382812 458.582031 457.453125 "/>
<path style=" stroke:none;fill-rule:nonzero;fill:rgb(27.839661%,12.548828%,8.239746%);fill-opacity:1;" d="M 535.429688 145.632812 C 529.601562 141.171875 523.753906 138.058594 517.863281 135.9375 C 520.160156 138.113281 522.128906 140.644531 523.65625 143.589844 C 529.703125 155.238281 532.898438 169.039062 534.570312 179.382812 C 539.789062 180.632812 545.949219 184.042969 549.394531 188.28125 C 551.300781 171.929688 546.742188 154.542969 535.429688 145.632812 "/>
<path style=" stroke:none;fill-rule:nonzero;fill:rgb(27.839661%,12.548828%,8.239746%);fill-opacity:1;" d="M 463.296875 188.839844 C 460.347656 189.335938 459.0625 193.957031 460.082031 196.0625 C 461.101562 198.589844 462.984375 199.21875 465.132812 199.039062 C 466.574219 198.917969 468.128906 198.441406 469.636719 197.910156 C 475.515625 195.84375 485.5 192.449219 489.238281 189.808594 C 490.273438 189.074219 490.832031 188.40625 490.695312 187.832031 C 490.070312 185.195312 466.246094 188.347656 463.296875 188.839844 "/>
<path style=" stroke:none;fill-rule:nonzero;fill:rgb(27.839661%,12.548828%,8.239746%);fill-opacity:1;" d="M 446.992188 190.695312 C 443.992188 190.03125 435.515625 190.078125 432.234375 190.929688 C 431.464844 191.125 430.976562 191.367188 430.921875 191.660156 C 430.875 191.867188 430.878906 192.09375 430.921875 192.320312 C 430.921875 192.324219 430.925781 192.324219 430.925781 192.324219 C 431.035156 192.890625 431.441406 193.515625 432.269531 194.207031 C 432.632812 194.507812 433.0625 194.8125 433.59375 195.132812 C 434.984375 195.980469 437.007812 196.90625 439.863281 197.910156 C 442.832031 198.949219 445.769531 200.578125 447.714844 199.136719 C 448.226562 198.757812 448.675781 198.167969 449.039062 197.285156 C 450.058594 195.179688 450.691406 191.519531 446.992188 190.695312 "/>
<path style=" stroke:none;fill-rule:nonzero;fill:rgb(27.839661%,12.548828%,8.239746%);fill-opacity:1;" d="M 482.484375 199.46875 C 479.023438 199.8125 475.03125 200.527344 472.265625 201.582031 C 470.726562 202.167969 469.640625 202.710938 468.875 203.199219 C 466.785156 204.539062 467.164062 205.453125 467.617188 205.597656 C 468.230469 205.796875 470.703125 205.0625 470.640625 205.558594 C 470.523438 206.546875 471.90625 209.019531 473.5 209.824219 C 475.515625 210.839844 478.300781 210.640625 480.117188 209.246094 C 482.300781 207.578125 482.324219 204.496094 480.566406 202.855469 C 482.257812 202.664062 489.929688 200.796875 489.570312 199.71875 C 489.378906 199.160156 486.246094 199.09375 482.484375 199.46875 "/>
<path style=" stroke:none;fill-rule:nonzero;fill:rgb(27.839661%,12.548828%,8.239746%);fill-opacity:1;" d="M 446.644531 204.859375 C 445.375 203.945312 442.09375 202.25 438.847656 201.5625 C 436.429688 201.054688 434.046875 201.109375 432.546875 202.464844 C 432.480469 202.53125 432.40625 202.589844 432.34375 202.652344 C 431.5 203.527344 431.5625 207.671875 433.035156 209.582031 C 433.207031 209.800781 433.394531 210.003906 433.613281 210.160156 C 435.472656 211.492188 437.433594 211.695312 439.421875 210.609375 C 441.488281 209.472656 442.046875 207.101562 441.226562 204.683594 C 440.972656 203.917969 446.9375 206.054688 447.183594 205.429688 C 447.21875 205.339844 447.015625 205.136719 446.644531 204.859375 "/>
<path style=" stroke:none;fill-rule:nonzero;fill:rgb(27.839661%,12.548828%,8.239746%);fill-opacity:1;" d="M 490.632812 140.519531 C 475.144531 132.425781 452.625 137.515625 439.863281 142.398438 C 433.859375 144.699219 430.714844 148.105469 430.203125 147.945312 C 429.445312 148.671875 428.714844 149.421875 428.039062 150.21875 C 414.367188 166.367188 426.714844 171.558594 432.042969 172.398438 C 432.9375 172.542969 433.644531 172.566406 433.988281 172.492188 C 441.121094 170.960938 432.015625 178.589844 439.492188 182.671875 C 446.96875 186.753906 451.316406 181.332031 455.902344 178.78125 C 459.980469 176.742188 462.195312 180.386719 469.496094 180.820312 C 480.992188 181.5 481.441406 172.011719 484.160156 170.988281 C 486.851562 169.976562 503.992188 174.097656 508.28125 163.777344 C 504.730469 154.128906 499.210938 145.003906 490.632812 140.519531 "/>
</g>
</svg>
