<?xml version="1.0" encoding="UTF-8"?>
<svg xmlns="http://www.w3.org/2000/svg" xmlns:xlink="http://www.w3.org/1999/xlink" width="375pt" height="374.999991pt" viewBox="0 0 375 374.999991" version="1.2">
<defs>
<clipPath id="clip1">
  <path d="M 40.1875 46.078125 L 334.9375 46.078125 L 334.9375 328.746094 L 40.1875 328.746094 Z M 40.1875 46.078125 "/>
</clipPath>
</defs>
<g id="surface1">
<g clip-path="url(#clip1)" clip-rule="nonzero">
<path style=" stroke:none;fill-rule:nonzero;fill:rgb(0%,0%,0%);fill-opacity:1;" d="M 328.640625 300.496094 C 328.640625 310.503906 321.011719 318.667969 311.269531 319.703125 L 88.3125 321.660156 C 89.074219 321.0625 89.878906 320.53125 90.570312 319.84375 C 96.074219 314.484375 99.140625 307.28125 98.980469 300.21875 L 98.980469 113.933594 C 98.980469 113.472656 99.347656 113.128906 99.785156 113.128906 L 170.925781 113.128906 C 171.15625 113.128906 171.363281 113.222656 171.523438 113.40625 L 203.867188 151.179688 C 205.25 152.765625 207.253906 153.683594 209.351562 153.683594 L 327.855469 153.683594 C 328.292969 153.683594 328.640625 154.054688 328.640625 154.492188 Z M 46.589844 299.53125 L 46.589844 121.386719 C 46.589844 120.949219 46.960938 120.605469 47.398438 120.605469 L 92.574219 120.605469 L 92.574219 300.289062 C 92.691406 305.671875 90.339844 311.125 86.078125 315.265625 C 81.449219 319.820312 75.15625 322.167969 67.855469 321.84375 C 56.152344 321.707031 46.589844 311.699219 46.589844 299.53125 Z M 150.882812 53.550781 C 150.882812 53.136719 151.25 52.789062 151.664062 52.789062 L 267.890625 52.789062 L 267.890625 91.527344 C 267.335938 91.023438 266.597656 90.699219 265.792969 90.699219 L 248.144531 90.699219 C 246.371094 90.699219 244.945312 92.128906 244.945312 93.898438 C 244.945312 95.667969 246.371094 97.117188 248.144531 97.117188 L 265.792969 97.117188 C 266.761719 97.117188 267.613281 96.636719 268.1875 95.945312 C 268.902344 99.1875 271.644531 101.652344 275.101562 101.652344 L 316.84375 101.652344 L 316.84375 147.289062 L 209.351562 147.289062 C 209.121094 147.289062 208.890625 147.175781 208.753906 147.015625 L 182.996094 116.925781 C 183.320312 117.039062 183.640625 117.132812 183.988281 117.132812 L 305.878906 117.132812 C 307.652344 117.132812 309.078125 115.683594 309.078125 113.933594 C 309.078125 112.164062 307.652344 110.714844 305.878906 110.714844 L 183.988281 110.714844 C 182.214844 110.714844 180.785156 112.164062 180.785156 113.933594 C 180.785156 114.117188 180.855469 114.304688 180.898438 114.488281 L 176.40625 109.242188 C 175.023438 107.632812 173.019531 106.710938 170.925781 106.710938 L 150.882812 106.710938 Z M 274.316406 57.300781 L 312.304688 95.253906 L 275.101562 95.253906 C 274.683594 95.253906 274.316406 94.886719 274.316406 94.472656 Z M 327.855469 147.289062 L 323.269531 147.289062 L 323.269531 98.9375 C 323.292969 98.589844 323.269531 98.269531 323.179688 97.925781 C 323.179688 97.855469 323.15625 97.808594 323.15625 97.738281 C 323.109375 97.554688 323.085938 97.371094 323.019531 97.210938 C 322.855469 96.820312 322.625 96.476562 322.328125 96.175781 L 273.371094 47.316406 C 272.980469 46.925781 272.472656 46.695312 271.921875 46.53125 C 271.78125 46.511719 271.667969 46.488281 271.527344 46.464844 C 271.390625 46.441406 271.253906 46.371094 271.113281 46.371094 L 151.664062 46.371094 C 147.703125 46.371094 144.476562 49.59375 144.476562 53.550781 L 144.476562 106.710938 L 99.785156 106.710938 C 95.824219 106.710938 92.574219 109.953125 92.574219 113.933594 L 47.398438 114.1875 C 43.4375 114.1875 40.1875 117.429688 40.1875 121.386719 L 40.1875 299.53125 C 40.1875 315.195312 52.582031 328.078125 68.109375 328.238281 C 68.15625 328.238281 68.199219 328.238281 68.246094 328.238281 C 68.269531 328.238281 68.269531 328.238281 68.269531 328.238281 L 68.339844 328.238281 C 68.753906 328.261719 69.144531 328.285156 69.558594 328.285156 C 69.722656 328.285156 69.882812 328.238281 70.066406 328.238281 L 308.296875 326.144531 C 308.574219 326.238281 308.871094 326.328125 309.195312 326.328125 C 309.886719 326.328125 310.554688 326.167969 311.246094 326.121094 L 311.777344 326.121094 C 311.9375 326.121094 312.074219 326.054688 312.234375 326.03125 C 325.046875 324.488281 335.066406 313.699219 335.066406 300.496094 L 335.066406 154.492188 C 335.066406 150.511719 331.839844 147.289062 327.855469 147.289062 "/>
</g>
<path style=" stroke:none;fill-rule:nonzero;fill:rgb(0%,0%,0%);fill-opacity:1;" d="M 290.902344 263.277344 C 290.902344 266.679688 288.140625 269.441406 284.753906 269.441406 L 148.992188 269.441406 C 145.582031 269.441406 142.84375 266.679688 142.84375 263.277344 L 142.84375 207.789062 C 142.84375 204.410156 145.582031 201.648438 148.992188 201.648438 L 284.753906 201.648438 C 288.140625 201.648438 290.902344 204.410156 290.902344 207.789062 Z M 284.753906 195.230469 L 148.992188 195.230469 C 142.058594 195.230469 136.414062 200.867188 136.414062 207.789062 L 136.414062 263.277344 C 136.414062 270.199219 142.058594 275.835938 148.992188 275.835938 L 284.753906 275.835938 C 291.6875 275.835938 297.332031 270.199219 297.332031 263.277344 L 297.332031 207.789062 C 297.332031 200.867188 291.6875 195.230469 284.753906 195.230469 "/>
<path style=" stroke:none;fill-rule:nonzero;fill:rgb(0%,0%,0%);fill-opacity:1;" d="M 199.097656 215.058594 C 204.511719 215.058594 208.222656 216.300781 210.59375 217.660156 L 212.851562 210 C 210.15625 208.664062 204.972656 207.191406 199.097656 207.191406 C 181.292969 207.191406 169.796875 219.339844 169.796875 236.109375 C 169.796875 252.761719 180.507812 263.898438 196.957031 263.898438 C 204.28125 263.898438 210.019531 262.078125 212.621094 260.746094 L 210.941406 253.316406 C 208.105469 254.558594 204.398438 256.007812 198.777344 256.007812 C 187.949219 256.007812 179.839844 248.253906 179.839844 235.648438 C 179.839844 224.285156 186.589844 215.058594 199.097656 215.058594 "/>
<path style=" stroke:none;fill-rule:nonzero;fill:rgb(0%,0%,0%);fill-opacity:1;" d="M 250.171875 238.914062 C 248.375 243.859375 246.785156 248.371094 245.566406 252.855469 L 245.21875 252.855469 C 244.089844 248.371094 242.617188 243.859375 240.820312 238.914062 L 230.109375 208.320312 L 219.511719 208.320312 L 240.246094 262.769531 L 249.710938 262.769531 L 271.136719 208.320312 L 260.769531 208.320312 L 250.171875 238.914062 "/>
<path style=" stroke:none;fill-rule:nonzero;fill:rgb(0%,0%,0%);fill-opacity:1;" d="M 169.796875 77.21875 L 245.335938 77.21875 C 247.109375 77.21875 248.539062 75.792969 248.539062 74.023438 C 248.539062 72.25 247.109375 70.800781 245.335938 70.800781 L 169.796875 70.800781 C 168.046875 70.800781 166.59375 72.25 166.59375 74.023438 C 166.59375 75.792969 168.046875 77.21875 169.796875 77.21875 "/>
<path style=" stroke:none;fill-rule:nonzero;fill:rgb(0%,0%,0%);fill-opacity:1;" d="M 236.902344 93.898438 C 236.902344 92.128906 235.476562 90.699219 233.703125 90.699219 L 169.796875 90.699219 C 168.046875 90.699219 166.59375 92.128906 166.59375 93.898438 C 166.59375 95.667969 168.046875 97.117188 169.796875 97.117188 L 233.703125 97.117188 C 235.476562 97.117188 236.902344 95.667969 236.902344 93.898438 "/>
</g>
</svg>
