<?xml version="1.0" encoding="UTF-8"?>
<svg xmlns="http://www.w3.org/2000/svg" xmlns:xlink="http://www.w3.org/1999/xlink" width="375pt" height="374.999991pt" viewBox="0 0 375 374.999991" version="1.2">
<g id="surface1">
<path style=" stroke:none;fill-rule:nonzero;fill:rgb(76.858521%,65.489197%,48.239136%);fill-opacity:1;" d="M 123.371094 279.417969 C 123.371094 279.417969 111.703125 298.636719 112.878906 302.164062 C 114.054688 305.6875 116.621094 308.429688 118.082031 315.085938 C 119.546875 321.746094 121.179688 337.023438 124.707031 338.980469 C 128.238281 340.9375 221.28125 338.980469 221.28125 338.980469 L 221.28125 311.5625 L 189.472656 262.695312 L 123.371094 279.417969 "/>
<path style=" stroke:none;fill-rule:nonzero;fill:rgb(64.709473%,56.079102%,42.349243%);fill-opacity:1;" d="M 123.371094 279.417969 C 123.371094 279.417969 111.703125 298.636719 112.878906 302.164062 C 112.902344 302.234375 112.933594 302.308594 112.957031 302.386719 C 116.546875 305.609375 121.207031 308.585938 124.644531 308.585938 C 130.132812 308.585938 150.113281 294.875 158.550781 292.054688 C 166.996094 289.238281 179.957031 288.609375 182.300781 292.054688 C 184.644531 295.503906 174.054688 313.914062 168.957031 317.4375 C 164.832031 320.289062 154.742188 332.121094 150.753906 339.847656 C 179.386719 339.863281 221.28125 338.980469 221.28125 338.980469 L 221.28125 311.5625 L 189.472656 262.695312 L 123.371094 279.417969 "/>
<path style=" stroke:none;fill-rule:nonzero;fill:rgb(55.288696%,46.269226%,34.509277%);fill-opacity:1;" d="M 221.28125 311.5625 L 189.472656 262.695312 L 123.371094 279.417969 C 123.371094 279.417969 118.289062 287.789062 115.171875 294.496094 C 117.558594 295.867188 120.105469 297 121.875 296.90625 C 126.210938 296.679688 170.625 277.824219 175.476562 279.417969 C 180.328125 281.011719 188.957031 292.054688 190.132812 296.910156 C 191.152344 301.109375 181.351562 328.878906 181.445312 339.636719 C 202.46875 339.375 221.28125 338.980469 221.28125 338.980469 L 221.28125 311.5625 "/>
<path style=" stroke:none;fill-rule:nonzero;fill:rgb(64.309692%,53.329468%,41.178894%);fill-opacity:1;" d="M 115.882812 198.484375 C 115.882812 198.484375 102.8125 202.933594 100.199219 212.859375 C 97.585938 222.78125 90.917969 263.429688 97.386719 266.609375 C 103.859375 269.785156 119.726562 273.960938 119.726562 273.960938 C 119.726562 273.960938 120.070312 284.929688 125.820312 289.105469 C 131.570312 293.285156 178.75 283.882812 195.945312 245.761719 C 213.140625 207.636719 195.878906 192.242188 195.878906 192.242188 L 115.882812 198.484375 "/>
<path style=" stroke:none;fill-rule:nonzero;fill:rgb(52.549744%,39.99939%,30.979919%);fill-opacity:1;" d="M 119.246094 210.441406 C 119.246094 210.441406 112.488281 227.726562 114.839844 237.921875 C 114.839844 237.921875 109.339844 228.679688 109.347656 215.207031 C 109.347656 215.207031 103.074219 236.4375 109.347656 247.757812 C 115.625 259.078125 137.191406 247.757812 137.191406 247.757812 L 137.191406 225.390625 L 119.246094 210.441406 "/>
<path style=" stroke:none;fill-rule:nonzero;fill:rgb(78.819275%,66.268921%,56.858826%);fill-opacity:1;" d="M 195.945312 245.761719 C 196.875 243.699219 197.699219 241.710938 198.433594 239.785156 C 195.183594 228.160156 192.59375 218.414062 192.921875 217.949219 C 193.75 216.777344 178.253906 205.492188 178.253906 205.492188 C 166.328125 237.921875 104.445312 248.5 101.113281 246.152344 C 99.003906 244.660156 99.40625 226.671875 99.988281 213.683594 C 97.25 224.839844 91.082031 263.511719 97.386719 266.609375 C 103.859375 269.785156 119.726562 273.960938 119.726562 273.960938 C 119.726562 273.960938 120.070312 284.929688 125.820312 289.105469 C 131.570312 293.285156 178.75 283.882812 195.945312 245.761719 "/>
<path style=" stroke:none;fill-rule:nonzero;fill:rgb(53.729248%,42.749023%,32.548523%);fill-opacity:1;" d="M 130.597656 290.019531 C 128.300781 290.019531 126.636719 289.703125 125.820312 289.105469 C 126.636719 289.703125 128.300781 290.019531 130.597656 290.019531 C 130.652344 290.019531 130.703125 290.019531 130.757812 290.019531 C 130.703125 290.019531 130.648438 290.019531 130.597656 290.019531 M 130.757812 290.019531 C 130.765625 290.019531 130.769531 290.019531 130.777344 290.019531 C 130.769531 290.019531 130.765625 290.019531 130.757812 290.019531 M 130.78125 290.019531 C 130.785156 290.019531 130.789062 290.019531 130.796875 290.019531 C 130.789062 290.019531 130.785156 290.019531 130.78125 290.019531 M 130.800781 290.019531 C 130.804688 290.019531 130.808594 290.019531 130.808594 290.019531 C 130.808594 290.019531 130.804688 290.019531 130.800781 290.019531 M 130.824219 290.019531 L 130.824219 290.019531 M 125.796875 289.089844 L 125.796875 289.089844 "/>
<path style=" stroke:none;fill-rule:nonzero;fill:rgb(58.039856%,46.269226%,35.688782%);fill-opacity:1;" d="M 137.191406 238.59375 L 137.191406 238.589844 C 153.710938 232.394531 171.027344 222.269531 177.542969 207.257812 L 177.546875 207.257812 C 171.035156 222.265625 153.714844 232.398438 137.191406 238.59375 "/>
<path style=" stroke:none;fill-rule:nonzero;fill:rgb(52.549744%,39.99939%,30.979919%);fill-opacity:1;" d="M 128.011719 241.679688 C 130.992188 240.785156 134.078125 239.757812 137.191406 238.589844 L 137.191406 238.59375 C 134.078125 239.757812 130.996094 240.789062 128.011719 241.679688 "/>
<path style=" stroke:none;fill-rule:nonzero;fill:rgb(64.709473%,51.759338%,41.958618%);fill-opacity:1;" d="M 130.597656 290.019531 C 128.300781 290.019531 126.636719 289.703125 125.820312 289.105469 C 125.808594 289.101562 125.804688 289.097656 125.796875 289.089844 C 124.84375 288.390625 124.046875 287.511719 123.371094 286.527344 C 123.816406 286.535156 124.253906 286.539062 124.691406 286.539062 C 145.996094 286.535156 158.136719 278.082031 164.449219 269.632812 C 170.765625 261.179688 171.257812 252.722656 169.265625 252.722656 C 169.167969 252.722656 169.066406 252.746094 168.957031 252.789062 C 164.410156 254.527344 151.179688 269.679688 150.621094 269.679688 C 150.609375 269.679688 150.601562 269.671875 150.605469 269.652344 C 150.683594 268.871094 165.425781 247.328125 164.25 244.503906 C 163.992188 243.890625 163.265625 243.640625 162.226562 243.640625 C 158.523438 243.640625 150.878906 246.808594 146.539062 247.757812 C 146.136719 247.84375 145.695312 247.882812 145.21875 247.882812 C 140.128906 247.882812 131.042969 243.289062 128.011719 241.679688 C 130.996094 240.789062 134.078125 239.757812 137.191406 238.59375 C 153.714844 232.398438 171.035156 222.265625 177.546875 207.257812 L 179.703125 206.558594 C 182.367188 208.535156 188.039062 212.808594 191.023438 215.550781 C 191.464844 226.546875 192.109375 242.316406 192.542969 252.3125 C 176.261719 279.847656 143.828125 289.902344 130.824219 290.019531 C 130.820312 290.019531 130.8125 290.019531 130.808594 290.019531 C 130.808594 290.019531 130.804688 290.019531 130.800781 290.019531 C 130.796875 290.019531 130.796875 290.019531 130.796875 290.019531 C 130.789062 290.019531 130.785156 290.019531 130.78125 290.019531 C 130.78125 290.019531 130.777344 290.019531 130.777344 290.019531 C 130.769531 290.019531 130.765625 290.019531 130.757812 290.019531 C 130.703125 290.019531 130.652344 290.019531 130.597656 290.019531 "/>
<path style=" stroke:none;fill-rule:nonzero;fill:rgb(74.899292%,37.249756%,34.118652%);fill-opacity:1;" d="M 68.15625 42.996094 C 68.15625 42.996094 55.0625 46.25 69.433594 65.519531 C 69.433594 65.519531 64.28125 64.84375 62.699219 67.761719 C 61.113281 70.679688 62.246094 86.019531 64.121094 91.472656 C 64.121094 91.472656 63.027344 97.3125 64.121094 103.578125 C 65.214844 109.847656 65.839844 127.476562 67.078125 132.957031 C 68.316406 138.4375 68.996094 141.964844 71.792969 144.316406 C 74.589844 146.664062 87.839844 157.238281 91.339844 159.589844 C 91.339844 159.589844 91.703125 173.300781 97.386719 180.742188 C 97.386719 180.742188 103.074219 198.757812 112.488281 208.160156 C 121.898438 217.558594 123.859375 223.433594 123.859375 226.960938 C 123.859375 230.484375 122.289062 241.453125 123.859375 243.019531 C 125.425781 244.585938 151.824219 243.410156 162.15625 234.007812 C 172.488281 224.609375 183.859375 214.425781 173.269531 198.757812 C 162.683594 183.089844 142.332031 155.21875 142.332031 155.21875 L 68.15625 42.996094 "/>
<path style=" stroke:none;fill-rule:nonzero;fill:rgb(62.748718%,27.839661%,27.449036%);fill-opacity:1;" d="M 173.269531 198.757812 C 162.683594 183.089844 142.332031 155.21875 142.332031 155.21875 L 101.164062 92.9375 C 89.066406 81.882812 77.1875 71.648438 68.429688 65.457031 C 66.847656 65.421875 63.84375 65.652344 62.699219 67.761719 C 62.421875 68.269531 62.230469 69.164062 62.105469 70.308594 C 65.316406 71.15625 69.144531 74.5625 70.460938 85.496094 C 70.460938 85.496094 66.632812 83.339844 63.847656 90.582031 C 63.933594 90.898438 64.027344 91.199219 64.121094 91.472656 C 64.121094 91.472656 63.097656 96.96875 64.035156 103.019531 C 65.597656 97.390625 67.75 91.0625 69.433594 91.472656 C 69.433594 91.472656 76.121094 106.714844 77.832031 109.0625 C 77.832031 109.0625 86.9375 120.8125 86.964844 123.554688 C 86.996094 126.296875 86.894531 134.128906 83.808594 135.699219 C 80.722656 137.265625 88.9375 137.109375 91.339844 132.265625 C 91.339844 132.265625 99.9375 139.539062 99.9375 143.296875 C 99.9375 147.054688 94.929688 156.066406 94.101562 157.238281 C 93.269531 158.414062 100.371094 157.828125 103.4375 151.679688 C 103.4375 151.679688 107.386719 153.132812 108.566406 157.734375 C 109.742188 162.332031 115.230469 170.949219 114.054688 173.300781 C 112.878906 175.648438 110.917969 185.050781 108.566406 185.832031 C 106.210938 186.617188 115.054688 189.09375 120.042969 177.476562 C 120.042969 177.476562 134.054688 187.007812 136.015625 189.75 C 137.976562 192.492188 136.5625 201.5 133.152344 205.023438 C 133.152344 205.023438 138.453125 207.039062 143.003906 191.707031 C 143.003906 191.707031 151.859375 196.800781 150.605469 202.285156 C 149.347656 207.765625 144.765625 216.382812 138.429688 216.382812 C 138.429688 216.382812 148.25 221.867188 155.070312 205.417969 C 155.070312 205.417969 154.445312 220.691406 140.722656 224.609375 C 140.722656 224.609375 150.503906 229.308594 158.550781 208.550781 C 158.550781 208.550781 167.230469 210.898438 166.328125 214.035156 C 165.425781 217.167969 158.761719 234.007812 135.625 233.226562 C 135.625 233.226562 136.40625 236.804688 148.566406 233.253906 C 148.566406 233.253906 162.289062 227.886719 169.878906 219.910156 C 177.46875 211.929688 156.015625 245.761719 130.527344 239.101562 C 130.527344 239.101562 126.210938 227.742188 126.605469 223.433594 C 126.605469 223.433594 130.285156 225.390625 133.152344 224.21875 C 136.015625 223.042969 125.820312 219.125 123.464844 215.207031 C 121.449219 211.847656 110.726562 202.433594 105.511719 198.839844 C 107.515625 202.230469 109.855469 205.53125 112.488281 208.160156 C 121.898438 217.558594 123.859375 223.433594 123.859375 226.960938 C 123.859375 230.484375 122.289062 241.453125 123.859375 243.019531 C 125.425781 244.585938 151.824219 243.410156 162.15625 234.007812 C 172.488281 224.609375 183.859375 214.425781 173.269531 198.757812 "/>
<path style=" stroke:none;fill-rule:nonzero;fill:rgb(90.589905%,59.609985%,45.878601%);fill-opacity:1;" d="M 221.191406 186.066406 C 221.191406 186.066406 211.066406 171.09375 205.125 166.480469 C 205.125 166.480469 196.871094 155.910156 195.882812 149.316406 C 195.882812 149.316406 195.136719 137.292969 195.136719 129.050781 C 195.136719 120.808594 194.230469 112.792969 189.9375 109.496094 C 185.644531 106.199219 178.382812 97.945312 173.757812 94.976562 C 173.757812 94.976562 164.84375 84.097656 162.203125 82.445312 C 162.203125 82.445312 158.269531 65.144531 156.292969 63.828125 C 156.292969 63.828125 152.296875 62.660156 149.65625 67.609375 C 147.015625 72.554688 145.695312 77.503906 145.695312 82.445312 C 145.695312 82.445312 138.429688 75.464844 136.121094 71.175781 C 136.121094 71.175781 132.488281 65.371094 128.195312 63.820312 C 128.195312 63.820312 112.019531 52.378906 110.367188 50.730469 L 102.113281 42.816406 C 102.113281 42.816406 90.226562 33.914062 88.90625 45.453125 L 79.660156 37.867188 C 79.660156 37.867188 72.398438 31.933594 67.445312 35.5625 C 62.492188 39.1875 64.800781 49.410156 70.414062 54.691406 C 70.414062 54.691406 64.800781 58.644531 68.105469 67.546875 C 68.105469 67.546875 70.085938 75.792969 72.066406 78.433594 C 72.066406 78.433594 67.980469 82.167969 72.4375 92.199219 C 72.4375 92.199219 75.671875 100.015625 80.484375 106.792969 C 80.484375 106.792969 91.804688 122.867188 92.792969 125.835938 C 92.792969 125.835938 101.285156 140.429688 105 142.40625 C 105 142.40625 125.800781 189.644531 158.980469 190.636719 C 158.980469 190.636719 180.363281 215.617188 185.644531 220.890625 C 190.925781 226.167969 223.171875 201.625 221.191406 186.066406 "/>
<path style=" stroke:none;fill-rule:nonzero;fill:rgb(84.309387%,48.239136%,41.178894%);fill-opacity:1;" d="M 185.96875 221.152344 L 185.980469 221.15625 C 187.738281 222.269531 191.5 220.859375 195.945312 217.90625 C 190.382812 211.5 171.71875 190.492188 170.621094 187.421875 C 169.382812 183.957031 167.402344 174.558594 165.925781 173.566406 C 164.449219 172.578125 155.515625 177.777344 155.515625 177.777344 C 134.960938 178.269531 114.660156 144.632812 115.648438 142.902344 C 116.636719 141.167969 117.382812 138.449219 115.648438 137.707031 C 113.914062 136.964844 110.199219 132.265625 110.199219 132.265625 C 108.964844 129.050781 95.339844 115.449219 91.378906 111.40625 C 87.417969 107.367188 80.734375 88.738281 76.277344 83.789062 C 74.277344 81.570312 72.175781 81.542969 70.46875 82.191406 C 70.152344 84.390625 70.414062 87.644531 72.4375 92.199219 C 72.4375 92.199219 75.671875 100.015625 80.484375 106.792969 C 80.484375 106.792969 91.804688 122.867188 92.792969 125.835938 C 92.792969 125.835938 101.285156 140.429688 105 142.40625 C 105 142.40625 125.800781 189.644531 158.980469 190.636719 C 158.980469 190.636719 180.363281 215.617188 185.644531 220.890625 C 185.738281 220.988281 185.847656 221.070312 185.960938 221.148438 L 185.96875 221.152344 "/>
<path style=" stroke:none;fill-rule:nonzero;fill:rgb(84.309387%,48.239136%,41.178894%);fill-opacity:1;" d="M 175.738281 108.113281 C 174.746094 105.800781 165.835938 93.269531 163.523438 91.621094 C 161.589844 90.242188 151.636719 81.726562 151.195312 65.59375 C 150.628906 66.113281 150.105469 66.769531 149.65625 67.609375 C 147.015625 72.554688 145.695312 77.503906 145.695312 82.445312 C 145.695312 82.445312 150.019531 87.589844 150.808594 88.378906 C 152.132812 89.695312 157.910156 94.917969 161.210938 97.886719 C 164.515625 100.855469 169.132812 105.472656 172.4375 111.078125 C 175.738281 116.6875 186.964844 117.34375 186.964844 117.34375 C 186.964844 117.34375 176.730469 110.417969 175.738281 108.113281 "/>
<path style=" stroke:none;fill-rule:nonzero;fill:rgb(84.309387%,48.239136%,41.178894%);fill-opacity:1;" d="M 133.480469 87.664062 C 134.796875 91.289062 137.441406 95.90625 139.75 99.207031 C 142.058594 102.503906 149.324219 111.40625 151.636719 111.40625 C 151.636719 111.40625 140.414062 94.257812 139.417969 88.652344 C 139.417969 88.652344 135.789062 80.082031 131.496094 77.113281 C 127.203125 74.144531 122.582031 72.546875 118.453125 65.59375 C 114.328125 58.644531 108.382812 57.328125 105.742188 55.015625 C 103.101562 52.710938 88.652344 47.011719 91.914062 39.96875 C 90.425781 40.664062 89.265625 42.289062 88.90625 45.453125 L 88.453125 45.085938 C 89.789062 47.671875 91.359375 50.320312 92.792969 51.722656 C 96.167969 55.015625 109.703125 64.582031 112.019531 68.867188 C 114.328125 73.152344 118.949219 75.132812 120.601562 76.453125 C 122.25 77.769531 132.15625 84.039062 133.480469 87.664062 "/>
<path style=" stroke:none;fill-rule:nonzero;fill:rgb(84.309387%,48.239136%,41.178894%);fill-opacity:1;" d="M 138.429688 118.992188 C 138.429688 118.992188 126.875 101.515625 125.222656 97.226562 C 123.574219 92.941406 107.726562 78.550781 104.753906 75.6875 C 101.78125 72.824219 91.558594 63.589844 90.066406 60.296875 C 88.640625 57.140625 83.449219 44.949219 69.433594 53.679688 C 69.75 54.03125 70.074219 54.367188 70.414062 54.691406 L 70.367188 54.726562 C 72.460938 54.550781 75.46875 54.359375 78.667969 54.359375 C 78.667969 54.359375 81.640625 55.347656 83.949219 59.964844 C 86.265625 64.578125 91.730469 73.484375 92.792969 73.484375 C 92.792969 73.484375 97.488281 77.441406 102.113281 80.082031 C 106.734375 82.71875 112.34375 90.632812 116.96875 95.25 C 116.96875 95.25 124.234375 102.832031 126.542969 106.132812 C 128.855469 109.429688 136.777344 118.003906 138.429688 118.992188 "/>
<path style=" stroke:none;fill-rule:nonzero;fill:rgb(84.309387%,48.239136%,41.178894%);fill-opacity:1;" d="M 101.285156 101.105469 C 97.820312 98.378906 85.683594 80.449219 83.949219 75.6875 C 82.683594 72.214844 73.339844 67.722656 68.15625 67.761719 C 68.480469 69.058594 70.257812 75.984375 72.042969 78.398438 C 74.105469 77.539062 75.285156 74.761719 80.484375 79.089844 C 80.484375 79.089844 83.457031 83.292969 85.683594 88.984375 C 87.914062 94.671875 96.085938 104.316406 99.058594 107.039062 C 99.058594 107.039062 111.191406 112.972656 114.410156 122.617188 C 114.410156 122.617188 118.003906 131.03125 120.042969 132.265625 C 120.042969 132.265625 115.894531 123.445312 114.90625 117.34375 C 113.914062 111.246094 104.753906 103.824219 101.285156 101.105469 "/>
<path style=" stroke:none;fill-rule:nonzero;fill:rgb(84.309387%,48.239136%,41.178894%);fill-opacity:1;" d="M 166.328125 136.699219 C 166.328125 136.699219 170.785156 147.089844 171.53125 149.191406 C 172.273438 151.292969 175.492188 155.003906 175.988281 155.996094 C 176.480469 156.984375 177.71875 159.703125 177.71875 160.691406 C 177.71875 161.683594 186.519531 169.84375 192.398438 172.070312 C 198.273438 174.296875 198.273438 174.296875 198.273438 174.296875 C 198.273438 174.296875 187.871094 160.199219 186.882812 156.734375 C 185.894531 153.269531 185.148438 132.746094 183.414062 129.777344 C 183.414062 129.777344 181.929688 131.757812 182.300781 134.96875 C 182.671875 138.183594 183.910156 141.648438 183.414062 143.875 C 182.921875 146.101562 183.664062 158.714844 183.414062 160.445312 C 183.167969 162.175781 170.042969 139.917969 166.328125 136.699219 "/>
<path style=" stroke:none;fill-rule:nonzero;fill:rgb(94.509888%,75.289917%,54.508972%);fill-opacity:1;" d="M 136.777344 74.636719 C 138.488281 76.738281 141.074219 78.835938 142.332031 79.019531 C 140.109375 76.648438 137.378906 73.515625 136.121094 71.175781 C 136.121094 71.175781 132.488281 65.371094 128.195312 63.820312 C 128.195312 63.820312 112.019531 52.378906 110.367188 50.730469 L 102.113281 42.816406 C 102.113281 42.816406 99.238281 40.664062 96.164062 39.847656 C 96.183594 39.867188 100.632812 43.648438 102.9375 46.113281 C 105.246094 48.589844 120.9375 64.46875 126.707031 65.59375 C 132.480469 66.726562 134.632812 72 136.777344 74.636719 "/>
<path style=" stroke:none;fill-rule:nonzero;fill:rgb(94.509888%,75.289917%,54.508972%);fill-opacity:1;" d="M 191.257812 113.71875 C 192.519531 116.097656 192.949219 141.363281 195.878906 149.308594 C 195.871094 149.195312 195.136719 137.253906 195.136719 129.050781 C 195.136719 120.808594 194.230469 112.792969 189.9375 109.496094 C 185.644531 106.199219 178.382812 97.945312 173.757812 94.976562 C 173.757812 94.976562 164.84375 84.097656 162.203125 82.445312 C 162.203125 82.445312 158.269531 65.144531 156.292969 63.828125 C 156.292969 63.828125 155.808594 63.6875 155.070312 63.710938 C 156.304688 68.789062 159.617188 82.238281 160.550781 83.707031 C 161.707031 85.523438 170.785156 94.425781 172.601562 96.734375 C 174.417969 99.042969 189.773438 110.914062 191.257812 113.71875 "/>
<path style=" stroke:none;fill-rule:nonzero;fill:rgb(98.429871%,82.749939%,76.858521%);fill-opacity:1;" d="M 162.15625 82.238281 C 161.78125 80.617188 159.261719 69.828125 157.351562 65.519531 C 155.554688 66.691406 152.929688 70.382812 157.5 81.824219 C 157.5 81.824219 159.746094 82.894531 162.15625 82.238281 "/>
<path style=" stroke:none;fill-rule:nonzero;fill:rgb(98.429871%,82.749939%,76.858521%);fill-opacity:1;" d="M 92.046875 39.765625 C 92.046875 39.765625 88.734375 47.183594 96.457031 52.070312 C 96.457031 52.070312 102.445312 50.773438 103.4375 46.441406 C 103.4375 46.441406 96.007812 36.304688 92.046875 39.765625 "/>
<path style=" stroke:none;fill-rule:nonzero;fill:rgb(98.429871%,82.749939%,76.858521%);fill-opacity:1;" d="M 85.191406 42.972656 L 79.660156 37.867188 C 79.660156 37.867188 77.902344 36.4375 75.527344 35.410156 C 73.183594 35.410156 68.160156 38.730469 71.695312 42.855469 C 77.300781 49.40625 79.585938 50.585938 79.585938 50.585938 C 79.585938 50.585938 83.992188 45.785156 85.191406 42.972656 "/>
<path style=" stroke:none;fill-rule:nonzero;fill:rgb(98.429871%,82.749939%,76.858521%);fill-opacity:1;" d="M 80.734375 55.410156 C 80.734375 55.410156 75.285156 54.113281 75.285156 60.046875 C 75.285156 60.046875 78.75 67.21875 80.363281 68.949219 C 80.363281 68.949219 84.53125 68.222656 86.964844 65.125 C 86.964844 65.125 82.773438 56.832031 80.734375 55.410156 "/>
<path style=" stroke:none;fill-rule:nonzero;fill:rgb(98.429871%,82.749939%,76.858521%);fill-opacity:1;" d="M 83.808594 84.789062 C 83.808594 84.789062 80.378906 88.613281 77.832031 88.363281 C 77.832031 88.363281 71.566406 77.65625 75.285156 76.738281 C 75.285156 76.738281 79.578125 74.164062 83.808594 84.789062 "/>
<path style=" stroke:none;fill-rule:nonzero;fill:rgb(74.899292%,37.249756%,34.118652%);fill-opacity:1;" d="M 164.84375 98.054688 C 161.875 95.089844 145.082031 79.578125 147.332031 72.914062 C 146.242188 76.089844 145.695312 79.269531 145.695312 82.445312 C 145.695312 82.445312 150.019531 87.589844 150.808594 88.378906 C 152.132812 89.695312 157.910156 94.917969 161.210938 97.886719 C 164.515625 100.855469 169.132812 105.472656 172.4375 111.078125 C 175.738281 116.6875 186.964844 117.34375 186.964844 117.34375 C 186.964844 117.34375 175.242188 111.902344 173.921875 110.417969 C 173.921875 110.417969 167.8125 101.019531 164.84375 98.054688 "/>
<path style=" stroke:none;fill-rule:nonzero;fill:rgb(90.589905%,59.609985%,45.878601%);fill-opacity:1;" d="M 68.15625 108.671875 C 68.15625 108.671875 68.566406 138.046875 72.09375 138.046875 C 75.625 138.046875 78.371094 129.429688 78.957031 124.730469 C 79.546875 120.03125 71.207031 104.429688 68.15625 108.671875 "/>
<path style=" stroke:none;fill-rule:nonzero;fill:rgb(90.589905%,59.609985%,45.878601%);fill-opacity:1;" d="M 88.453125 139.613281 C 88.453125 139.613281 77.644531 142.746094 78.988281 145.097656 C 80.328125 147.449219 89.40625 153.566406 91.339844 151.679688 C 93.269531 149.796875 92.972656 138.046875 88.453125 139.613281 "/>
<path style=" stroke:none;fill-rule:nonzero;fill:rgb(98.039246%,91.369629%,74.899292%);fill-opacity:1;" d="M 236.503906 177.214844 C 236.503906 177.214844 229.835938 170.6875 222.777344 166.902344 C 215.71875 163.113281 199.488281 168.597656 194.859375 174.867188 C 190.226562 181.132812 186.082031 193.128906 183.167969 195.234375 C 180.253906 197.339844 170.226562 225.390625 172.1875 240.667969 C 174.148438 255.945312 175.71875 267.695312 183.167969 274.746094 C 190.621094 281.792969 198.070312 297.070312 205.914062 302.164062 C 205.914062 302.164062 240.03125 211.292969 261.992188 199.148438 C 261.992188 199.148438 242.722656 182.554688 236.503906 177.214844 "/>
<path style=" stroke:none;fill-rule:nonzero;fill:rgb(84.709167%,77.249146%,57.249451%);fill-opacity:1;" d="M 221.28125 253.59375 C 217.148438 251.3125 218.367188 221.476562 214.839844 226.960938 C 211.308594 232.441406 213.269531 260.253906 211.308594 261.820312 C 209.347656 263.386719 205.035156 253.203125 201.898438 248.894531 C 198.761719 244.585938 185.425781 227.351562 184.25 223.824219 C 183.074219 220.300781 184.644531 206.984375 186.964844 203.066406 C 189.289062 199.148438 196.800781 181.132812 198.273438 176.824219 C 199.328125 173.742188 214.554688 169.359375 223.152344 167.113281 C 223.027344 167.042969 222.902344 166.96875 222.777344 166.902344 C 215.71875 163.113281 199.488281 168.597656 194.859375 174.867188 C 190.226562 181.132812 186.082031 193.128906 183.167969 195.234375 C 180.253906 197.339844 170.226562 225.390625 172.1875 240.667969 C 174.148438 255.945312 175.71875 267.695312 183.167969 274.746094 C 190.621094 281.792969 198.070312 297.070312 205.914062 302.164062 C 205.914062 302.164062 218.300781 269.175781 232.953125 240.292969 C 227.890625 247.308594 223.582031 254.867188 221.28125 253.59375 "/>
<path style=" stroke:none;fill-rule:nonzero;fill:rgb(70.588684%,63.529968%,44.309998%);fill-opacity:1;" d="M 204.644531 276.3125 C 199.546875 272.394531 186.542969 269.261719 186.964844 267.695312 C 187.386719 266.128906 201.960938 267.695312 201.960938 267.695312 C 201.960938 267.695312 189.375 262 182.300781 260.644531 C 175.226562 259.285156 177.816406 237.335938 177.503906 233.910156 C 177.191406 230.484375 179.320312 210.265625 178.253906 205.492188 C 174.660156 215.585938 170.921875 230.792969 172.1875 240.667969 C 174.148438 255.945312 175.71875 267.695312 183.167969 274.746094 C 190.621094 281.792969 198.070312 297.070312 205.914062 302.164062 C 205.914062 302.164062 208.996094 293.949219 213.90625 282.132812 C 210.613281 280.28125 206.960938 278.09375 204.644531 276.3125 "/>
<path style=" stroke:none;fill-rule:nonzero;fill:rgb(99.21875%,93.328857%,84.309387%);fill-opacity:1;" d="M 261.992188 199.148438 C 261.992188 199.148438 242.722656 182.554688 236.503906 177.214844 C 236.503906 177.214844 234.550781 175.308594 231.652344 172.960938 C 227.402344 174.453125 214.113281 179.34375 213.90625 182.308594 C 213.664062 185.832031 217.898438 229.894531 223.429688 233.910156 C 226.375 236.050781 230.089844 237.769531 234.164062 237.921875 C 243.5 219.824219 253.628906 203.773438 261.992188 199.148438 "/>
<path style=" stroke:none;fill-rule:nonzero;fill:rgb(87.449646%,76.469421%,59.21936%);fill-opacity:1;" d="M 261.992188 194.839844 C 261.992188 194.839844 252.722656 191.167969 247.78125 201.890625 C 244.234375 209.585938 235.769531 218.242188 232.953125 221.621094 C 230.132812 225 220.023438 246.988281 216.964844 264.5625 C 213.90625 282.132812 198.964844 300.59375 198.273438 303.730469 C 197.585938 306.863281 198.675781 313.914062 202.445312 317.828125 C 206.210938 321.746094 218.308594 334.28125 221.28125 338.980469 C 221.28125 338.980469 284.9375 343.253906 302.683594 338.980469 C 320.425781 334.707031 302.683594 221.535156 302.683594 221.535156 C 302.683594 221.535156 297.226562 213.644531 287.8125 209.726562 C 278.402344 205.8125 263.65625 197.582031 261.992188 194.839844 "/>
<path style=" stroke:none;fill-rule:nonzero;fill:rgb(77.249146%,65.879822%,49.409485%);fill-opacity:1;" d="M 302.683594 307.082031 C 286.441406 314.121094 258.085938 278.046875 252.488281 273.570312 C 246.605469 268.871094 243.859375 279.445312 237.945312 278.660156 C 232.03125 277.878906 229.347656 250.460938 228.171875 243.597656 C 227.441406 239.332031 231.390625 227.90625 234.484375 219.855469 C 233.878906 220.535156 233.351562 221.140625 232.953125 221.621094 C 230.132812 225 220.023438 246.988281 216.964844 264.5625 C 213.90625 282.132812 198.964844 300.59375 198.273438 303.730469 C 197.585938 306.863281 198.675781 313.914062 202.445312 317.828125 C 206.210938 321.746094 218.308594 334.28125 221.28125 338.980469 C 221.28125 338.980469 292.257812 341.429688 302.683594 338.980469 C 313.105469 336.53125 302.683594 307.082031 302.683594 307.082031 "/>
<path style=" stroke:none;fill-rule:nonzero;fill:rgb(64.309692%,53.329468%,41.178894%);fill-opacity:1;" d="M 219.488281 279.417969 C 219.039062 271.558594 219.488281 253.835938 219.488281 253.828125 C 218.449219 257.457031 217.566406 261.097656 216.964844 264.5625 C 213.90625 282.132812 198.964844 300.59375 198.273438 303.730469 C 197.585938 306.863281 198.675781 313.914062 202.445312 317.828125 C 206.210938 321.746094 218.308594 334.28125 221.28125 338.980469 L 266.4375 338.980469 C 253.972656 328.589844 228.523438 310.046875 224.644531 306.46875 C 219.546875 301.769531 219.9375 287.277344 219.488281 279.417969 "/>
<path style=" stroke:none;fill-rule:nonzero;fill:rgb(87.449646%,76.469421%,59.21936%);fill-opacity:1;" d="M 116.945312 311.113281 C 117.359375 312.277344 117.753906 313.574219 118.082031 315.085938 C 119.546875 321.746094 121.179688 337.023438 124.707031 338.980469 C 125.3125 339.316406 128.5625 339.539062 133.523438 339.671875 C 130.085938 334.183594 125.953125 325.09375 123.371094 319.789062 C 121.816406 316.597656 119.304688 313.550781 116.945312 311.113281 "/>
</g>
</svg>
